<svg width="60" height="60" viewBox="0 0 60 60" fill="none" xmlns="http://www.w3.org/2000/svg">
<g clip-path="url(#clip0_285_2871)">
<rect width="60" height="60" rx="30" fill="#F2FFFA"/>
<path d="M27.3241 54.4037C27.3241 53.7561 26.7992 53.2312 26.1516 53.2312H24.2576V55.5761H26.1516C26.7992 55.5761 27.3241 55.0512 27.3241 54.4037Z" fill="#FB5858"/>
<path d="M21.191 54.4037C21.191 53.7561 21.716 53.2312 22.3635 53.2312H24.2575V55.5761H22.3635C21.716 55.5761 21.191 55.0512 21.191 54.4037Z" fill="#FFF5F5"/>
<path d="M24.6564 49.0606C25.1761 48.6743 25.9105 48.7824 26.2969 49.302L27.4268 50.822L25.545 52.221L24.415 50.701C24.0287 50.1814 24.1367 49.4469 24.6564 49.0606Z" fill="#FB5858"/>
<path d="M28.3154 53.9822C28.8351 53.5959 28.9432 52.8614 28.5568 52.3418L27.4269 50.8218L25.545 52.2208L26.675 53.7408C27.0613 54.2605 27.7957 54.3686 28.3154 53.9822Z" fill="#FFF5F5"/>
<rect x="-3.41748" y="32.4685" width="66.8354" height="27.5316" fill="#97BFFD"/>
<path d="M25.2907 50.3166L11.4679 44.5444V56.0128L25.2907 50.3166Z" fill="#85453D" stroke="#85453D" stroke-width="0.151899"/>
<path d="M33.1892 50.4313L47.012 44.5444V56.2406L33.1892 50.4313Z" fill="#85453D" stroke="#85453D" stroke-width="0.151899"/>
<path d="M5.01233 40.519V38.0886L45.2655 19.6329L50.7338 17.1266C50.7338 17.1266 52.2756 16.5759 52.9364 17.1266C53.4272 17.5356 53.544 18.6456 53.544 18.6456L53.468 39.7595C53.6006 41.3503 53.2017 42.0026 51.4174 42.6456L31.063 51.1519C29.637 51.7696 28.8437 51.8388 27.4174 51.1519L6.98701 42.6456C5.35497 42.0905 4.96678 41.609 5.01233 40.519Z" fill="#A45E43" stroke="#A45E43" stroke-width="0.151899"/>
<path d="M4.93616 16.8988C4.93616 16.4652 5.37728 16.1712 5.77751 16.338L28.1066 25.6447C28.333 25.7391 28.4805 25.9603 28.4805 26.2056V47.5715C28.4805 48.0079 28.0341 48.302 27.6331 48.1298L5.30402 38.542C5.08083 38.4461 4.93616 38.2266 4.93616 37.9837V16.8988Z" fill="#C27749"/>
<path d="M51.4173 17.6844C51.4173 17.244 50.9635 16.9499 50.5615 17.1298L30.359 26.1699C30.1403 26.2678 29.9996 26.485 29.9996 26.7245V47.5778C29.9996 48.0125 30.4429 48.3066 30.8434 48.1376L51.0459 39.6124C51.271 39.5174 51.4173 39.2969 51.4173 39.0526V17.6844Z" fill="#C27749"/>
<path d="M11.6285 56.7722C11.13 56.7722 10.9934 56.0866 11.4539 55.8956L28.5249 48.8126L29.7742 51.7721L17.6958 56.7721L11.6285 56.7722Z" fill="#A45E43"/>
<path d="M46.6259 56.8747C47.1244 56.8747 47.261 56.1892 46.8006 55.9981L29.7296 48.9152L28.4803 51.8746L40.5586 56.8747L46.6259 56.8747Z" fill="#A45E43"/>
<path d="M48.683 10.5271C48.683 8.87936 46.988 7.77644 45.4815 8.44394L29.9995 15.3039V39.5003C29.9995 41.0937 31.5932 42.195 33.0837 41.6316L47.2103 36.291C48.0966 35.956 48.683 35.1073 48.683 34.1598V10.5271Z" fill="#E2D9FB"/>
<path d="M28.4805 15.304L29.3159 15.6837L30.1514 15.228V42.7976H28.4805V15.304Z" fill="#E2D9FB"/>
<path d="M46.6506 14.6166C46.6427 11.7093 46.6388 10.2556 45.7453 9.57401C45.649 9.50056 45.547 9.4349 45.4402 9.37766C44.4498 8.8465 43.125 9.44481 40.4753 10.6414L30.1514 15.3039V36.4305C30.1514 39.2769 30.1514 40.7001 31.0248 41.3842C31.119 41.4581 31.219 41.5244 31.3237 41.5826C32.2937 42.1212 33.6048 41.5678 36.2272 40.4609L44.0269 37.1688C45.2709 36.6438 45.8928 36.3813 46.2651 35.8722C46.3072 35.8146 46.3466 35.755 46.3831 35.6937C46.7059 35.1519 46.7041 34.4768 46.7005 33.1267L46.6506 14.6166Z" fill="#F2F2FC"/>
<path d="M9.79688 10.5271C9.79688 8.87936 11.4919 7.77644 12.9984 8.44394L28.4804 15.3039V39.5003C28.4804 41.0937 26.8867 42.195 25.3962 41.6316L11.2696 36.291C10.3833 35.956 9.79688 35.1073 9.79688 34.1598V10.5271Z" fill="#F2F2FC"/>
<path d="M9.87339 36.19V30.9495L25.0633 37.3292C27.3836 38.4893 28.4094 39.4323 29.0886 42.3419C29.17 42.6239 29.2184 42.7722 29.3164 43.0254L29.4683 42.3419C30.0577 39.8007 30.7291 38.5781 33.4936 37.3292L48.6075 30.9495V36.114C48.4937 37.2886 47.9284 37.7064 46.481 38.2406L29.924 45.152C29.4084 45.3983 29.1105 45.4182 28.5569 45.152L12.2278 38.3166C10.6293 37.7693 9.8307 37.4226 9.87339 36.19Z" fill="#B1BFE8" stroke="#B1BFE8" stroke-width="0.151899"/>
</g>
<defs>
<clipPath id="clip0_285_2871">
<rect width="60" height="60" rx="30" fill="white"/>
</clipPath>
</defs>
</svg>
