<svg width="60" height="60" viewBox="0 0 60 60" fill="none" xmlns="http://www.w3.org/2000/svg">
<g clip-path="url(#clip0_284_2607)">
<rect width="60" height="60" rx="30" fill="#F2FFFA"/>
<path d="M27.3241 54.4037C27.3241 53.7561 26.7991 53.2312 26.1516 53.2312H24.2576V55.5761H26.1516C26.7991 55.5761 27.3241 55.0512 27.3241 54.4037Z" fill="#FB5858"/>
<path d="M21.191 54.4037C21.191 53.7561 21.7159 53.2312 22.3635 53.2312H24.2574V55.5761H22.3635C21.7159 55.5761 21.191 55.0512 21.191 54.4037Z" fill="#FFF5F5"/>
<path d="M24.6564 49.0606C25.1761 48.6743 25.9105 48.7824 26.2969 49.302L27.4268 50.822L25.545 52.221L24.415 50.701C24.0287 50.1814 24.1367 49.4469 24.6564 49.0606Z" fill="#FB5858"/>
<path d="M28.3154 53.9822C28.8351 53.5959 28.9432 52.8614 28.5568 52.3418L27.4268 50.8218L25.545 52.2208L26.6749 53.7408C27.0613 54.2605 27.7957 54.3686 28.3154 53.9822Z" fill="#FFF5F5"/>
<rect x="-3.41748" y="32.4683" width="66.8354" height="27.5316" fill="#97BFFD"/>
<rect x="10.2802" y="8.92407" width="39.7079" height="17.2922" rx="3.79747" fill="#E7A561"/>
<path d="M6.27724 48.1516H54.1509V51.4217C54.1509 54.5676 51.6007 57.1179 48.4547 57.1179H11.9734C8.82752 57.1179 6.27724 54.5676 6.27724 51.4217V48.1516Z" fill="#7398D3"/>
<path d="M10.4404 55.9971H15.8842V58.4809C15.8842 59.3198 15.2041 59.9999 14.3652 59.9999H11.9594C11.1204 59.9999 10.4404 59.3198 10.4404 58.4809V55.9971Z" fill="#E7A561"/>
<path d="M44.2241 55.9971H49.6679V58.4809C49.6679 59.3198 48.9879 59.9999 48.149 59.9999H45.7431C44.9042 59.9999 44.2241 59.3198 44.2241 58.4809V55.9971Z" fill="#E7A561"/>
<path d="M6.19788 50.7935V45.5898H54.0716V50.4733C53.769 52.6169 53.1082 53.2059 51.1895 53.2753C49.6654 53.3769 49.0805 52.47 48.1474 50.4733C48.1474 50.4733 46.7775 53.2541 45.1853 53.2753C43.5703 53.2967 42.1432 50.4733 42.1432 50.4733C42.1432 50.4733 40.7733 53.2541 39.1811 53.2753C37.5661 53.2967 36.139 50.4733 36.139 50.4733C36.139 50.4733 34.7118 53.2967 33.0968 53.2753C31.5046 53.2541 30.1347 50.4733 30.1347 50.4733C30.1347 50.4733 28.7648 53.2541 27.1726 53.2753C25.5576 53.2967 24.1305 50.4733 24.1305 50.4733C24.1305 50.4733 22.7607 53.2753 21.1684 53.2753C19.5761 53.2753 18.2063 50.4733 18.2063 50.4733C18.2063 50.4733 16.7794 53.2732 15.1642 53.2753C13.57 53.2773 12.122 50.5533 12.122 50.5533C11.2282 52.8157 10.4774 53.3163 8.83974 53.2753C6.86129 53.1496 6.33755 52.5575 6.19788 50.7935Z" fill="#5986CB" stroke="#5986CB" stroke-width="0.189873"/>
<path d="M6.19788 48.792V43.5884H54.0716V48.4718C53.769 50.6154 53.1082 51.2045 51.1895 51.2738C49.6654 51.3755 49.0805 50.4685 48.1474 48.4718C48.1474 48.4718 46.7775 51.2526 45.1853 51.2738C43.5703 51.2953 42.1432 48.4718 42.1432 48.4718C42.1432 48.4718 40.7733 51.2526 39.1811 51.2738C37.5661 51.2953 36.139 48.4718 36.139 48.4718C36.139 48.4718 34.7118 51.2953 33.0968 51.2738C31.5046 51.2526 30.1347 48.4718 30.1347 48.4718C30.1347 48.4718 28.7648 51.2526 27.1726 51.2738C25.5576 51.2953 24.1305 48.4718 24.1305 48.4718C24.1305 48.4718 22.7607 51.2738 21.1684 51.2738C19.5761 51.2738 18.2063 48.4718 18.2063 48.4718C18.2063 48.4718 16.7794 51.2717 15.1642 51.2738C13.57 51.2758 12.122 48.5519 12.122 48.5519C11.2282 50.8143 10.4774 51.3148 8.83974 51.2738C6.86129 51.1482 6.33755 50.5561 6.19788 48.792Z" fill="#CBE2FF" stroke="#CBE2FF" stroke-width="0.189873"/>
<path d="M9.79925 25.8589C10.1731 24.1064 11.7212 22.8538 13.5131 22.8538H47.0189C48.8364 22.8538 50.399 24.1415 50.7464 25.9255L53.9139 42.194C54.3694 44.5333 52.5826 46.7091 50.1994 46.7172L10.0262 46.8546C7.60468 46.8628 5.7941 44.6331 6.29932 42.2648L9.79925 25.8589Z" fill="#DDEAFB"/>
<path d="M41.6617 13.0869C42.988 13.0869 44.0629 14.162 44.0631 15.4883C44.0631 16.7049 43.1583 17.7072 41.985 17.8652C42.042 18.0434 42.0882 18.2276 42.1207 18.417C42.6098 21.2623 42.5624 23.6863 42.0524 26.7139C42.0337 26.8243 42.0087 26.933 41.982 27.04C43.1567 27.1967 44.0629 28.2005 44.0631 29.418C44.0631 30.7444 42.9881 31.8203 41.6617 31.8203C40.5498 31.8203 39.6168 31.0638 39.3434 30.0381C38.9106 30.2141 38.4466 30.3284 37.9635 30.3662C32.301 30.8095 28.1139 30.8076 22.5406 30.375C21.8615 30.3223 21.2193 30.1224 20.652 29.8057C20.4665 30.9475 19.48 31.8201 18.2858 31.8203C16.9593 31.8203 15.8834 30.7444 15.8834 29.418C15.8836 28.0918 16.9595 27.0166 18.2858 27.0166C18.3625 27.0166 18.4384 27.0213 18.5133 27.0283C18.478 26.8838 18.4497 26.7363 18.4293 26.5859C18.0313 23.6545 18.03 21.3164 18.3902 18.6514C18.4267 18.3813 18.4878 18.1206 18.5719 17.8711C18.478 17.8823 18.3827 17.8906 18.2858 17.8906C16.9593 17.8906 15.8834 16.8147 15.8834 15.4883C15.8836 14.162 16.9594 13.0869 18.2858 13.0869C19.591 13.0871 20.6499 14.1286 20.6832 15.4258C21.2702 15.1159 21.9332 14.9291 22.6285 14.8945C28.1947 14.6179 32.3694 14.6185 37.9723 14.9033C38.4272 14.9265 38.868 15.0182 39.2838 15.1641C39.4424 13.9913 40.4455 13.0869 41.6617 13.0869Z" fill="#7398D3"/>
</g>
<defs>
<clipPath id="clip0_284_2607">
<rect width="60" height="60" rx="30" fill="white"/>
</clipPath>
</defs>
</svg>
