<svg width="60" height="60" viewBox="0 0 60 60" fill="none" xmlns="http://www.w3.org/2000/svg">
<g clip-path="url(#clip0_283_2301)">
<rect width="60" height="60" rx="30" fill="#F2FFFA"/>
<rect y="28.8606" width="60" height="31.1392" fill="#FFC14F"/>
<rect x="2.6582" y="4.55688" width="38.3544" height="3.60759" rx="0.56962" fill="#F49F0A"/>
<rect x="4.74683" y="8.16455" width="34.1772" height="36.076" fill="#A5C3DC"/>
<path d="M33.6076 17.2783C33.6076 16.5443 34.2027 15.9492 34.9367 15.9492H56.7722C57.5062 15.9492 58.1013 16.5443 58.1013 17.2783V44.2404H33.6076V17.2783Z" fill="#A5C3DC"/>
<path d="M4.74683 11.0124C4.74683 10.593 5.08686 10.2529 5.50632 10.2529H29.0506C29.4701 10.2529 29.8101 10.593 29.8101 11.0124V44.2403H4.74683V11.0124Z" fill="#D7E6F0"/>
<path d="M33.6076 16.8986C33.6076 16.3743 34.0327 15.9492 34.557 15.9492H49.7468C50.2712 15.9492 50.6962 16.3743 50.6962 16.8986V44.2404H33.6076V16.8986Z" fill="#D7E6F0"/>
<rect x="8.92407" y="11.9619" width="7.40506" height="7.40506" rx="0.949367" fill="#23AAE6"/>
<rect x="35.1266" y="19.3669" width="6.07595" height="6.07595" rx="0.949367" fill="#23AAE6"/>
<rect x="35.1266" y="27.1519" width="6.07595" height="6.07595" rx="0.949367" fill="#23AAE6"/>
<rect x="8.92407" y="21.4556" width="7.40506" height="7.40506" rx="0.949367" fill="#23AAE6"/>
<path d="M8.92407 31.8986C8.92407 31.3743 9.34912 30.9492 9.87344 30.9492H18.2279C18.7522 30.9492 19.1772 31.3743 19.1772 31.8986V44.2404H8.92407V31.8986Z" fill="#23AAE6"/>
<rect x="18.2278" y="11.9619" width="7.40506" height="7.40506" rx="0.949367" fill="#23AAE6"/>
<rect x="42.5316" y="19.3669" width="6.07595" height="6.07595" rx="0.949367" fill="#23AAE6"/>
<rect x="42.5316" y="27.1519" width="6.07595" height="6.07595" rx="0.949367" fill="#23AAE6"/>
<rect x="18.2278" y="21.4556" width="7.40506" height="7.40506" rx="0.949367" fill="#23AAE6"/>
<rect x="3.03796" y="44.2405" width="56.962" height="15.7595" fill="#555A6E"/>
<path d="M39.256 42.651C37.0007 42.651 36.0786 41.0561 37.2001 39.0998C37.848 37.9659 37.4617 36.5205 36.3278 35.8726L34.1722 34.639C33.1878 34.0533 31.9168 34.4022 31.3312 35.3866L31.1941 35.6234C30.0727 37.5796 28.2285 37.5796 27.0946 35.6234L26.9576 35.3866C26.3969 34.4022 25.1259 34.0533 24.1415 34.639L21.9859 35.8726C20.852 36.5205 20.4657 37.9784 21.1136 39.1123C22.2475 41.0561 21.3255 42.651 19.0701 42.651C17.7742 42.651 16.7026 43.7102 16.7026 45.0185V47.2116C16.7026 48.5075 17.7618 49.579 19.0701 49.579C21.3255 49.579 22.2475 51.174 21.1136 53.1303C20.4657 54.2642 20.852 55.7096 21.9859 56.3575L24.1415 57.5911C25.1259 58.1768 26.3969 57.8279 26.9825 56.8435L27.1196 56.6067C28.241 54.6505 30.0852 54.6505 31.2191 56.6067L31.3561 56.8435C31.9418 57.8279 33.2127 58.1768 34.1971 57.5911L36.3528 56.3575C37.4867 55.7096 37.8729 54.2517 37.225 53.1303C36.0911 51.174 37.0132 49.579 39.2685 49.579C40.5644 49.579 41.636 48.5199 41.636 47.2116V45.0185C41.6235 43.7226 40.5644 42.651 39.256 42.651ZM29.1631 50.1647C26.9327 50.1647 25.1134 48.3455 25.1134 46.115C25.1134 43.8846 26.9327 42.0654 29.1631 42.0654C31.3935 42.0654 33.2127 43.8846 33.2127 46.115C33.2127 48.3455 31.3935 50.1647 29.1631 50.1647Z" fill="#7A4F05"/>
<path d="M37.7702 42.6274C35.5149 42.6274 34.5928 41.0324 35.7142 39.0761C36.3622 37.9422 35.9759 36.4968 34.842 35.8489L32.6863 34.6153C31.702 34.0297 30.431 34.3786 29.8454 35.3629L29.7083 35.5997C28.5869 37.556 26.7427 37.556 25.6088 35.5997L25.4717 35.3629C24.911 34.3786 23.6401 34.0297 22.6557 34.6153L20.5 35.8489C19.3661 36.4968 18.9799 37.9547 19.6278 39.0886C20.7617 41.0324 19.8396 42.6274 17.5843 42.6274C16.2884 42.6274 15.2168 43.6865 15.2168 44.9948V47.1879C15.2168 48.4838 16.2759 49.5554 17.5843 49.5554C19.8396 49.5554 20.7617 51.1503 19.6278 53.1066C18.9799 54.2405 19.3661 55.6859 20.5 56.3338L22.6557 57.5674C23.6401 58.1531 24.911 57.8042 25.4967 56.8198L25.6337 56.5831C26.7552 54.6268 28.5993 54.6268 29.7332 56.5831L29.8703 56.8198C30.4559 57.8042 31.7269 58.1531 32.7113 57.5674L34.8669 56.3338C36.0008 55.6859 36.3871 54.228 35.7391 53.1066C34.6052 51.1503 35.5273 49.5554 37.7827 49.5554C39.0785 49.5554 40.1501 48.4962 40.1501 47.1879V44.9948C40.1377 43.699 39.0785 42.6274 37.7702 42.6274ZM27.6772 50.141C25.4468 50.141 23.6276 48.3218 23.6276 46.0914C23.6276 43.8609 25.4468 42.0417 27.6772 42.0417C29.9077 42.0417 31.7269 43.8609 31.7269 46.0914C31.7269 48.3218 29.9077 50.141 27.6772 50.141Z" fill="#F49F0A"/>
<circle cx="27.6329" cy="46.0491" r="4.91772" fill="#D7E6F0"/>
<path d="M24.8419 47.1514L26.8619 48.8401L30.1584 43.856" stroke="#91C83C" stroke-width="1.32911" stroke-linecap="round"/>
</g>
<defs>
<clipPath id="clip0_283_2301">
<rect width="60" height="60" rx="30" fill="white"/>
</clipPath>
</defs>
</svg>
