<svg width="42" height="42" viewBox="0 0 42 42" fill="none" xmlns="http://www.w3.org/2000/svg">
<rect width="42" height="42" rx="21" fill="#146168"/>
<path d="M4.43625 13.5502L3.74885 11.5409C3.70059 11.3998 3.77858 11.2467 3.9211 11.2029L20.7521 6.0241C20.8032 6.0084 20.8577 6.00853 20.9087 6.02446L37.6795 11.2694C37.8197 11.3132 37.8972 11.4632 37.8519 11.603L37.222 13.545C37.1775 13.6822 37.031 13.7584 36.8931 13.7159L20.9081 8.79749C20.8575 8.78191 20.8034 8.78191 20.7528 8.79749L4.76387 13.7172C4.62749 13.7591 4.48244 13.6852 4.43625 13.5502Z" fill="#8DB14C" stroke="#8DB14C" stroke-width="0.132075"/>
<path d="M6.30225 39.6792H35.3588V13.132L20.8305 8.50939L6.30225 13.132V39.6792Z" fill="#AACB6C"/>
<rect x="3" y="39.6792" width="35.6604" height="1.32075" rx="0.660377" fill="#8DB14C"/>
<path d="M16.3789 17.8076V14.1095H24.9308V17.8076C23.6732 18.5727 22.399 18.9586 20.678 18.9633C18.9395 18.968 17.3079 18.4799 16.3789 17.8076Z" fill="#3E4950" stroke="#3E4950" stroke-width="0.0924528"/>
<path d="M20.7707 11.151L14.6226 13.5548L20.7707 15.9123L27.0112 13.5548L20.7707 11.151Z" fill="#2E353A" stroke="#2E353A" stroke-width="0.0924528"/>
<path d="M20.4435 13.6966C20.6423 13.8803 22.7086 15.0834 22.7086 15.0834L22.7548 19.8447H23.6332V14.9447C23.6602 14.6607 23.5937 14.5252 23.2633 14.3437L20.952 13.0494C20.952 13.0494 20.4982 12.9119 20.3511 13.0956C20.2026 13.2809 20.2447 13.5128 20.4435 13.6966Z" fill="#F4D45A" stroke="#F4D45A" stroke-width="0.0924528"/>
<path d="M23.8215 19.7491H22.481L22.2036 22.0605H24.0989L23.8215 19.7491Z" fill="#ECB12A" stroke="#ECB12A" stroke-width="0.0924528"/>
<path d="M7.6886 36.3444L7.62256 39.6793H22.0848V36.3774C21.8774 35.1253 21.4359 34.7416 20.3018 34.3963L16.5707 33.3727H13.1697L9.70275 34.2972C8.30246 34.6491 7.95883 35.1322 7.6886 36.3444Z" fill="#5EC694" stroke="#5EC694" stroke-width="0.0660377"/>
<rect x="14.5234" y="32.3491" width="0.660377" height="4.62264" rx="0.330189" fill="#4AA87D"/>
<path d="M13.2026 31.8208H16.5706V33.0095C16.5706 33.7389 15.9792 34.3302 15.2498 34.3302H14.5234C13.794 34.3302 13.2026 33.7389 13.2026 33.0095V31.8208Z" fill="#FFD19F"/>
<rect x="9.30615" y="25.2831" width="11.2264" height="2.64151" rx="1.32075" fill="#FFD19F"/>
<path d="M10.8252 25.2831H18.9478V28.2218C18.9478 30.4648 17.1295 32.2831 14.8865 32.2831C12.6435 32.2831 10.8252 30.4648 10.8252 28.2218V25.2831Z" fill="#FFDFB8"/>
<path d="M12.4434 30.1698V31.7217C12.4387 31.9166 13.9019 32.492 14.9198 32.5472C15.9702 32.6041 17.4644 31.8468 17.3962 31.7217V30.1698C17.1629 29.4494 16.9561 29.1092 16.1745 28.8491C16.1745 28.8491 15.4158 28.6467 14.9198 28.6509C14.4492 28.655 13.7311 28.8491 13.7311 28.8491C12.9063 29.1243 12.6548 29.4362 12.4434 30.1698Z" fill="#8E4E23" stroke="#8E4E23" stroke-width="0.0660377"/>
<path d="M13.1362 30.2889V31.2876C13.1329 31.4131 14.1859 31.7834 14.9184 31.8189C15.6744 31.8555 16.7497 31.3681 16.7006 31.2876V30.2889C16.5328 29.8253 16.3839 29.6063 15.8214 29.4389C15.8214 29.4389 15.2754 29.3087 14.9184 29.3114C14.5798 29.314 14.063 29.4389 14.063 29.4389C13.4694 29.6161 13.2884 29.8168 13.1362 30.2889Z" fill="#FFDFB8" stroke="#FFDFB8" stroke-width="0.0660377"/>
<path d="M10.8252 25.2831H18.9478C18.9478 23.0401 17.1295 21.1887 14.8865 21.1887C12.6435 21.1887 10.8252 23.0401 10.8252 25.2831Z" fill="#5EC694"/>
<rect x="14.6553" y="31.0944" width="0.528302" height="1.25472" rx="0.264151" fill="#8E4E23"/>
<path d="M20.3022 39.634C20.3022 36.6653 22.7089 34.2587 25.6776 34.2587H29.3891C32.3579 34.2587 34.7645 36.6653 34.7645 39.634H20.3022Z" fill="#4AA87D"/>
<path d="M21.7739 27.1555C21.5607 29.9023 21.3962 31.4181 20.942 34.0347C20.6443 36.4546 21.4601 37.0048 23.5977 37.4263C26.7655 38.0167 28.5524 38.022 31.7247 37.4263C33.8268 37.0248 34.4559 36.3779 34.0284 34.0347C33.6771 31.6643 33.534 30.1459 33.3565 27.1555C33.1312 25.0958 32.4851 24.158 30.7648 22.836C28.3082 21.5419 26.8639 21.4983 24.3656 22.836C22.4746 23.9786 22.0066 24.986 21.7739 27.1555Z" fill="#5EC694" stroke="#5EC694" stroke-width="0.132075"/>
<rect x="23.8857" y="24.1478" width="7.29513" height="9.02292" rx="3.64756" fill="#4AA87D"/>
<path d="M31.1169 27.1874C28.1978 26.4648 26.6145 26.4649 23.8857 27.1874V30.995C24.1147 32.404 24.6745 33.0362 26.3814 33.9066C27.2687 34.315 27.7659 34.3564 28.6532 33.9066C30.2518 33.0896 30.8307 32.4226 31.1169 30.995C31.167 29.5081 31.1526 28.6744 31.1169 27.1874Z" fill="#FFD19F" stroke="#FFD19F" stroke-width="0.132075"/>
</svg>
