<svg width="60" height="60" viewBox="0 0 60 60" fill="none" xmlns="http://www.w3.org/2000/svg">
<g clip-path="url(#clip0_285_2895)">
<rect width="60" height="60" rx="30" fill="#F9FBFF"/>
<rect x="5.88525" y="34.7358" width="7.83173" height="15.0108" rx="0.56962" fill="#0B31DB"/>
<path d="M15.1848 36.6119H13.7164V47.87L17.7954 45.7489C19.0226 45.1961 19.7489 45.1499 21.1402 45.7489L24.1587 47.6253C25.8504 48.6944 26.8562 48.7908 28.7272 48.2779L36.5589 46.6463C42.2942 42.8779 45.5077 40.7623 50.8355 36.3671C51.4002 35.6543 51.6829 35.0773 50.9171 33.675C49.8389 32.4257 49.2516 32.2752 48.2249 32.6961L38.0273 38.6514L37.4563 38.733C36.9702 37.1956 36.4638 36.9157 35.4168 36.7751H28.4009C25.9977 34.2993 24.4983 33.5537 21.4665 33.7566C19.357 33.9698 17.9235 34.7473 15.1848 36.6119Z" fill="#EDA970" stroke="#EDA970" stroke-width="0.113924"/>
<path d="M30.1141 42.9756C35.231 41.7548 38.6517 41.2241 37.4564 38.2439" stroke="#C6744F" stroke-width="0.56962" stroke-linecap="round"/>
<circle cx="37.8475" cy="22.509" r="8.90501" fill="#FFC928"/>
<circle cx="37.9598" cy="22.6217" r="6.31241" fill="#FFB200"/>
<path d="M39.2504 22.2581L37.096 21.4451C36.8805 21.3677 36.8356 21.3483 36.8356 21.0096C36.8356 20.7579 36.9972 20.5547 37.2037 20.5547H38.5502C38.8375 20.5547 39.0709 20.8354 39.0709 21.1838C39.0709 21.5806 39.3761 21.9097 39.7442 21.9097C40.1122 21.9097 40.4174 21.5806 40.4174 21.1838C40.4174 20.0708 39.6185 19.161 38.622 19.1126V19.0642C38.622 18.6674 38.3168 18.3384 37.9488 18.3384C37.5807 18.3384 37.2755 18.6578 37.2755 19.0642V19.1126H37.1947C36.2521 19.1126 35.4801 19.9643 35.4801 21.0193C35.4801 21.9387 35.8571 22.5291 36.6381 22.8194L38.8016 23.6324C39.017 23.7098 39.0619 23.7292 39.0619 24.0679C39.0619 24.3196 38.9003 24.5228 38.6938 24.5228H37.3473C37.06 24.5228 36.8266 24.2421 36.8266 23.8937C36.8266 23.4969 36.5214 23.1678 36.1534 23.1678C35.7853 23.1678 35.4801 23.4969 35.4801 23.8937C35.4801 25.0067 36.2791 25.9165 37.2755 25.9649V26.0229C37.2755 26.4197 37.5807 26.7488 37.9488 26.7488C38.3168 26.7488 38.622 26.4197 38.622 26.0229V25.9745H38.7028C39.6454 25.9745 40.4174 25.1228 40.4174 24.0679C40.4174 23.1485 40.0314 22.5581 39.2504 22.2581Z" fill="white"/>
<path d="M40.5529 15.4075C42.7154 16.3462 43.5971 17.0446 44.7236 18.7891" stroke="#FFDF81" stroke-width="0.729114" stroke-linecap="round"/>
<path d="M38.6364 15.1821H39.2112" stroke="#FFDF81" stroke-width="0.729114" stroke-linecap="round"/>
<path d="M30.4597 16.3815V10.1287H44.9194V16.3815C42.7931 17.6752 40.6386 18.3276 37.7286 18.3355C34.7891 18.3435 32.0304 17.5182 30.4597 16.3815Z" fill="#3E4950" stroke="#3E4950" stroke-width="0.126391"/>
<path d="M28.2885 9.44751V12.7822" stroke="#F4D45A" stroke-width="0.759494" stroke-linecap="round"/>
<path d="M27.7238 12.8291H28.8533L29.087 14.8957H27.4901L27.7238 12.8291Z" fill="#ECB12A" stroke="#ECB12A" stroke-width="0.126391"/>
<path d="M37.8861 5.12646L27.4907 9.19082L37.8861 13.177L48.4378 9.19082L37.8861 5.12646Z" fill="#2E353A" stroke="#2E353A" stroke-width="0.126391"/>
<path d="M8.34058 53.7898H9.82216V56.8338C9.82216 57.2429 9.49049 57.5746 9.08137 57.5746C8.67224 57.5746 8.34058 57.2429 8.34058 56.8338V53.7898Z" fill="#E29E59"/>
<path d="M49.5424 59.5369H51.0945V55.8273C51.0945 55.3986 50.747 55.0512 50.3184 55.0512C49.8898 55.0512 49.5424 55.3986 49.5424 55.8273V59.5369Z" fill="#E29E59"/>
<path d="M58.2909 50.1263C58.2909 52.8848 55.3102 55.5303 50.0046 57.4808C44.699 59.4313 37.503 60.5271 29.9998 60.5271C22.4965 60.5271 15.3005 59.4313 9.9949 57.4808C4.68929 55.5303 1.70862 52.8848 1.70862 50.1263L58.2909 50.1263Z" fill="#BFBFD8"/>
<path d="M32.5749 50.1265H34.127V58.9191C34.127 59.3477 33.7796 59.6952 33.351 59.6952C32.9223 59.6952 32.5749 59.3477 32.5749 58.9191V50.1265Z" fill="#ABABC4"/>
<path d="M15.3602 59.6951H16.9124V52.3585C16.9124 51.9299 16.5649 51.5825 16.1363 51.5825C15.7077 51.5825 15.3602 51.9299 15.3602 52.3585V59.6951Z" fill="#ABABC4"/>
<path d="M24.8494 50.1265H26.4016V56.0069C26.4016 56.4355 26.0541 56.7829 25.6255 56.7829C25.1969 56.7829 24.8494 56.4355 24.8494 56.0069V50.1265Z" fill="#ABABC4"/>
<path d="M44.1805 50.1265H45.7327V56.0069C45.7327 56.4355 45.3852 56.7829 44.9566 56.7829C44.528 56.7829 44.1805 56.4355 44.1805 56.0069V50.1265Z" fill="#ABABC4"/>
<path d="M27.9538 61.3594H29.5059V55.479C29.5059 55.0503 29.1585 54.7029 28.7299 54.7029C28.3013 54.7029 27.9538 55.0503 27.9538 55.479V61.3594Z" fill="#ABABC4"/>
<path d="M35.4323 61.3594H36.9844V57.5591C36.9844 57.1305 36.637 56.783 36.2084 56.783C35.7798 56.783 35.4323 57.1305 35.4323 57.5591V61.3594Z" fill="#ABABC4"/>
<path d="M20.1931 60.1111H21.7452V51.3185C21.7452 50.8898 21.3978 50.5424 20.9692 50.5424C20.5406 50.5424 20.1931 50.8898 20.1931 51.3185V60.1111Z" fill="#ABABC4"/>
<path d="M39.5242 60.1111H41.0764V51.3185C41.0764 50.8898 40.7289 50.5424 40.3003 50.5424C39.8717 50.5424 39.5242 50.8898 39.5242 51.3185V60.1111Z" fill="#ABABC4"/>
<path d="M11.2688 53.7898H12.8209V56.0976C12.8209 56.5262 12.4735 56.8737 12.0449 56.8737C11.6163 56.8737 11.2688 56.5262 11.2688 56.0976V53.7898Z" fill="#E29E59"/>
</g>
<defs>
<clipPath id="clip0_285_2895">
<rect width="60" height="60" rx="30" fill="white"/>
</clipPath>
</defs>
</svg>
