<svg width="60" height="60" viewBox="0 0 60 60" fill="none" xmlns="http://www.w3.org/2000/svg">
<g clip-path="url(#clip0_632_3108)">
<mask id="mask0_632_3108" style="mask-type:luminance" maskUnits="userSpaceOnUse" x="0" y="0" width="60" height="60">
<path d="M60 30C60 13.4315 46.5685 0 30 0C13.4315 0 0 13.4315 0 30C0 46.5685 13.4315 60 30 60C46.5685 60 60 46.5685 60 30Z" fill="white"/>
</mask>
<g mask="url(#mask0_632_3108)">
<path d="M60 30C60 13.4315 46.5685 0 30 0C13.4315 0 0 13.4315 0 30C0 46.5685 13.4315 60 30 60C46.5685 60 60 46.5685 60 30Z" fill="#F2FFFA"/>
<path d="M63.4179 42.9114H-3.41748V60H63.4179V42.9114Z" fill="#FFBD64"/>
<path d="M30.5777 42.7016H20.3918C19.9834 40.7785 19.3096 39.5172 17.0814 36.8447H33.973C32.04 39.0257 31.247 40.3003 30.5777 42.7016Z" fill="#FEDB41" stroke="#FEDB41" stroke-width="0.189873"/>
<path d="M25.4854 11.6443C32.6914 11.6445 38.5467 18.0166 38.547 25.8943C38.547 33.7722 32.6916 40.145 25.4854 40.1453C18.2791 40.1453 12.4229 33.7724 12.4229 25.8943C12.4232 18.0164 18.2793 11.6443 25.4854 11.6443Z" fill="#FEDB41" stroke="#FEDB41" stroke-width="0.189873"/>
<path d="M40.17 15.5391L43.5653 13.502" stroke="#FEA832" stroke-width="1.51899" stroke-linecap="round"/>
<path d="M33.9252 9.3778L36.074 6.052" stroke="#FEA832" stroke-width="1.51899" stroke-linecap="round"/>
<path d="M25.4671 7.1867L25.5393 3.22778" stroke="#FEA832" stroke-width="1.51899" stroke-linecap="round"/>
<path d="M16.9567 9.44163L15.0463 5.97339" stroke="#FEA832" stroke-width="1.51899" stroke-linecap="round"/>
<path d="M10.7625 15.5929L7.40521 13.4937" stroke="#FEA832" stroke-width="1.51899" stroke-linecap="round"/>
<path d="M20.3074 15.8787C16.5095 18.7259 15.4191 20.9081 14.79 25.5553" stroke="#FEA832" stroke-width="1.51899" stroke-linecap="round"/>
<path d="M25.4852 51.9539V53.5667C25.728 56.2363 26.6954 56.7886 29.1351 56.962H33.1246C35.5286 56.9135 37.2586 55.8225 37.3688 53.0574V41.4284C37.3437 39.7968 38.0748 39.2656 39.5361 39.3064H42.971" stroke="#214C5F" stroke-width="1.51899"/>
<path d="M20.3074 27.1681L29.3899 15.624L26.8434 24.9611H30.748L21.6656 36.4203L24.1272 27.1681H20.3074Z" fill="#FEA832" stroke="#FEA832" stroke-width="0.189873"/>
<path d="M22.6838 48.8979H28.2861V50.4347C28.2861 51.2737 27.606 51.9538 26.7671 51.9538H24.2028C23.3639 51.9538 22.6838 51.2737 22.6838 50.4347V48.8979Z" fill="#1B3D4D"/>
<path d="M30.527 42.8713H20.4402C20.5905 43.3503 20.6884 43.6674 20.7318 44.3992V47.0306C20.7671 47.9821 21.056 48.7356 22.3446 49.1527H28.6259C29.7313 49.1053 30.2309 48.5764 30.3234 47.1155L30.3236 44.3992C30.3546 43.709 30.3768 43.356 30.527 42.8713Z" fill="#214C5F" stroke="#214C5F" stroke-width="0.189873"/>
<path d="M45.772 36.5051C44.9615 36.5051 44.1843 36.8449 43.6112 37.4498C43.0381 38.0548 42.7162 38.8752 42.7162 39.7307C42.7162 40.5861 43.0381 41.4066 43.6112 42.0115C44.1843 42.6164 44.9615 42.9562 45.772 42.9562V39.7307V36.5051Z" fill="#0096B0"/>
<path d="M48.8278 38.5423V37.0144H51.9684C52.3903 37.0144 52.7324 37.3565 52.7324 37.7784C52.7324 38.2003 52.3903 38.5423 51.9684 38.5423H48.8278Z" fill="#EBECED"/>
<path d="M48.8278 42.1075V40.5796H51.9684C52.3903 40.5796 52.7324 40.9217 52.7324 41.3436C52.7324 41.7655 52.3903 42.1075 51.9684 42.1075H48.8278Z" fill="#EBECED"/>
<path d="M49.1673 36.5051H45.772V42.9562H49.1673V36.5051Z" fill="#00A7C4"/>
</g>
</g>
<defs>
<clipPath id="clip0_632_3108">
<rect width="60" height="60" fill="white"/>
</clipPath>
</defs>
</svg>
