<svg width="60" height="60" viewBox="0 0 60 60" fill="none" xmlns="http://www.w3.org/2000/svg">
<g clip-path="url(#clip0_291_1663)">
<rect width="60" height="60" rx="30" fill="#F9FBFF"/>
<path d="M28.6733 12.8227C28.8443 15.94 29.6048 17.7736 30.7245 20.5599H37.77C39.7414 15.4473 40.1233 13.4743 39.6429 11.3899C39.1508 9.93879 38.6571 9.66484 37.5025 9.86156C34.9599 10.5487 33.5347 10.6391 30.992 9.86156C29.5119 9.76775 29.0613 10.145 28.7624 11.3899C28.7152 11.7863 28.6267 12.1287 28.6733 12.8227Z" fill="#339966" stroke="#339966" stroke-width="0.182278" stroke-linecap="round"/>
<path d="M17.5253 12.8227C17.6963 15.94 18.4568 17.7736 19.5765 20.5599H26.622C28.5934 15.4473 28.9753 13.4743 28.4949 11.3899C28.0027 9.93879 27.5091 9.66484 26.3545 9.86156C23.8118 10.5487 22.3866 10.6391 19.844 9.86156C18.3639 9.76775 17.9133 10.145 17.6144 11.3899C17.5672 11.7863 17.4786 12.1287 17.5253 12.8227Z" fill="#339966" stroke="#339966" stroke-width="0.182278" stroke-linecap="round"/>
<path d="M14.7233 28.8332C10.8412 36.4369 10.0654 39.8811 10.7101 44.8329C33.6388 55.6793 44.372 52.3221 46.4951 44.5941C47.7132 44.2218 46.7054 35.2752 42.8163 29.1914C40.7953 26.03 37.1179 21.5146 36.9079 21.6691H20.5203C18.0448 23.7209 16.8095 25.409 14.7233 28.8332Z" fill="#3BB084" stroke="#3BB084" stroke-width="0.227848"/>
<path d="M35.3289 27.7588C35.5899 27.7588 35.8024 27.555 35.7933 27.3037C35.7096 24.9994 34.9926 22.8124 33.7748 21.1733C32.4771 19.4268 30.717 18.4456 28.8818 18.4456C27.0466 18.4456 25.2865 19.4268 23.9888 21.1733C22.771 22.8124 22.054 24.9994 21.9703 27.3037C21.9612 27.555 22.1737 27.7588 22.4347 27.7588C22.6957 27.7588 22.9063 27.5549 22.9169 27.3037C22.9997 25.337 23.6168 23.4733 24.6572 22.073C25.7777 20.565 27.2973 19.7178 28.8818 19.7178C30.4663 19.7178 31.986 20.565 33.1064 22.073C34.1468 23.4733 34.7639 25.337 34.8467 27.3037C34.8573 27.5549 35.0679 27.7588 35.3289 27.7588Z" fill="#339966"/>
<path d="M21.748 9.08834C21.9618 12.9849 22.9125 15.2769 24.3121 18.7598H33.119C35.5832 12.369 36.0606 9.90283 35.46 7.2973C34.8449 5.48342 34.2278 5.14098 32.7845 5.38689C29.6063 6.24576 27.8248 6.35884 24.6465 5.38689C22.7964 5.26963 22.2331 5.74115 21.8595 7.2973C21.8005 7.79277 21.6898 8.22082 21.748 9.08834Z" fill="#66CC99" stroke="#66CC99" stroke-width="0.227848" stroke-linecap="round"/>
<path d="M28.0552 18.7602C27.7962 15.3331 28.2834 13.8783 30.0618 11.9543" stroke="#339966" stroke-width="1.82278" stroke-linecap="round"/>
<rect x="17.5303" y="17.6899" width="21.5648" height="4.94937" rx="2.47468" fill="#27744E"/>
<ellipse cx="28.7307" cy="43.7671" rx="18.2728" ry="11.9852" fill="#3BB084"/>
<path d="M31.1731 37.875L27.8019 36.6113C27.4648 36.4909 27.3946 36.4608 27.3946 35.9343C27.3946 35.5431 27.6474 35.2272 27.9705 35.2272H30.0774C30.5269 35.2272 30.8921 35.6635 30.8921 36.2051C30.8921 36.8219 31.3697 37.3334 31.9456 37.3334C32.5215 37.3334 32.9991 36.8219 32.9991 36.2051C32.9991 34.475 31.749 33.0608 30.1898 32.9855V32.9103C30.1898 32.2935 29.7122 31.782 29.1363 31.782C28.5604 31.782 28.0828 32.2785 28.0828 32.9103V32.9855H27.9564C26.4815 32.9855 25.2735 34.3095 25.2735 35.9493C25.2735 37.3785 25.8635 38.2963 27.0855 38.7476L30.4707 40.0113C30.8079 40.1317 30.8781 40.1618 30.8781 40.6883C30.8781 41.0795 30.6253 41.3954 30.3022 41.3954H28.1952C27.7457 41.3954 27.3805 40.9591 27.3805 40.4175C27.3805 39.8007 26.9029 39.2892 26.327 39.2892C25.7511 39.2892 25.2735 39.8007 25.2735 40.4175C25.2735 42.1476 26.5237 43.5618 28.0828 43.6371V43.7273C28.0828 44.3441 28.5604 44.8557 29.1363 44.8557C29.7122 44.8557 30.1898 44.3441 30.1898 43.7273V43.6521H30.3162C31.7911 43.6521 32.9991 42.3282 32.9991 40.6883C32.9991 39.2591 32.3951 38.3414 31.1731 37.875Z" fill="#FCC342"/>
<path d="M58.291 53.7897C58.291 55.6486 55.3104 57.4313 50.0047 58.7457C44.6991 60.0602 37.5032 60.7986 29.9999 60.7986C22.4966 60.7986 15.3006 60.0602 9.99503 58.7457C4.68941 57.4313 1.70874 55.6486 1.70874 53.7897L58.291 53.7897Z" fill="#F7B26D"/>
<ellipse cx="47.0381" cy="45.5543" rx="8.36035" ry="8.3055" fill="#FFC928"/>
<ellipse cx="47.144" cy="45.6594" rx="5.92632" ry="5.88744" fill="#FFB200"/>
<path d="M48.3554 45.3201L46.3327 44.5619C46.1304 44.4897 46.0883 44.4716 46.0883 44.1557C46.0883 43.921 46.24 43.7314 46.4338 43.7314H47.698C47.9677 43.7314 48.1868 43.9932 48.1868 44.3182C48.1868 44.6883 48.4733 44.9952 48.8189 44.9952C49.1644 44.9952 49.451 44.6883 49.451 44.3182C49.451 43.2801 48.7009 42.4316 47.7654 42.3864V42.3413C47.7654 41.9712 47.4789 41.6643 47.1333 41.6643C46.7878 41.6643 46.5012 41.9622 46.5012 42.3413V42.3864H46.4254C45.5404 42.3864 44.8156 43.1808 44.8156 44.1647C44.8156 45.0222 45.1696 45.5729 45.9028 45.8437L47.934 46.6019C48.1362 46.6741 48.1784 46.6922 48.1784 47.0081C48.1784 47.2428 48.0267 47.4324 47.8328 47.4324H46.5686C46.299 47.4324 46.0798 47.1706 46.0798 46.8456C46.0798 46.4755 45.7933 46.1686 45.4477 46.1686C45.1022 46.1686 44.8156 46.4755 44.8156 46.8456C44.8156 47.8837 45.5657 48.7322 46.5012 48.7773V48.8315C46.5012 49.2016 46.7878 49.5085 47.1333 49.5085C47.4789 49.5085 47.7654 49.2016 47.7654 48.8315V48.7864H47.8413C48.7262 48.7864 49.451 47.992 49.451 47.0081C49.451 46.1506 49.0886 45.5999 48.3554 45.3201Z" fill="white"/>
<path d="M49.578 38.9309C51.6083 39.8064 52.436 40.4578 53.4937 42.0849" stroke="#FFDF81" stroke-width="1.13924" stroke-linecap="round"/>
<path d="M47.7791 38.7207H48.3187" stroke="#FFDF81" stroke-width="1.13924" stroke-linecap="round"/>
<rect x="9.39934" y="44.1174" width="15.8741" height="4.83611" rx="1.42405" fill="#F49F16"/>
<path d="M10.4577 44.1174H11.9393V47.9022H11.8818C11.0953 47.9022 10.4577 47.2646 10.4577 46.4782V44.1174Z" fill="#FBC627"/>
<path d="M12.9973 44.1174H14.4789V47.9022H12.9973V44.1174Z" fill="#FBC627"/>
<path d="M15.5372 44.1174H17.0188V47.9022H15.5372V44.1174Z" fill="#FBC627"/>
<path d="M18.0771 44.1174H19.5587V47.9022H18.0771V44.1174Z" fill="#FBC627"/>
<path d="M20.6171 44.1174H22.0986V47.9022H20.6171V44.1174Z" fill="#FBC627"/>
<path d="M23.1566 44.1174H23.8491C24.6356 44.1174 25.2732 44.755 25.2732 45.5415V47.9022H23.1566V44.1174Z" fill="#FBC627"/>
<rect x="6.22353" y="48.9536" width="15.8741" height="4.83611" rx="1.42405" fill="#F49F16"/>
<path d="M7.28156 48.9536H8.76314V52.7384H8.70561C7.91912 52.7384 7.28156 52.1008 7.28156 51.3143V48.9536Z" fill="#FBC627"/>
<path d="M9.82147 48.9536H11.3031V52.7384H9.82147V48.9536Z" fill="#FBC627"/>
<path d="M12.3614 48.9536H13.843V52.7384H12.3614V48.9536Z" fill="#FBC627"/>
<path d="M14.901 48.9536H16.3826V52.7384H14.901V48.9536Z" fill="#FBC627"/>
<path d="M17.4409 48.9536H18.9225V52.7384H17.4409V48.9536Z" fill="#FBC627"/>
<path d="M19.9808 48.9536H20.6733C21.4598 48.9536 22.0974 49.5912 22.0974 50.3777V52.7384H19.9808V48.9536Z" fill="#FBC627"/>
<path d="M8.34059 53.7898H9.82217V56.8338C9.82217 57.2429 9.49051 57.5746 9.08138 57.5746C8.67225 57.5746 8.34059 57.2429 8.34059 56.8338V53.7898Z" fill="#E29E59"/>
<path d="M32.575 53.7898H34.1272V59.4619C34.1272 59.8905 33.7797 60.2379 33.3511 60.2379C32.9225 60.2379 32.575 59.8905 32.575 59.4619V53.7898Z" fill="#E29E59"/>
<path d="M15.3603 60.238H16.9125V55.5472C16.9125 55.1186 16.565 54.7711 16.1364 54.7711C15.7078 54.7711 15.3603 55.1186 15.3603 55.5472V60.238Z" fill="#E29E59"/>
<path d="M24.8496 53.7898H26.4017V57.4994C26.4017 57.928 26.0542 58.2755 25.6256 58.2755C25.197 58.2755 24.8496 57.928 24.8496 57.4994V53.7898Z" fill="#E29E59"/>
<path d="M44.1807 53.7898H45.7328V57.4994C45.7328 57.928 45.3854 58.2755 44.9567 58.2755C44.5281 58.2755 44.1807 57.928 44.1807 57.4994V53.7898Z" fill="#E29E59"/>
<path d="M49.5424 59.5371H51.0945V55.8275C51.0945 55.3989 50.747 55.0514 50.3184 55.0514C49.8898 55.0514 49.5424 55.3989 49.5424 55.8275V59.5371Z" fill="#E29E59"/>
<path d="M27.9539 61.3594H29.5061V57.6498C29.5061 57.2212 29.1586 56.8737 28.73 56.8737C28.3014 56.8737 27.9539 57.2212 27.9539 57.6498V61.3594Z" fill="#E29E59"/>
<path d="M35.4324 61.3594H36.9845V59.0515C36.9845 58.6229 36.6371 58.2755 36.2085 58.2755C35.7799 58.2755 35.4324 58.6229 35.4324 59.0515V61.3594Z" fill="#E29E59"/>
<path d="M20.1932 60.5183H21.7453V54.8462C21.7453 54.4176 21.3979 54.0702 20.9693 54.0702C20.5407 54.0702 20.1932 54.4176 20.1932 54.8462V60.5183Z" fill="#E29E59"/>
<path d="M39.5243 60.5183H41.0765V54.8462C41.0765 54.4176 40.729 54.0702 40.3004 54.0702C39.8718 54.0702 39.5243 54.4176 39.5243 54.8462V60.5183Z" fill="#E29E59"/>
<path d="M11.2688 53.7898H12.8209V56.0976C12.8209 56.5262 12.4735 56.8737 12.0449 56.8737C11.6163 56.8737 11.2688 56.5262 11.2688 56.0976V53.7898Z" fill="#E29E59"/>
</g>
<defs>
<clipPath id="clip0_291_1663">
<rect width="60" height="60" rx="30" fill="white"/>
</clipPath>
</defs>
</svg>
