<svg width="60" height="60" viewBox="0 0 60 60" fill="none" xmlns="http://www.w3.org/2000/svg">
<g clip-path="url(#clip0_291_1785)">
<rect width="60" height="60" rx="30" fill="#F9FBFF"/>
<path d="M27.3241 54.4034C27.3241 53.7559 26.7992 53.231 26.1516 53.231H24.2576V55.5759H26.1516C26.7992 55.5759 27.3241 55.051 27.3241 54.4034Z" fill="#FB5858"/>
<path d="M21.191 54.4034C21.191 53.7559 21.716 53.231 22.3635 53.231H24.2575V55.5759H22.3635C21.716 55.5759 21.191 55.051 21.191 54.4034Z" fill="#FFF5F5"/>
<path d="M24.6564 49.0603C25.1761 48.674 25.9105 48.7821 26.2969 49.3018L27.4268 50.8218L25.545 52.2208L24.415 50.7008C24.0287 50.1811 24.1367 49.4467 24.6564 49.0603Z" fill="#FB5858"/>
<path d="M28.3154 53.982C28.8351 53.5957 28.9432 52.8612 28.5568 52.3415L27.4269 50.8215L25.545 52.2206L26.675 53.7405C27.0613 54.2602 27.7957 54.3683 28.3154 53.982Z" fill="#FFF5F5"/>
<rect x="-3.41748" y="40.4429" width="66.8354" height="19.557" fill="#BFBFD8"/>
<path d="M39.2072 53.0142L38.6273 53.9689L45.9466 58.4146L46.1784 54.9251C46.3036 53.909 46.5603 53.4185 47.4992 52.7506L49.9111 51.5291C51.2742 50.8515 51.7341 50.2356 52.1395 48.8167L54.1714 43.0807C53.9862 37.8639 53.8799 34.9392 53.1263 29.7398C52.8859 29.0912 52.6224 28.6795 51.4083 28.6237C50.1703 28.8313 49.8406 29.1536 49.7087 29.9873L49.5535 38.9689L49.3811 39.3724C48.1896 39.0813 47.8077 39.2999 47.3028 39.9251L44.5322 44.4864C41.9736 45.0711 40.8968 45.7515 39.8315 47.8027C39.137 49.2584 39.0764 50.4973 39.2072 53.0142Z" fill="#EDA970" stroke="#EDA970" stroke-width="0.10718"/>
<path d="M49.2397 45.8211C50.4667 42.0124 51.4725 39.5789 49.0629 39.1792" stroke="#C6744F" stroke-width="0.535899" stroke-linecap="round"/>
<rect x="37.2008" y="59.6658" width="5.95735" height="11.4182" rx="0.535899" transform="rotate(-90 37.2008 59.6658)" fill="#0B31DB"/>
<path d="M20.4382 53.0694L21.0181 54.024L13.6988 58.4698L13.467 54.9803C13.3418 53.9642 13.0851 53.4737 12.1462 52.8057L9.73432 51.5843C8.37118 50.9067 7.91129 50.2908 7.50593 48.8719L5.47398 43.1359C5.65915 37.9191 5.76551 34.9944 6.51907 29.795C6.7595 29.1463 7.02298 28.7347 8.23709 28.6788C9.47506 28.8865 9.80481 29.2088 9.93667 30.0425L10.0918 39.024L10.2643 39.4275C11.4558 39.1364 11.8377 39.3551 12.3426 39.9803L15.1132 44.5416C17.6718 45.1263 18.7486 45.8066 19.8139 47.8579C20.5083 49.3135 20.569 50.5525 20.4382 53.0694Z" fill="#EDA970" stroke="#EDA970" stroke-width="0.10718"/>
<path d="M10.4056 45.8763C9.17866 42.0676 8.17281 39.6341 10.5824 39.2344" stroke="#C6744F" stroke-width="0.535899" stroke-linecap="round"/>
<rect width="5.95735" height="11.4182" rx="0.535899" transform="matrix(0 -1 -1 0 22.4453 59.7209)" fill="#0B31DB"/>
<path d="M27.2583 10.5193C27.3932 12.9955 27.9934 14.4519 28.8769 16.6652H34.4368C35.9925 12.6041 36.2938 11.0369 35.9147 9.38112C35.5264 8.22845 35.1368 8.01084 34.2256 8.1671C32.2192 8.71289 31.0945 8.78475 29.0881 8.1671C27.9201 8.09259 27.5645 8.39223 27.3286 9.38112C27.2913 9.69598 27.2215 9.96799 27.2583 10.5193Z" fill="#339966" stroke="#339966" stroke-width="0.0955431" stroke-linecap="round"/>
<path d="M18.4603 10.5193C18.5953 12.9955 19.1954 14.4519 20.079 16.6652H25.6389C27.1946 12.6041 27.4959 11.0369 27.1168 9.38112C26.7284 8.22845 26.3389 8.01084 25.4277 8.1671C23.4213 8.71289 22.2966 8.78475 20.2901 8.1671C19.1221 8.09259 18.7666 8.39223 18.5307 9.38112C18.4934 9.69598 18.4236 9.96799 18.4603 10.5193Z" fill="#339966" stroke="#339966" stroke-width="0.0955431" stroke-linecap="round"/>
<path d="M16.2496 23.2372C13.1861 29.2772 12.5739 32.013 13.0826 35.9465C31.1763 44.5622 39.6462 41.8955 41.3217 35.7568C42.2829 35.461 41.4876 28.3544 38.4186 23.5218C36.8238 21.0105 33.9219 17.4237 33.7561 17.5465H20.8241C18.8707 19.1763 17.8958 20.5172 16.2496 23.2372Z" fill="#3BB084" stroke="#3BB084" stroke-width="0.119429"/>
<path d="M32.5104 22.3838C32.7164 22.3838 32.884 22.2218 32.8768 22.0223C32.8108 20.1918 32.245 18.4546 31.284 17.1526C30.2599 15.7653 28.871 14.9858 27.4228 14.9858C25.9746 14.9858 24.5856 15.7653 23.5616 17.1526C22.6006 18.4546 22.0348 20.1918 21.9687 22.0223C21.9615 22.2218 22.1292 22.3838 22.3352 22.3838C22.5412 22.3838 22.7074 22.2218 22.7157 22.0222C22.781 20.46 23.268 18.9796 24.089 17.8672C24.9732 16.6694 26.1724 15.9964 27.4228 15.9964C28.6732 15.9964 29.8724 16.6694 30.7565 17.8672C31.5776 18.9796 32.0645 20.46 32.1299 22.0223C32.1382 22.2218 32.3044 22.3838 32.5104 22.3838Z" fill="#339966"/>
<path d="M21.7935 7.55309C21.9622 10.6483 22.7124 12.4689 23.8168 15.2355H30.7667C32.7113 10.1591 33.088 8.20007 32.6141 6.13039C32.1286 4.68955 31.6417 4.41754 30.5027 4.61287C27.9947 5.29511 26.5888 5.38493 24.0808 4.61287C22.6208 4.51973 22.1763 4.89428 21.8815 6.13039C21.8349 6.52396 21.7475 6.86398 21.7935 7.55309Z" fill="#66CC99" stroke="#66CC99" stroke-width="0.119429" stroke-linecap="round"/>
<path d="M26.7706 15.2358C26.5662 12.5135 26.9507 11.3579 28.3541 9.82959" stroke="#339966" stroke-width="0.955431" stroke-linecap="round"/>
<rect x="18.4648" y="14.3857" width="17.0175" height="3.93149" rx="1.96574" fill="#27744E"/>
<ellipse cx="27.3028" cy="35.0999" rx="14.4196" ry="9.52031" fill="#3BB084"/>
<path d="M29.2303 30.4195L26.57 29.4157C26.304 29.3201 26.2486 29.2962 26.2486 28.8779C26.2486 28.5672 26.4481 28.3162 26.7031 28.3162H28.3657C28.7204 28.3162 29.0086 28.6628 29.0086 29.093C29.0086 29.583 29.3855 29.9893 29.84 29.9893C30.2944 29.9893 30.6713 29.583 30.6713 29.093C30.6713 27.7187 29.6848 26.5954 28.4544 26.5356V26.4759C28.4544 25.9859 28.0775 25.5796 27.6231 25.5796C27.1686 25.5796 26.7917 25.974 26.7917 26.4759V26.5356H26.692C25.5281 26.5356 24.5748 27.5873 24.5748 28.8899C24.5748 30.0252 25.0404 30.7541 26.0047 31.1127L28.6761 32.1165C28.9421 32.2121 28.9975 32.236 28.9975 32.6543C28.9975 32.965 28.798 33.2159 28.5431 33.2159H26.8804C26.5257 33.2159 26.2375 32.8694 26.2375 32.4392C26.2375 31.9492 25.8606 31.5429 25.4062 31.5429C24.9517 31.5429 24.5748 31.9492 24.5748 32.4392C24.5748 33.8135 25.5613 34.9368 26.7917 34.9966V35.0683C26.7917 35.5582 27.1686 35.9646 27.6231 35.9646C28.0775 35.9646 28.4544 35.5582 28.4544 35.0683V35.0085H28.5542C29.718 35.0085 30.6713 33.9569 30.6713 32.6543C30.6713 31.519 30.1947 30.79 29.2303 30.4195Z" fill="#FCC342"/>
<circle cx="40.9191" cy="30.3591" r="6.59741" fill="#FFC928"/>
<circle cx="41.0024" cy="30.4428" r="4.67664" fill="#FFB200"/>
<path d="M41.9586 30.1733L40.3625 29.5709C40.2029 29.5136 40.1696 29.4992 40.1696 29.2483C40.1696 29.0619 40.2893 28.9113 40.4423 28.9113H41.4399C41.6527 28.9113 41.8256 29.1192 41.8256 29.3774C41.8256 29.6713 42.0517 29.9151 42.3244 29.9151C42.5971 29.9151 42.8232 29.6713 42.8232 29.3774C42.8232 28.5528 42.2313 27.8788 41.4931 27.8429V27.8071C41.4931 27.5131 41.267 27.2693 40.9943 27.2693C40.7216 27.2693 40.4955 27.5059 40.4955 27.8071V27.8429H40.4356C39.7373 27.8429 39.1653 28.4739 39.1653 29.2555C39.1653 29.9366 39.4447 30.374 40.0233 30.5891L41.6261 31.1914C41.7857 31.2488 41.819 31.2631 41.819 31.5141C41.819 31.7005 41.6993 31.8511 41.5463 31.8511H40.5487C40.3359 31.8511 40.1629 31.6432 40.1629 31.385C40.1629 31.091 39.9368 30.8473 39.6641 30.8473C39.3915 30.8473 39.1653 31.091 39.1653 31.385C39.1653 32.2096 39.7573 32.8836 40.4955 32.9195V32.9625C40.4955 33.2565 40.7216 33.5003 40.9943 33.5003C41.267 33.5003 41.4931 33.2565 41.4931 32.9625V32.9266H41.5529C42.2513 32.9266 42.8232 32.2957 42.8232 31.5141C42.8232 30.8329 42.5372 30.3955 41.9586 30.1733Z" fill="white"/>
<path d="M42.9235 25.0979C44.5256 25.7933 45.1788 26.3108 46.0134 27.6032" stroke="#FFDF81" stroke-width="0.597144" stroke-linecap="round"/>
<path d="M41.5039 24.9309H41.9297" stroke="#FFDF81" stroke-width="0.597144" stroke-linecap="round"/>
<circle cx="17.1831" cy="36.9304" r="4.84177" fill="#FFC928"/>
<circle cx="17.2443" cy="36.9917" r="3.43214" fill="#FFB200"/>
<path d="M17.9459 36.794L16.7745 36.352C16.6574 36.3099 16.6329 36.2994 16.6329 36.1152C16.6329 35.9784 16.7208 35.8679 16.8331 35.8679H17.5652C17.7214 35.8679 17.8483 36.0205 17.8483 36.2099C17.8483 36.4257 18.0142 36.6046 18.2144 36.6046C18.4145 36.6046 18.5804 36.4257 18.5804 36.2099C18.5804 35.6048 18.146 35.1101 17.6042 35.0838V35.0575C17.6042 34.8418 17.4383 34.6628 17.2382 34.6628C17.0381 34.6628 16.8721 34.8365 16.8721 35.0575V35.0838H16.8282C16.3157 35.0838 15.8959 35.5469 15.8959 36.1205C15.8959 36.6204 16.1009 36.9414 16.5256 37.0992L17.7019 37.5413C17.819 37.5834 17.8434 37.5939 17.8434 37.7781C17.8434 37.9149 17.7556 38.0254 17.6433 38.0254H16.9112C16.755 38.0254 16.6281 37.8728 16.6281 37.6833C16.6281 37.4676 16.4621 37.2887 16.262 37.2887C16.0619 37.2887 15.8959 37.4676 15.8959 37.6833C15.8959 38.2885 16.3303 38.7831 16.8721 38.8095V38.841C16.8721 39.0568 17.0381 39.2357 17.2382 39.2357C17.4383 39.2357 17.6042 39.0568 17.6042 38.841V38.8147H17.6482C18.1607 38.8147 18.5804 38.3516 18.5804 37.7781C18.5804 37.2782 18.3705 36.9572 17.9459 36.794Z" fill="white"/>
<path d="M18.6542 33.0693C19.83 33.5797 20.3094 33.9595 20.9219 34.908" stroke="#FFDF81" stroke-width="0.597144" stroke-linecap="round"/>
<path d="M17.6122 32.9468H17.9247" stroke="#FFDF81" stroke-width="0.597144" stroke-linecap="round"/>
</g>
<defs>
<clipPath id="clip0_291_1785">
<rect width="60" height="60" rx="30" fill="white"/>
</clipPath>
</defs>
</svg>
