<svg width="60" height="60" viewBox="0 0 60 60" fill="none" xmlns="http://www.w3.org/2000/svg">
<g clip-path="url(#clip0_284_2506)">
<rect width="60" height="60" rx="30" fill="#F9FBFF"/>
<path d="M26.1831 51.3656C26.1831 50.718 25.6582 50.1931 25.0106 50.1931H23.1166V52.5381H25.0106C25.6582 52.5381 26.1831 52.0131 26.1831 51.3656Z" fill="#FB5858"/>
<path d="M20.05 51.3656C20.05 50.718 20.575 50.1931 21.2225 50.1931H23.1165V52.5381H21.2225C20.575 52.5381 20.05 52.0131 20.05 51.3656Z" fill="#FFF5F5"/>
<path d="M23.5157 46.0225C24.0353 45.6362 24.7698 45.7443 25.1561 46.2639L26.2861 47.7839L24.4042 49.1829L23.2742 47.663C22.8879 47.1433 22.996 46.4088 23.5157 46.0225Z" fill="#FB5858"/>
<path d="M27.1744 50.9441C27.6941 50.5578 27.8022 49.8234 27.4159 49.3037L26.2859 47.7837L24.404 49.1827L25.534 50.7027C25.9203 51.2224 26.6548 51.3305 27.1744 50.9441Z" fill="#FFF5F5"/>
<rect x="-4.55728" y="29.4302" width="66.8354" height="32.6582" fill="#05186D"/>
<path d="M16.0825 10.1485C16.204 7.23824 16.0085 6.3148 18.5176 6.36075" stroke="#0A2295" stroke-width="1.89873" stroke-linecap="square"/>
<path d="M40.7045 10.3304C40.5829 7.42013 40.7785 6.49669 38.2694 6.54264" stroke="#0A2295" stroke-width="1.89873" stroke-linecap="square"/>
<rect x="18.608" y="4.55688" width="20.2025" height="3.78797" rx="0.759494" fill="#0A66EA"/>
<rect x="12.6554" y="10.6897" width="6.31329" height="1.62342" rx="0.759494" fill="#1752A7"/>
<rect x="37.5477" y="10.6897" width="6.31329" height="1.62342" rx="0.759494" fill="#1752A7"/>
<rect x="21.8546" y="10.6897" width="13.1677" height="1.62342" rx="0.759494" fill="#1752A7"/>
<rect x="6.52235" y="11.5916" width="42.9304" height="33.731" rx="2.8481" fill="#C3D0FE"/>
<rect x="11.0318" y="15.0188" width="34.0918" height="25.9747" rx="0.379747" fill="#DCE6EB"/>
<rect x="13.3767" y="17.3638" width="29.2215" height="21.6456" rx="0.379747" fill="#FFF5F5"/>
<rect x="15.9022" y="19.3479" width="8.65823" height="1.62342" rx="0.759494" fill="#DCE6EB"/>
<rect x="15.9022" y="22.7751" width="8.65823" height="1.62342" rx="0.759494" fill="#DCE6EB"/>
<rect x="15.9022" y="26.3828" width="8.65823" height="1.62342" rx="0.759494" fill="#DCE6EB"/>
<rect x="15.9022" y="31.4333" width="23.6297" height="1.62342" rx="0.759494" fill="#DCE6EB"/>
<rect x="15.9022" y="34.8606" width="8.65823" height="1.62342" rx="0.759494" fill="#DCE6EB"/>
<rect x="34.1201" y="19.3479" width="3.06646" height="10.1013" rx="0.56962" fill="#FB5858"/>
<rect x="30.6931" y="26.022" width="3.06646" height="10.1013" rx="0.56962" transform="rotate(-90 30.6931 26.022)" fill="#FB5858"/>
<path d="M0.568619 34.2815C0.568619 32.7085 1.84376 31.4333 3.41672 31.4333H14.4958C16.0688 31.4333 17.3439 32.7085 17.3439 34.2815V52.2625C17.3439 53.3111 16.4938 54.1612 15.4452 54.1612H2.46735C1.41871 54.1612 0.568619 53.3111 0.568619 52.2625V34.2815Z" fill="#0A66EA"/>
<rect x="3.09409" y="35.9429" width="11.7247" height="10.2816" rx="1.51899" fill="#FFF5F5"/>
<rect x="3.27431" y="26.022" width="11.5443" height="5.41139" rx="1.13924" fill="#F44545"/>
<rect x="4.35645" y="38.6484" width="8.83861" height="1.44304" rx="0.721519" fill="#97BFFD"/>
<rect x="5.98001" y="42.0757" width="5.59177" height="1.44304" rx="0.721519" fill="#97BFFD"/>
<path d="M51.1293 33.4175C48.3868 33.4175 45.9322 34.5054 44.4019 36.1745C42.8716 34.5054 40.4169 33.4175 37.6745 33.4175C33.0228 33.4175 29.25 36.5083 29.25 40.3285C29.25 41.7997 29.5379 43.1596 30.0379 44.4206C32.4319 50.6022 39.8109 54.2988 43.4625 55.3125C43.9776 55.4609 44.8262 55.4609 45.3413 55.3125C48.9929 54.2988 56.3719 50.6022 58.7659 44.4206C59.2659 43.1596 59.5538 41.7997 59.5538 40.3285C59.5538 36.5083 55.781 33.4175 51.1293 33.4175Z" fill="#F44545"/>
<path d="M27.8067 44.5109H38.5393L41.9665 47.6675L47.6484 41.3542L50.2639 44.5109H59.4633" stroke="#FDBCBC" stroke-width="1.89873" stroke-linecap="round"/>
</g>
<defs>
<clipPath id="clip0_284_2506">
<rect width="60" height="60" rx="30" fill="white"/>
</clipPath>
</defs>
</svg>
