<svg width="60" height="60" viewBox="0 0 60 60" fill="none" xmlns="http://www.w3.org/2000/svg">
<g clip-path="url(#clip0_284_2665)">
<rect width="60" height="60" rx="30" fill="#F2FFFA"/>
<path d="M27.3241 54.4037C27.3241 53.7561 26.7992 53.2312 26.1516 53.2312H24.2576V55.5761H26.1516C26.7992 55.5761 27.3241 55.0512 27.3241 54.4037Z" fill="#FB5858"/>
<path d="M21.191 54.4037C21.191 53.7561 21.716 53.2312 22.3635 53.2312H24.2575V55.5761H22.3635C21.716 55.5761 21.191 55.0512 21.191 54.4037Z" fill="#FFF5F5"/>
<path d="M24.6564 49.0606C25.1761 48.6743 25.9105 48.7824 26.2969 49.302L27.4268 50.822L25.545 52.221L24.415 50.701C24.0287 50.1814 24.1367 49.4469 24.6564 49.0606Z" fill="#FB5858"/>
<path d="M28.3154 53.9822C28.8351 53.5959 28.9432 52.8614 28.5568 52.3418L27.4269 50.8218L25.545 52.2208L26.675 53.7408C27.0613 54.2605 27.7957 54.3686 28.3154 53.9822Z" fill="#FFF5F5"/>
<rect x="-3.41748" y="34.5571" width="66.8354" height="25.443" fill="#FFC928"/>
<path d="M4.49204 39.0957L4.36719 45.4005H31.709V39.1581C31.3168 36.791 30.4821 36.0655 28.3381 35.4127L21.2841 33.4775H14.8544L8.29991 35.2254C5.65259 35.8906 5.00293 36.8039 4.49204 39.0957Z" fill="#5EC694" stroke="#5EC694" stroke-width="0.150466"/>
<rect x="17.4128" y="31.5425" width="1.24848" height="8.73938" rx="0.624241" fill="#4AA87D"/>
<path d="M14.9167 30.5437H21.2839V32.2786C21.2839 33.9406 19.9366 35.2879 18.2746 35.2879H17.926C16.264 35.2879 14.9167 33.9406 14.9167 32.2786V30.5437Z" fill="#FFD19F"/>
<rect x="7.54944" y="18.1838" width="21.2242" height="4.99393" rx="2.49697" fill="#FFD19F"/>
<path d="M10.4221 18.1838H25.7784V23.7396C25.7784 27.9801 22.3408 31.4178 18.1002 31.4178C13.8597 31.4178 10.4221 27.9801 10.4221 23.7396V18.1838Z" fill="#FFDFB8"/>
<path d="M13.4793 27.4224V30.3564C13.4705 30.7248 16.2367 31.8126 18.1611 31.917C20.1471 32.0246 22.9718 30.5929 22.843 30.3564V27.4224C22.4019 26.0605 22.0109 25.4172 20.5333 24.9255C20.5333 24.9255 19.099 24.5429 18.1611 24.5509C17.2715 24.5585 15.9139 24.9255 15.9139 24.9255C14.3545 25.4458 13.879 26.0354 13.4793 27.4224Z" fill="#8E4E23" stroke="#8E4E23" stroke-width="0.150466"/>
<path d="M14.7906 27.6476V29.5358C14.7842 29.7729 16.775 30.4729 18.16 30.5401C19.5892 30.6094 21.6221 29.688 21.5293 29.5358V27.6476C21.2119 26.7711 20.9306 26.3572 19.8671 26.0407C19.8671 26.0407 18.8349 25.7945 18.16 25.7996C17.5197 25.8045 16.5427 26.0407 16.5427 26.0407C15.4205 26.3755 15.0782 26.755 14.7906 27.6476Z" fill="#FFDFB8" stroke="#FFDFB8" stroke-width="0.150466"/>
<path d="M10.4221 18.1838H25.7784C25.7784 13.9433 22.3408 10.4432 18.1002 10.4432C13.8597 10.4432 10.4221 13.9433 10.4221 18.1838Z" fill="#5EC694"/>
<rect x="17.6632" y="29.1704" width="0.998786" height="2.37212" rx="0.499393" fill="#8E4E23"/>
<path d="M18.6079 59.9555C18.6079 52.5782 24.5884 46.5977 31.9658 46.5977H41.1892C48.5665 46.5977 54.547 52.5782 54.547 59.9555H18.6079Z" fill="#4AA87D"/>
<path d="M22.264 28.9462C21.7342 35.7721 21.3253 39.5388 20.1967 46.0411C19.457 52.0547 21.4842 53.422 26.7962 54.4692C34.6682 55.9364 39.1088 55.9497 46.992 54.4692C52.2157 53.4715 53.779 51.864 52.7168 46.0411C51.8437 40.1506 51.4882 36.3774 51.0471 28.9462C50.4872 23.8278 48.8817 21.4974 44.6067 18.2122C38.502 14.9963 34.9129 14.888 28.7044 18.2122C24.0054 21.0517 22.8423 23.555 22.264 28.9462Z" fill="#5EC694" stroke="#5EC694" stroke-width="0.300931"/>
<rect x="27.5096" y="21.4722" width="18.1286" height="22.4221" rx="9.06429" fill="#4AA87D"/>
<path d="M45.4791 29.0256C38.2251 27.23 34.2907 27.2302 27.5096 29.0256V38.4874C28.0784 41.989 29.4697 43.56 33.7115 45.7229C35.9164 46.7376 37.1518 46.8406 39.3568 45.7229C43.3294 43.6925 44.7679 42.035 45.4791 38.4874C45.6038 34.7924 45.5679 32.7207 45.4791 29.0256Z" fill="#FFD19F" stroke="#FFD19F" stroke-width="0.300931"/>
</g>
<defs>
<clipPath id="clip0_284_2665">
<rect width="60" height="60" rx="30" fill="white"/>
</clipPath>
</defs>
</svg>
