<svg width="60" height="60" viewBox="0 0 60 60" fill="none" xmlns="http://www.w3.org/2000/svg">
<g clip-path="url(#clip0_291_1829)">
<rect width="60" height="60" rx="30" fill="#F9FBFF"/>
<path d="M27.3245 54.4037C27.3245 53.7561 26.7996 53.2312 26.1521 53.2312H24.2581V55.5761H26.1521C26.7996 55.5761 27.3245 55.0512 27.3245 54.4037Z" fill="#FB5858"/>
<path d="M21.1915 54.4037C21.1915 53.7561 21.7164 53.2312 22.3639 53.2312H24.2579V55.5761H22.3639C21.7164 55.5761 21.1915 55.0512 21.1915 54.4037Z" fill="#FFF5F5"/>
<path d="M24.6568 49.0606C25.1765 48.6743 25.911 48.7824 26.2973 49.302L27.4273 50.822L25.5454 52.221L24.4154 50.701C24.0291 50.1814 24.1372 49.4469 24.6568 49.0606Z" fill="#FB5858"/>
<path d="M28.3158 53.9822C28.8355 53.5959 28.9436 52.8614 28.5573 52.3418L27.4273 50.8218L25.5454 52.2208L26.6754 53.7408C27.0617 54.2605 27.7962 54.3686 28.3158 53.9822Z" fill="#FFF5F5"/>
<rect x="-3.41705" y="40.4431" width="66.8354" height="19.557" fill="#BFBFD8"/>
<path d="M15.1917 22.696C15.1917 27.0757 20.1251 29.6386 23.7086 27.121L36.3046 18.2711C39.8881 15.7535 44.8216 18.3167 44.8216 22.696C44.8216 27.0757 39.8881 29.6386 36.3046 27.121L23.7086 18.2711C20.1254 15.7532 15.1917 18.3164 15.1917 22.696Z" stroke="#BE0411" stroke-width="2.56329" stroke-miterlimit="10"/>
<path d="M36.1657 51.0167L35.3891 52.2953L45.1917 58.2494L45.5021 53.576C45.6698 52.2151 46.0137 51.5581 47.2711 50.6636L50.5013 49.0277C52.3269 48.1202 52.9428 47.2954 53.4857 45.395L56.2071 37.7129C55.9591 30.7261 55.8166 26.8091 54.8074 19.8456C54.4854 18.9769 54.1325 18.4256 52.5065 18.3508C50.8485 18.6289 50.4069 19.0606 50.2303 20.1771L50.0225 32.206L49.7915 32.7464C48.1957 32.3565 47.6842 32.6494 47.008 33.4867L43.2974 39.5955C39.8707 40.3786 38.4286 41.2898 37.0018 44.037C36.0718 45.9865 35.9906 47.6459 36.1657 51.0167Z" fill="#EDA970" stroke="#EDA970" stroke-width="0.143544"/>
<path d="M49.6024 41.3831C51.2456 36.2821 52.5927 33.023 49.3656 32.4876" stroke="#C6744F" stroke-width="0.717722" stroke-linecap="round"/>
<rect x="33.4785" y="59.925" width="7.97859" height="15.2923" rx="0.717722" transform="rotate(-90 33.4785 59.925)" fill="#0B31DB"/>
<path d="M23.6793 51.0167L24.4559 52.2953L14.6533 58.2494L14.3429 53.576C14.1752 52.2151 13.8313 51.5581 12.5739 50.6636L9.34374 49.0277C7.51812 48.1202 6.90219 47.2954 6.3593 45.395L3.63794 37.7129C3.88593 30.7261 4.02838 26.8091 5.03761 19.8456C5.35962 18.9769 5.7125 18.4256 7.33853 18.3508C8.99653 18.6289 9.43815 19.0606 9.61476 20.1771L9.82258 32.206L10.0536 32.7464C11.6493 32.3565 12.1608 32.6494 12.837 33.4867L16.5476 39.5955C19.9743 40.3786 21.4165 41.2898 22.8432 44.037C23.7732 45.9865 23.8545 47.6459 23.6793 51.0167Z" fill="#EDA970" stroke="#EDA970" stroke-width="0.143544"/>
<path d="M10.2423 41.3831C8.59909 36.2821 7.25198 33.023 10.4791 32.4876" stroke="#C6744F" stroke-width="0.717722" stroke-linecap="round"/>
<rect width="7.97859" height="15.2923" rx="0.717722" transform="matrix(0 -1 -1 0 26.3668 59.925)" fill="#0B31DB"/>
</g>
<defs>
<clipPath id="clip0_291_1829">
<rect width="60" height="60" rx="30" fill="white"/>
</clipPath>
</defs>
</svg>
