<svg width="51" height="43" viewBox="0 0 51 43" fill="none" xmlns="http://www.w3.org/2000/svg">
<path opacity="0.5" d="M49.5352 42.69H-0.807199C-1.466 42.69 -2 42.156 -2 41.4972C-2 40.8384 -1.466 40.3044 -0.807199 40.3044H49.5352C50.194 40.3044 50.728 40.8384 50.728 41.4972C50.728 42.1556 50.194 42.69 49.5352 42.69Z" fill="#A6E2E2"/>
<path d="M19.5216 41.4264C19.5216 41.4264 14.8304 33.0652 3.72559 37.284C3.72559 37.284 9.94359 45.386 19.5216 41.4264Z" fill="#F9A11B"/>
<path d="M18.2209 41.0852C18.2209 41.0852 12.6285 38.5176 5.02612 37.6248C5.02612 37.6248 9.60692 39.5984 18.2209 41.0852Z" fill="#EA8023"/>
<path d="M19.5204 41.4236C19.5204 41.4236 21.6032 28.1864 5.76281 23.2116C5.76281 23.2116 5.58041 37.4856 19.5204 41.4236Z" fill="#F9A11B"/>
<path d="M18.3882 39.9244C18.3882 39.9244 14.4698 32.2676 6.89575 24.7112C6.89575 24.7112 10.2174 30.8404 18.3882 39.9244Z" fill="#EA8023"/>
<path d="M19.5118 41.4364C19.5118 41.4364 26.4478 33.606 18.1206 23.6736C18.1206 23.6736 11.999 32.9848 19.5118 41.4364Z" fill="#F9A11B"/>
<path d="M19.3972 39.974C19.3972 39.974 20.0396 33.2904 18.2352 25.136C18.2352 25.136 17.8424 30.5636 19.3972 39.974Z" fill="#EA8023"/>
<path d="M37.7447 13.6172H19.9331V38.8172H37.7447V13.6172Z" fill="#448B87"/>
<path d="M33.2515 13.6172H24.4263V38.8172H33.2515V13.6172Z" fill="#82E097"/>
<path d="M34.7956 5.94719C34.734 5.89519 34.6724 5.84359 34.6108 5.79199C33.308 4.70239 32.0924 3.55919 30.95 2.30919C30.4852 1.80079 30.0204 1.29199 29.5556 0.783594C29.3948 0.607594 29.0712 0.0796 28.8392 0C26.9912 2.022 25.19 4.01999 23.0828 5.77839C22.0436 6.64559 21.0124 7.56079 20.3104 8.71799C19.3076 10.3716 19.5488 11.8352 19.9336 13.6172H37.7452C38.132 11.8244 38.372 10.3588 37.3548 8.698C36.6976 7.6248 35.7584 6.75999 34.7956 5.94719Z" fill="#409694"/>
<path d="M31.774 5.18596C31.3152 4.43316 30.84 3.68956 30.4188 2.91476C30.082 2.29516 29.7496 1.67356 29.4124 1.05396C29.3388 0.919155 29.0744 0.398366 28.8388 0.000366211C28.3288 0.937166 27.8188 1.87395 27.3084 2.81075C26.4096 4.46115 25.2352 5.98276 24.5424 7.75116C24.1548 8.73996 23.9168 9.80156 23.934 10.8672C23.9492 11.8056 24.238 12.7044 24.4264 13.6176H28.8388H33.2516C33.4544 12.6332 33.77 11.6292 33.7612 10.6184C33.7504 9.40036 33.3728 8.20436 32.8488 7.11476C32.5292 6.44956 32.1576 5.81436 31.774 5.18596Z" fill="#69CE9F"/>
<path d="M38.6766 41.528H19.001L19.933 38.8172H37.7446L38.6766 41.528Z" fill="#409694"/>
<path d="M33.7098 41.528H23.9678L24.4294 38.8172H33.2482L33.7098 41.528Z" fill="#69CE9F"/>
<path d="M30.7291 35.7316L29.4711 37.14C29.1343 37.5172 28.5443 37.5172 28.2071 37.14L26.9491 35.732C25.8987 34.5564 25.3179 33.0348 25.3179 31.4584V20.9764C25.3179 19.4 25.8987 17.8784 26.9491 16.7028L28.2071 15.2948C28.5439 14.9176 29.1339 14.9176 29.4711 15.2948L30.7291 16.7028C31.7795 17.8784 32.3603 19.4 32.3603 20.9764V31.4584C32.3599 33.0348 31.7795 34.556 30.7291 35.7316Z" fill="#FDFFCA"/>
<path d="M23.1876 35.2136L22.764 36.366C22.578 36.8724 21.8616 36.8724 21.6752 36.366L21.2516 35.2136C20.9336 34.3488 20.7712 33.4344 20.7712 32.5132V19.9212C20.7712 19 20.934 18.0856 21.2516 17.2208L21.6752 16.0684C21.8612 15.562 22.5776 15.562 22.764 16.0684L23.1876 17.2208C23.5056 18.0856 23.668 19 23.668 19.9212V32.5132C23.668 33.4344 23.5052 34.3488 23.1876 35.2136Z" fill="#FDFFCA"/>
<path d="M36.473 35.2136L36.0494 36.366C35.8634 36.8724 35.147 36.8724 34.9606 36.366L34.537 35.2136C34.219 34.3488 34.0566 33.4348 34.0566 32.5132V19.9212C34.0566 19 34.2194 18.0856 34.537 17.2208L34.9606 16.0684C35.1466 15.562 35.8634 15.562 36.0494 16.0684L36.473 17.2208C36.791 18.0856 36.9534 19 36.9534 19.9212V32.5132C36.9534 33.4344 36.791 34.3488 36.473 35.2136Z" fill="#FDFFCA"/>
</svg>
