<svg width="66" height="76" viewBox="0 0 66 76" fill="none" xmlns="http://www.w3.org/2000/svg">
<path d="M3.37406 44.5338C2.9055 46.4905 1.69418 48.4477 0.000511169 49.6636C3.55464 48.7042 7.29269 49.6778 10.8539 48.9292C14.966 48.0649 16.1369 45.1827 19.4682 43.2584C22.0201 41.7842 25.5271 42.3868 27.7336 40.2916C30.2646 37.8881 29.1678 34.1727 31.9706 31.8634C34.2464 29.9886 38.0628 30.128 40.7102 28.555C43.8856 26.6682 46.2883 23.9831 47.886 20.7876C50.2145 16.1297 51.365 8.59782 56.6318 5.90397C51.4663 8.75924 46.1971 8.76657 40.8576 10.5824C34.4393 12.7655 33.3112 19.7514 25.7966 20.7012C23.0812 21.0441 19.4824 19.8355 17.2318 22.0323C14.7469 24.4577 17.1272 27.6208 15.8732 30.2835C14.4314 33.3464 10.6387 32.97 8.10911 34.6638C4.19049 37.2872 4.37201 40.3657 3.37406 44.5338Z" fill="#489332"/>
<g opacity="0.59">
<path d="M45.2351 14.1008C43.1527 14.6098 41.1012 15.2582 39.2037 16.2098C37.2985 17.1422 35.5626 18.3764 34.0851 19.8548C31.1388 22.8417 29.1201 26.538 27.0976 30.1706C26.0721 31.9865 25.0038 33.8266 23.5159 35.3745C22.0423 36.932 20.14 38.0797 18.1317 38.842C16.1444 39.6423 14.1086 40.3163 12.2158 41.2757C11.2682 41.7499 10.362 42.3037 9.53223 42.9544C8.70251 43.6046 7.94787 44.3445 7.26499 45.1434C8.53571 43.472 10.2132 42.0878 12.1046 41.079C13.9983 40.068 16.0298 39.3542 17.9882 38.5192C18.9681 38.1058 19.9161 37.6458 20.7977 37.0792C21.6787 36.5145 22.4842 35.8468 23.1966 35.0942C24.6279 33.5865 25.6681 31.7706 26.6784 29.9557C27.7002 28.1348 28.7328 26.3148 29.8781 24.5538C31.0262 22.7983 32.2879 21.0876 33.8247 19.6106C35.3597 18.1363 37.1522 16.9122 39.0996 16.0113C41.0527 15.1164 43.1285 14.5096 45.2351 14.1008Z" fill="white"/>
</g>
<path d="M44.8462 15.8014C42.3889 22.8403 38.3895 26.43 33.2163 30.3489C26.9268 35.1133 22.2887 39.2919 10.828 36.6553C16.4251 34.5047 19.4498 30.3365 21.7556 27.0377C24.1772 23.5729 26.5462 20.2265 29.1043 16.8531C34.2822 10.0245 43.2861 10.5495 48.4498 3.11774C51.2507 6.78285 46.1127 12.1737 44.8462 15.8014Z" fill="#1F4E39"/>
<path d="M52.8909 -5.38356C48.6396 -5.74756 44.4515 -6.84367 40.1637 -6.53683C34.3965 -6.12436 25.4738 -5.01545 20.0678 -3.51236C13.4989 -1.68598 9.82219 0.930593 2.59512 0.554251C6.89344 8.57086 18.4877 11.3676 27.2079 8.11266C32.6396 6.08553 36.4356 0.65988 41.9158 -1.36405C45.8292 -2.80952 50.2297 -2.9714 54.2937 -2.38699C53.8446 -3.34591 53.4773 -4.52479 52.8909 -5.38356Z" fill="#489332"/>
<path d="M40.1165 8.9435C29.9564 18.9918 15.0075 34.9203 0.000263214 29.1064C8.38115 28.8746 10.6513 18.1802 17.6065 15.1808C21.4952 13.504 25.9622 14.4131 29.993 13.4454C33.5343 12.5954 36.9753 10.9345 40.1165 8.9435Z" fill="#398645"/>
<path d="M10.5928 9.01846C8.86303 11.1663 6.56156 12.7842 4.00491 13.3457C7.49868 14.0513 10.2749 16.6382 13.5444 17.9675C17.884 19.7321 19.5663 18.1545 23.6474 16.9125C26.9055 15.9211 29.3804 17.8079 32.4969 17.4324C36.4625 16.9546 36.0225 14.4116 38.6048 11.8527C42.6812 7.81215 48.6703 12.4892 53.8088 8.99195C57.6314 6.39047 60.6305 -2.77027 65.6973 -2.67424C61.0169 -2.5334 56.8654 -6.35856 52.6027 -6.00508C49.856 -5.77736 47.7555 -3.14661 44.9689 -2.94221C41.3463 -2.67653 39.4697 -6.12901 36.2563 -6.85471C30.0476 -8.25674 31.4619 0.94241 25.6025 1.30824C22.9132 1.47606 20.7591 -0.0421238 17.9914 1.04164C14.4905 2.41257 12.9161 6.13393 10.5928 9.01846Z" fill="#95C75B"/>
<path d="M36.8913 14.88C33.3851 17.229 33.5244 24.7888 31.1055 28.4832C28.8307 31.9581 27.2592 32.2526 26.2203 37.0595C25.2899 41.3667 25.1426 46.1938 24.9971 50.6266C27.8845 42.9109 35.7779 45.9834 40.1161 41.294C42.7383 38.4597 42.2351 38.3975 42.8909 34.8317C43.8712 29.4984 45.1443 32.5014 47.8108 29.3429C49.6698 27.1411 48.7845 23.8907 49.8932 21.3739C51.3064 18.166 53.0928 18.5684 55.1695 16.4713C59.5961 12.0014 58.6333 3.92215 62.8684 -1.01101C59.0886 -0.901258 54.3093 -0.550065 51.0755 2.10354C48.2299 4.43842 48.4485 7.39566 46.6969 10.7338C43.6246 16.5884 41.1159 12.0494 36.8913 14.88Z" fill="#398645"/>
<g opacity="0.59">
<path d="M61.8875 -0.179226C60.7778 -0.435307 59.5979 -0.309563 58.5842 0.158237C57.564 0.623749 56.728 1.38879 55.9967 2.20686C54.5383 3.86726 53.4538 5.80385 52.4497 7.75599C51.4527 9.71727 50.5227 11.7128 49.538 13.691C49.0429 14.6788 48.533 15.6624 47.9656 16.6204C47.3953 17.5756 46.7742 18.5158 45.9825 19.3458C45.1827 20.1483 44.3302 20.8763 43.4691 21.5965C42.608 22.3145 41.7417 23.0155 40.968 23.7979C39.3879 25.3421 38.3458 27.3016 37.5189 29.3223C36.6849 31.3481 35.9978 33.4507 34.9689 35.4206C34.4457 36.3969 33.8389 37.3481 33.0405 38.1433C32.2531 38.939 31.2166 39.5435 30.078 39.6825C31.2085 39.4927 32.1979 38.8608 32.9488 38.0601C33.7077 37.2552 34.2746 36.3018 34.7598 35.3218C35.7354 33.3546 36.3794 31.253 37.1777 29.1961C37.9566 27.1379 39.0425 25.1176 40.6539 23.5126C41.4442 22.7036 42.3181 21.988 43.1702 21.2682C44.0208 20.5489 44.8653 19.8145 45.6361 19.0344C46.3898 18.2552 47.0061 17.3401 47.5726 16.4036C48.1376 15.4635 48.6504 14.4904 49.1493 13.5104C50.1487 11.5496 51.0711 9.54579 52.1246 7.59868C53.1739 5.65615 54.3021 3.71955 55.8228 2.06053C56.5936 1.25068 57.4722 0.494804 58.532 0.0494118C59.5841 -0.403297 60.7926 -0.483318 61.8875 -0.179226Z" fill="white"/>
</g>
<g opacity="0.59">
<path d="M62.2007 -2.28504C60.1554 -2.29327 58.1096 -2.48212 56.0747 -2.40484C55.0592 -2.36826 54.0465 -2.26081 53.069 -2.01982C52.091 -1.78158 51.1534 -1.40751 50.2852 -0.920044C49.4093 -0.442641 48.639 0.19389 47.8369 0.803905C47.0423 1.42032 46.2606 2.05731 45.4242 2.644C44.5926 3.23024 43.6763 3.75794 42.657 4.04191C41.6439 4.33732 40.5732 4.39539 39.5372 4.31583C38.4894 4.22437 37.5071 4.01905 36.5134 4.05746C35.5255 4.08261 34.5689 4.36888 33.8351 5.01273C33.0848 5.62686 32.457 6.42527 31.7271 7.12628C31.0052 7.84238 30.2121 8.48167 29.3377 9.03681C28.4191 9.57549 27.3651 9.76662 26.3457 9.87546C25.3188 9.98017 24.2943 9.99665 23.2768 10.0506C22.2618 10.1032 21.2391 10.1823 20.2739 10.4836C19.314 10.7745 18.4296 11.3776 17.9511 12.2602C18.173 11.8171 18.4895 11.4133 18.8868 11.0946C19.2836 10.7754 19.7483 10.5403 20.2326 10.3689C21.2068 10.0277 22.2423 9.91341 23.2611 9.82653C24.2833 9.74788 25.3055 9.71267 26.3106 9.58829C27.309 9.46253 28.316 9.25036 29.1433 8.73912C29.9612 8.19084 30.7334 7.54881 31.4329 6.85054C32.1457 6.15867 32.7521 5.36621 33.5557 4.69538C33.9482 4.3547 34.422 4.07988 34.9267 3.90108L35.3102 3.7776C35.4399 3.74651 35.5725 3.72776 35.7037 3.70261C35.9665 3.64225 36.2307 3.63814 36.4949 3.62076C37.5504 3.57412 38.5892 3.78172 39.5748 3.86037C40.5727 3.94405 41.5792 3.8933 42.5287 3.62396C43.4829 3.36605 44.3545 2.87539 45.1728 2.30698C45.9935 1.73995 46.7786 1.10983 47.5802 0.496612C48.3805 -0.109744 49.1855 -0.748564 50.105 -1.22368C51.0127 -1.70931 51.9897 -2.07515 52.9991 -2.29922C54.0085 -2.52557 55.0425 -2.61611 56.0699 -2.628C58.1271 -2.62937 60.1587 -2.39661 62.2007 -2.28504Z" fill="white"/>
</g>
<path d="M72.7814 68.8974C72.2679 70.8427 72.4083 73.1401 73.3246 75.013C70.6481 72.4854 66.8946 71.5733 64.112 69.228C60.8991 66.5201 61.2322 63.4269 59.2088 60.1549C57.6589 57.6482 54.2844 56.5188 53.3328 53.6287C52.2412 50.3134 54.9662 47.56 53.5906 44.199C52.4735 41.4701 49.0458 39.7863 47.4585 37.1473C45.5547 33.9822 44.7095 30.4795 44.815 26.9085C44.9689 21.7032 47.5212 14.5242 44.1572 9.65797C47.3556 14.6184 51.9934 17.1193 55.8371 21.2466C60.4571 26.208 58.1437 32.8955 64.3132 37.2896C66.5427 38.8771 70.2848 39.5163 71.2273 42.5167C72.2679 45.8295 68.6738 47.4888 68.5179 50.4279C68.3379 53.8084 71.8568 55.2724 73.2831 57.9619C75.4929 62.1278 73.8756 64.7535 72.7814 68.8974Z" fill="#489332"/>
<g opacity="0.59">
<path d="M50.3156 22.2734C51.9089 23.7076 53.409 25.2499 54.63 26.9864C55.8667 28.7096 56.8115 30.6186 57.413 32.6203C58.5942 36.6461 58.6226 40.8576 58.6844 45.0149C58.7281 47.0998 58.798 49.2264 59.3758 51.2942C59.9365 53.3638 61.0687 55.2753 62.4768 56.8975C63.8485 58.5432 65.3227 60.1007 66.5358 61.8418C67.1459 62.7081 67.682 63.6249 68.1048 64.5909C68.5279 65.5565 68.8423 66.5654 69.0656 67.5924C68.7376 65.5186 67.9152 63.5052 66.7268 61.7213C65.5374 59.9342 64.0858 58.3437 62.7561 56.6811C62.0886 55.8531 61.4713 54.9991 60.9631 54.0827C60.4544 53.1681 60.0609 52.1987 59.7898 51.1985C59.2427 49.1929 59.1861 47.1009 59.1553 45.024C59.1174 42.9363 59.0694 40.8444 58.8943 38.751C58.714 36.6612 58.4125 34.557 57.758 32.5284C57.1039 30.5032 56.1045 28.5763 54.8156 26.8609C53.5188 25.148 51.9777 23.6308 50.3156 22.2734Z" fill="white"/>
</g>
<path d="M49.8529 23.9554C48.6851 31.3189 50.5086 36.3742 53.2102 42.2751C56.4947 49.4493 58.6019 55.3258 69.9453 58.4288C66.0332 53.8848 65.3421 48.7814 64.8728 44.7841C64.38 40.5857 63.8775 36.5166 63.2212 32.3341C61.8929 23.8679 53.7134 20.0679 52.6832 11.0771C48.4809 12.9796 50.4547 20.1605 49.8529 23.9554Z" fill="#1F4E39"/>
<path d="M52.7961 1.4864C56.7131 3.17835 60.921 4.1955 64.5527 6.49568C69.4375 9.58923 76.772 14.79 80.8223 18.6733C85.7438 23.3918 87.7437 27.4372 94.2878 30.527C86.7066 35.5535 75.1698 32.5282 69.0296 25.5329C65.2048 21.176 64.4296 14.5997 60.5606 10.2226C57.7978 7.09678 53.9983 4.87097 50.1418 3.46181C50.9913 2.82974 51.873 1.96524 52.7961 1.4864Z" fill="#489332"/>
<path d="M57.2659 20.1538C61.4584 33.8147 67.0854 54.9221 83.0568 56.9055C75.7843 52.7337 78.8475 42.2389 74.1409 36.3043C71.5094 32.9863 67.1443 31.6724 64.0519 28.9119C61.335 26.4866 59.0902 23.3946 57.2659 20.1538Z" fill="#398645"/>
<path d="M83.2361 34.1965C83.7429 36.9073 85.0043 39.422 86.9904 41.1269C83.5789 40.0945 79.9089 41.0588 76.3997 40.6819C71.7417 40.1819 71.0068 37.9959 67.9999 34.9698C65.5994 32.5542 62.5262 33.0445 59.9588 31.2384C56.6919 28.9401 58.2833 26.9085 57.2201 23.432C55.5423 17.9431 48.0526 19.2276 45.182 13.7145C43.0465 9.6133 44.7415 0.124337 40.233 -2.1897C44.289 0.150084 49.7567 -1.25396 53.3441 1.07538C55.6557 2.57629 56.2605 5.88793 58.6183 7.3872C61.6835 9.33616 64.9709 7.18347 68.145 8.06548C74.2776 9.76974 68.6769 17.2032 73.665 20.2994C75.9543 21.7203 78.5705 21.4028 80.4953 23.6676C82.9301 26.5326 82.5551 30.5558 83.2361 34.1965Z" fill="#95C75B"/>
<path d="M57.2964 26.9097C59.2727 30.6387 55.5712 37.2318 55.9529 41.6311C56.3117 45.7688 57.5565 46.7722 56.1959 51.4981C54.9765 55.7326 52.8211 60.0542 50.8506 64.0277C51.96 55.8645 43.5526 54.8341 41.9513 48.6497C40.9833 44.9118 41.456 45.0953 42.5665 41.6438C44.2277 36.4819 41.6847 38.5244 40.8312 34.48C40.2361 31.6604 42.5546 29.2165 42.7696 26.4746C43.0433 22.98 41.2793 22.4888 40.4428 19.6585C38.6598 13.6255 43.3326 6.96477 41.9375 0.614502C45.215 2.50058 49.2585 5.07244 50.8508 8.94077C52.252 12.3446 50.6594 14.8459 50.6221 18.6156C50.5567 25.227 54.9152 22.4164 57.2964 26.9097Z" fill="#398645"/>
<g opacity="0.59">
<path d="M42.4076 1.81155C43.5063 2.11128 44.4861 2.78064 45.1575 3.67256C45.8358 4.56561 46.21 5.63521 46.4669 6.70204C46.9655 8.85502 47.0039 11.0742 46.9643 13.2691C46.914 15.4687 46.7884 17.6668 46.7193 19.8754C46.6878 20.9798 46.6713 22.0876 46.7176 23.2001C46.7677 24.3115 46.8697 25.4337 47.1742 26.5396C47.4987 27.6251 47.905 28.6699 48.3226 29.712C48.7412 30.752 49.1724 31.7796 49.4835 32.835C50.1442 34.9433 50.1346 37.1626 49.9063 39.334C49.6819 41.5132 49.2918 43.6906 49.2655 45.9129C49.2642 47.0205 49.3484 48.1456 49.6752 49.224C49.9921 50.2977 50.6189 51.3208 51.556 51.9823C50.6501 51.2799 50.0777 50.2549 49.7954 49.1941C49.5079 48.1259 49.4599 47.0177 49.4964 45.9248C49.5684 43.7302 49.9961 41.5741 50.2666 39.3844C50.5549 37.2027 50.5549 34.9091 49.8953 32.7324C49.5821 31.6457 49.1511 30.6016 48.7413 29.5643C48.3326 28.528 47.9364 27.4813 47.6267 26.4293C47.3317 25.3861 47.222 24.2883 47.1664 23.1952C47.1138 22.0996 47.1228 20.9997 47.1472 19.9003C47.1952 17.7 47.3313 15.4983 47.325 13.2844C47.3204 11.0766 47.2435 8.83672 46.6894 6.65548C46.3938 5.57723 45.9777 4.49545 45.2551 3.60145C44.5426 2.7046 43.516 2.06202 42.4076 1.81155Z" fill="white"/>
</g>
<g opacity="0.59">
<path d="M43.1287 -0.191542C44.9342 0.769476 46.8257 1.57162 48.5815 2.60301C49.4587 3.11599 50.2998 3.69005 51.0468 4.36508C51.7955 5.03793 52.4443 5.81129 52.9783 6.65169C53.5237 7.48682 53.9009 8.41218 54.3187 9.32925C54.7268 10.2484 55.1138 11.1795 55.5728 12.0923C56.0278 13.0023 56.585 13.9009 57.3484 14.6336C58.101 15.3734 59.0166 15.9315 59.9668 16.3518C60.9331 16.7673 61.8955 17.0515 62.7526 17.5557C63.6109 18.0456 64.3181 18.7506 64.6596 19.6651C65.0298 20.5613 65.2048 21.5617 65.5159 22.5247C65.8127 23.4973 66.2087 24.4358 66.7161 25.3388C67.2702 26.2481 68.1081 26.9155 68.9545 27.4939C69.8095 28.0723 70.7042 28.5718 71.5748 29.101C72.444 29.6279 73.3074 30.1817 74.0149 30.9041C74.7228 31.6147 75.2162 32.5646 75.2199 33.5686C75.2342 33.0732 75.1466 32.5677 74.9475 32.0989C74.7491 31.6299 74.451 31.2028 74.1056 30.8225C73.409 30.0608 72.551 29.4699 71.6947 28.9111C70.8316 28.3579 69.9478 27.843 69.1214 27.2576C68.3015 26.6742 67.5149 26.0106 67.0282 25.1686C66.5674 24.2984 66.1911 23.3673 65.9055 22.4211C65.6051 21.4742 65.4462 20.4891 65.0559 19.5178C64.8714 19.0319 64.5842 18.5655 64.2243 18.1691L63.945 17.8788C63.8454 17.79 63.7375 17.7107 63.6339 17.6265C63.431 17.4489 63.2002 17.3202 62.9757 17.1798C62.0681 16.6391 61.0547 16.3302 60.1494 15.9328C59.2307 15.5341 58.3682 15.0129 57.6593 14.3262C56.9409 13.6473 56.4055 12.8025 55.9537 11.9144C55.4993 11.0264 55.1061 10.0997 54.6902 9.18006C54.2724 8.26711 53.8657 7.32331 53.2806 6.46949C52.711 5.61204 52.0236 4.82726 51.2406 4.15205C50.4587 3.47483 49.5907 2.90555 48.6913 2.40869C46.8799 1.43359 44.9802 0.67687 43.1287 -0.191542Z" fill="white"/>
</g>
</svg>
