<svg width="73" height="61" viewBox="0 0 73 61" fill="none" xmlns="http://www.w3.org/2000/svg">
<rect x="55.2135" y="5.85876" width="19.9172" height="34.7392" transform="rotate(31.9623 55.2135 5.85876)" fill="#68CA44"/>
<path d="M54.7125 11.9108C55.2871 12.5555 56.213 12.9043 57.0967 12.7331C58.0259 12.5528 58.6303 11.8512 58.6769 11.0232L65.6215 15.3564C65.003 15.7917 64.7083 16.5844 64.9364 17.4302C65.178 18.3252 65.9345 19.0172 66.7976 19.2291L52.5151 42.1193L40.5299 34.641L54.7125 11.9108Z" fill="#44A91F"/>
<rect width="19.9172" height="34.7392" transform="matrix(-0.848396 0.529361 0.529361 0.848396 18.5189 5.85876)" fill="#68CA44"/>
<path d="M19.0189 11.9105C18.4443 12.5552 17.5185 12.9042 16.6348 12.7328C15.7056 12.5525 15.101 11.851 15.0545 11.023L8.10912 15.3566C8.72811 15.7919 9.0238 16.5846 8.79552 17.4308C8.5539 18.3256 7.79732 19.0177 6.93441 19.2297L21.2163 42.119L33.2016 34.6407L19.0189 11.9105Z" fill="#44A91F"/>
<path d="M36.3737 8.27963C36.5513 11.3028 37.3413 13.0811 38.5044 15.7833H45.8228C47.8705 10.825 48.2672 8.91156 47.7681 6.89004C47.257 5.48273 46.7442 5.21705 45.5448 5.40783C42.9038 6.07419 41.4234 6.16193 38.7823 5.40783C37.2448 5.31685 36.7768 5.68269 36.4663 6.89004C36.4173 7.27445 36.3253 7.60656 36.3737 8.27963Z" fill="#339966" stroke="#339966" stroke-width="0.16" stroke-linecap="round"/>
<path d="M24.7943 8.27963C24.9719 11.3028 25.7619 13.0811 26.9249 15.7833H34.2433C36.2911 10.825 36.6877 8.91156 36.1887 6.89004C35.6775 5.48273 35.1647 5.21705 33.9654 5.40783C31.3243 6.07419 29.8439 6.16193 27.2028 5.40783C25.6654 5.31685 25.1974 5.68269 24.8869 6.89004C24.8378 7.27445 24.7458 7.60656 24.7943 8.27963Z" fill="#339966" stroke="#339966" stroke-width="0.16" stroke-linecap="round"/>
<path d="M21.886 23.8071C17.8535 31.1813 17.0476 34.5215 17.7173 39.3239C41.534 49.843 52.6828 46.5871 54.8882 39.0923C56.1534 38.7312 55.1067 30.0546 51.0669 24.1545C48.9677 21.0885 45.1479 16.7093 44.9297 16.8592H27.9074C25.3361 18.849 24.0529 20.4862 21.886 23.8071Z" fill="#3BB084" stroke="#3BB084" stroke-width="0.2"/>
<path d="M38.5512 31.6849L35.0495 30.4593C34.6993 30.3426 34.6263 30.3134 34.6263 29.8027C34.6263 29.4234 34.889 29.117 35.2245 29.117H37.4131C37.88 29.117 38.2594 29.5401 38.2594 30.0654C38.2594 30.6636 38.7554 31.1596 39.3536 31.1596C39.9519 31.1596 40.4479 30.6636 40.4479 30.0654C40.4479 28.3875 39.1494 27.0159 37.5298 26.943V26.87C37.5298 26.2718 37.0338 25.7758 36.4356 25.7758C35.8373 25.7758 35.3413 26.2572 35.3413 26.87V26.943H35.21C33.678 26.943 32.4232 28.227 32.4232 29.8173C32.4232 31.2034 33.036 32.0934 34.3053 32.5311L37.8216 33.7567C38.1718 33.8735 38.2448 33.9027 38.2448 34.4133C38.2448 34.7927 37.9821 35.0991 37.6466 35.0991H35.458C34.9911 35.0991 34.6117 34.6759 34.6117 34.1507C34.6117 33.5525 34.1157 33.0564 33.5175 33.0564C32.9192 33.0564 32.4232 33.5525 32.4232 34.1507C32.4232 35.8286 33.7217 37.2001 35.3413 37.2731V37.3606C35.3413 37.9588 35.8373 38.4549 36.4356 38.4549C37.0338 38.4549 37.5298 37.9588 37.5298 37.3606V37.2876H37.6612C39.1932 37.2876 40.4479 36.0037 40.4479 34.4133C40.4479 33.0272 39.8205 32.1372 38.5512 31.6849Z" fill="#FCC342"/>
<rect y="39.4398" width="11.1166" height="21.3067" rx="1" fill="#6BA7FF"/>
<path d="M13.2009 42.1028H11.1165V58.0828L16.9064 55.0721C18.6483 54.2874 19.6793 54.2218 21.6541 55.0721L25.9386 57.7355C28.3398 59.253 29.7676 59.3899 32.4233 58.6618L43.5398 56.3459C51.6806 50.9969 56.242 47.994 63.8043 41.7554C64.6059 40.7435 65.0073 39.9245 63.9201 37.9341C62.3898 36.1608 61.5562 35.9472 60.0988 36.5445L45.6242 44.9977L44.8136 45.1135C44.1236 42.9313 43.4049 42.534 41.9186 42.3344H31.9601C28.5489 38.8202 26.4207 37.7619 22.1173 38.0499C19.123 38.3526 17.0882 39.4561 13.2009 42.1028Z" fill="#EDA970" stroke="#EDA970" stroke-width="0.2"/>
<path d="M34.392 51.1356C41.655 49.4027 46.5105 48.6495 44.8138 44.4193" stroke="#C6744F" stroke-linecap="round"/>
<path d="M43.289 22.765C43.5601 22.765 43.7808 22.5673 43.7713 22.3236C43.6844 20.0888 42.9396 17.9678 41.6747 16.3783C40.3267 14.6844 38.4985 13.7328 36.5922 13.7328C34.6859 13.7328 32.8577 14.6844 31.5097 16.3783C30.2448 17.9678 29.5 20.0888 29.4131 22.3236C29.4036 22.5673 29.6243 22.765 29.8954 22.765C30.1666 22.765 30.3853 22.5672 30.3963 22.3236C30.4823 20.4163 31.1233 18.6088 32.204 17.2507C33.3678 15.7883 34.9463 14.9666 36.5922 14.9666C38.2381 14.9666 39.8166 15.7883 40.9804 17.2507C42.0612 18.6088 42.7021 20.4163 42.7881 22.3236C42.7991 22.5672 43.0178 22.765 43.289 22.765Z" fill="#339966"/>
<path d="M29.1805 4.6581C29.4025 8.43708 30.39 10.6599 31.8438 14.0377H40.9918C43.5515 7.83976 44.0473 5.44801 43.4236 2.92111C42.7846 1.16197 42.1436 0.829871 40.6444 1.06835C37.3431 1.9013 35.4926 2.01097 32.1912 1.06835C30.2694 0.954632 29.6844 1.41193 29.2963 2.92111C29.2349 3.40163 29.12 3.81676 29.1805 4.6581Z" fill="#66CC99" stroke="#66CC99" stroke-width="0.2" stroke-linecap="round"/>
<path d="M35.7327 14.038C35.4637 10.7143 35.9697 9.30341 37.817 7.4375" stroke="#339966" stroke-width="1.6" stroke-linecap="round"/>
<rect x="24.8001" y="13" width="22.4" height="4.8" rx="2.4" fill="#27744E"/>
</svg>
