<svg width="80" height="80" viewBox="0 0 80 80" fill="none" xmlns="http://www.w3.org/2000/svg">
<g clip-path="url(#clip0_139_5885)">
<rect width="80" height="80" rx="40" fill="#F2FFFA"/>
<rect width="23.1579" height="41.7474" transform="matrix(-0.829732 0.558162 0.500903 0.865504 19.2148 33.1566)" fill="#68CA44"/>
<path d="M19.7839 40.5767C19.1305 41.3671 18.0771 41.7949 17.0723 41.5848C16.0156 41.3638 15.3284 40.5031 15.2755 39.4878L7.3785 44.8002C8.08198 45.3339 8.41738 46.3061 8.15787 47.3431C7.88324 48.4404 7.02286 49.289 6.04145 49.5489L22.2821 77.611L35.9111 68.4427L19.7839 40.5767Z" fill="#44A91F"/>
<path d="M39.5185 36.1245C39.7205 39.8309 40.6188 42.0109 41.9413 45.3238H50.2633C52.5919 39.245 53.0429 36.8992 52.4755 34.4209C51.8942 32.6956 51.3111 32.3699 49.9473 32.6038C46.944 33.4207 45.2606 33.5283 42.2573 32.6038C40.5091 32.4922 39.9768 32.9408 39.6238 34.4209C39.568 34.8922 39.4634 35.2994 39.5185 36.1245Z" fill="#339966" stroke="#339966" stroke-width="0.16" stroke-linecap="round"/>
<path d="M26.3508 36.1245C26.5528 39.8309 27.4511 42.0109 28.7736 45.3238H37.0956C39.4242 39.245 39.8752 36.8992 39.3078 34.4209C38.7265 32.6956 38.1434 32.3699 36.7796 32.6038C33.7763 33.4207 32.0929 33.5283 29.0897 32.6038C27.3414 32.4922 26.8092 32.9408 26.4561 34.4209C26.4003 34.8922 26.2958 35.2994 26.3508 36.1245Z" fill="#339966" stroke="#339966" stroke-width="0.16" stroke-linecap="round"/>
<path d="M23.0435 55.1608C18.458 64.2014 17.5417 68.2963 18.3031 74.1839C45.3858 87.08 58.0636 83.0884 60.5714 73.9C62.0101 73.4573 60.8198 62.8201 56.2261 55.5866C53.839 51.8278 49.4953 46.4591 49.2472 46.6429H29.8907C26.9667 49.0823 25.5075 51.0894 23.0435 55.1608Z" fill="#3BB084" stroke="#3BB084" stroke-width="0.2"/>
<path d="M41.9947 64.819L38.0128 63.3165C37.6146 63.1734 37.5317 63.1376 37.5317 62.5115C37.5317 62.0465 37.8303 61.6708 38.2119 61.6708H40.7006C41.2315 61.6708 41.6629 62.1896 41.6629 62.8335C41.6629 63.5669 42.227 64.1751 42.9072 64.1751C43.5875 64.1751 44.1516 63.5669 44.1516 62.8335C44.1516 60.7764 42.675 59.095 40.8333 59.0056V58.9161C40.8333 58.1828 40.2692 57.5746 39.589 57.5746C38.9087 57.5746 38.3446 58.1649 38.3446 58.9161V59.0056H38.1953C36.4532 59.0056 35.0264 60.5797 35.0264 62.5294C35.0264 64.2287 35.7232 65.3199 37.1666 65.8565L41.1651 67.359C41.5633 67.5021 41.6463 67.5379 41.6463 68.164C41.6463 68.629 41.3476 69.0047 40.966 69.0047H38.4774C37.9464 69.0047 37.5151 68.4859 37.5151 67.842C37.5151 67.1086 36.951 66.5004 36.2707 66.5004C35.5905 66.5004 35.0264 67.1086 35.0264 67.842C35.0264 69.8991 36.503 71.5805 38.3446 71.6699V71.7772C38.3446 72.5106 38.9087 73.1188 39.589 73.1188C40.2692 73.1188 40.8333 72.5106 40.8333 71.7772V71.6878H40.9826C42.7247 71.6878 44.1516 70.1137 44.1516 68.164C44.1516 66.4647 43.4381 65.3735 41.9947 64.819Z" fill="#FCC342"/>
<path d="M47.3816 53.8833C47.6899 53.8833 47.9409 53.6409 47.9301 53.3422C47.8313 50.6024 46.9844 48.0021 45.546 46.0533C44.0132 43.9767 41.9342 42.8101 39.7665 42.8101C37.5988 42.8101 35.5199 43.9767 33.987 46.0533C32.5486 48.0021 31.7017 50.6024 31.6029 53.3422C31.5921 53.6409 31.8431 53.8833 32.1514 53.8833C32.4597 53.8833 32.7085 53.6408 32.721 53.3422C32.8187 51.0038 33.5476 48.7879 34.7766 47.1229C36.1 45.33 37.8949 44.3227 39.7665 44.3227C41.6381 44.3227 43.433 45.33 44.7565 47.1229C45.9854 48.7879 46.7143 51.0038 46.8121 53.3422C46.8245 53.6408 47.0733 53.8833 47.3816 53.8833Z" fill="#339966"/>
<path d="M31.3391 31.6846C31.5916 36.3175 32.7145 39.0426 34.3676 43.1836H44.7701C47.6808 35.5852 48.2446 32.653 47.5353 29.5551C46.8087 27.3984 46.0798 26.9913 44.3751 27.2836C40.621 28.3048 38.5167 28.4393 34.7626 27.2836C32.5773 27.1442 31.912 27.7048 31.4707 29.5551C31.401 30.1442 31.2702 30.6531 31.3391 31.6846Z" fill="#66CC99" stroke="#66CC99" stroke-width="0.2" stroke-linecap="round"/>
<path d="M38.7898 43.1841C38.4838 39.1094 39.0593 37.3797 41.1599 35.0922" stroke="#339966" stroke-width="1.6" stroke-linecap="round"/>
<rect x="26.3574" y="41.9116" width="25.4717" height="5.88465" rx="2.94233" fill="#27744E"/>
<path d="M54.4938 64.6258C55.6703 67.9542 59.3222 69.6987 62.6506 68.5222C65.979 67.3457 67.7234 63.6937 66.5469 60.3653C65.3704 57.0369 61.7185 55.2925 58.3901 56.469C55.0617 57.6455 53.3173 61.2974 54.4938 64.6258Z" fill="#D8990B"/>
<path d="M55.2021 61.8297C56.3786 65.1581 60.0305 66.9025 63.3589 65.726C66.6873 64.5495 68.4318 60.8976 67.2552 57.5692C66.0787 54.2408 62.4268 52.4963 59.0984 53.6728C55.77 54.8494 54.0256 58.5013 55.2021 61.8297Z" fill="#FFC134"/>
<path d="M61.5057 60.6282L61.4994 58.594C61.4958 58.3917 61.4976 58.3486 61.7615 58.2553C61.9577 58.186 62.164 58.2657 62.2254 58.4392L62.6253 59.5706C62.7106 59.812 62.5612 60.0854 62.2896 60.1814C61.9804 60.2907 61.8146 60.6378 61.9239 60.9471C62.0332 61.2563 62.3803 61.4221 62.6896 61.3128C63.557 61.0062 64.0287 60.0843 63.7705 59.2337L63.8082 59.2204C64.1174 59.1111 64.2832 58.764 64.1739 58.4547C64.0646 58.1455 63.7251 57.977 63.4083 58.089L63.3706 58.1023L63.3466 58.0344C63.0666 57.2425 62.1736 56.8284 61.3514 57.119C60.6349 57.3723 60.2867 57.8517 60.2924 58.5879L60.3014 60.6297C60.305 60.832 60.3033 60.8751 60.0393 60.9684C59.8432 61.0377 59.6368 60.9579 59.5755 60.7844L59.1755 59.653C59.0902 59.4117 59.2396 59.1382 59.5112 59.0423C59.8204 58.9329 59.9862 58.5858 59.8769 58.2766C59.7676 57.9673 59.4205 57.8015 59.1112 57.9109C58.2438 58.2175 57.7721 59.1394 58.0303 59.9899L57.9851 60.0059C57.6758 60.1153 57.51 60.4624 57.6194 60.7716C57.7287 61.0809 58.0758 61.2467 58.385 61.1373L58.4227 61.124L58.4467 61.1919C58.7267 61.9839 59.6197 62.3979 60.4419 62.1073C61.1584 61.854 61.5039 61.3671 61.5057 60.6282Z" fill="#F9FBFF"/>
<path d="M59.6914 76.2483C63.1751 76.8194 66.4621 74.4582 67.0332 70.9745C67.6042 67.4908 65.243 64.2037 61.7593 63.6327C58.2756 63.0617 54.9886 65.4229 54.4175 68.9066C53.8465 72.3903 56.2077 75.6773 59.6914 76.2483Z" fill="#FFC134"/>
<path d="M61.6729 70.1443L59.8869 69.1706C59.7078 69.0763 59.6709 69.0541 59.7162 68.7778C59.7498 68.5725 59.9191 68.43 60.1007 68.4598L61.2849 68.6539C61.5375 68.6953 61.7052 68.9579 61.6586 69.2421C61.6056 69.5658 61.83 69.8782 62.1537 69.9312C62.4774 69.9843 62.7898 69.7599 62.8428 69.4362C62.9916 68.5283 62.4107 67.671 61.5408 67.4879L61.5473 67.4485C61.6004 67.1248 61.3759 66.8124 61.0523 66.7593C60.7286 66.7063 60.4175 66.9228 60.3631 67.2544L60.3566 67.2938L60.2856 67.2822C59.4566 67.1463 58.6638 67.7297 58.5228 68.5903C58.3998 69.3403 58.6525 69.8762 59.3005 70.2256L61.0944 71.2006C61.2735 71.2948 61.3104 71.3171 61.2651 71.5934C61.2315 71.7987 61.0622 71.9412 60.8806 71.9114L59.6964 71.7173C59.4438 71.6759 59.276 71.4133 59.3226 71.1291C59.3757 70.8054 59.1513 70.493 58.8276 70.4399C58.5039 70.3869 58.1915 70.6113 58.1384 70.935C57.9896 71.8429 58.5706 72.7001 59.4404 72.8832L59.4327 72.9306C59.3796 73.2543 59.604 73.5667 59.9277 73.6198C60.2514 73.6728 60.5638 73.4484 60.6169 73.1247L60.6233 73.0852L60.6944 73.0969C61.5233 73.2328 62.3161 72.6493 62.4572 71.7888C62.5801 71.0388 62.3196 70.5016 61.6729 70.1443Z" fill="#F9FBFF"/>
<path d="M17.7024 20.4968C17.535 20.4403 17.3534 20.5302 17.2969 20.6976L16.3755 23.4262C16.3189 23.5937 16.4088 23.7752 16.5763 23.8318C16.7437 23.8883 16.9253 23.7984 16.9818 23.631L17.8009 21.2055L20.2263 22.0246C20.3937 22.0811 20.5753 21.9912 20.6319 21.8238C20.6884 21.6564 20.5985 21.4748 20.4311 21.4182L17.7024 20.4968ZM21.1497 27.9694L21.4365 27.8274L17.8868 20.658L17.6001 20.8L17.3133 20.942L20.8629 28.1113L21.1497 27.9694Z" fill="black"/>
<path d="M61.0476 20.4968C61.215 20.4403 61.3966 20.5302 61.4531 20.6976L62.3745 23.4262C62.4311 23.5937 62.3412 23.7752 62.1737 23.8318C62.0063 23.8883 61.8247 23.7984 61.7682 23.631L60.9491 21.2055L58.5237 22.0246C58.3563 22.0811 58.1747 21.9912 58.1181 21.8238C58.0616 21.6564 58.1515 21.4748 58.3189 21.4182L61.0476 20.4968ZM57.6003 27.9694L57.3135 27.8274L60.8632 20.658L61.1499 20.8L61.4367 20.942L57.8871 28.1113L57.6003 27.9694Z" fill="black"/>
<path d="M39.7172 12.5173C39.8734 12.3611 40.1266 12.3611 40.2828 12.5173L42.8284 15.0629C42.9846 15.2191 42.9846 15.4724 42.8284 15.6286C42.6722 15.7848 42.419 15.7848 42.2627 15.6286L40 13.3659L37.7373 15.6286C37.581 15.7848 37.3278 15.7848 37.1716 15.6286C37.0154 15.4724 37.0154 15.2191 37.1716 15.0629L39.7172 12.5173ZM40 24.8002H39.6V12.8002H40H40.4L40.4 24.8002H40Z" fill="black"/>
</g>
<defs>
<clipPath id="clip0_139_5885">
<rect width="80" height="80" rx="40" fill="white"/>
</clipPath>
</defs>
</svg>
