<svg width="60" height="60" viewBox="0 0 60 60" fill="none" xmlns="http://www.w3.org/2000/svg">
<g clip-path="url(#clip0_284_2545)">
<rect width="60" height="60" rx="30" fill="#F2FFFA"/>
<rect x="-2.46802" y="41.5823" width="66.8354" height="18.4177" fill="#05186D"/>
<rect x="6.00067" y="5.98633" width="46.4452" height="56.0133" rx="2.8481" fill="#0B31DB"/>
<rect x="9.78778" y="9.57446" width="39.0698" height="49.2359" rx="2.8481" fill="#F0F0FF"/>
<path d="M29.2214 1.99976C30.4322 1.99979 31.4136 2.98133 31.4138 4.19214V4.29175H37.7311C38.1504 4.29191 38.4899 4.63222 38.4899 5.05151V10.908C38.4899 11.3273 38.1505 11.6676 37.7311 11.6677H20.7116C20.2923 11.6676 19.9518 11.3273 19.9518 10.908V5.05151C19.9519 4.63222 20.2923 4.29191 20.7116 4.29175H27.029V4.19214C27.0292 2.9814 28.0106 1.99991 29.2214 1.99976ZM29.2224 3.09644C28.5622 3.09669 28.0272 3.63154 28.027 4.29175C28.027 4.95213 28.562 5.48779 29.2224 5.48804C29.8829 5.48804 30.4186 4.95229 30.4186 4.29175C30.4184 3.63138 29.8828 3.09644 29.2224 3.09644Z" fill="#2A5083"/>
<path d="M29.2242 29.1093C33.3526 29.1093 36.6993 25.7626 36.6993 21.6343C36.6993 17.5059 33.3526 14.1592 29.2242 14.1592C25.0959 14.1592 21.7491 17.5059 21.7491 21.6343C21.7491 25.7626 25.0959 29.1093 29.2242 29.1093Z" fill="#C3D0FE"/>
<path d="M29.2239 17.8445C27.6765 17.8445 26.4207 19.1003 26.4207 20.6476C26.4207 22.1651 27.6093 23.3985 29.1865 23.4433C29.2089 23.4433 29.2388 23.4433 29.2538 23.4433C29.2687 23.4433 29.2911 23.4433 29.3061 23.4433C29.3136 23.4433 29.321 23.4433 29.321 23.4433C30.831 23.391 32.0196 22.1651 32.027 20.6476C32.027 19.1003 30.7712 17.8445 29.2239 17.8445Z" fill="#FBDFAD"/>
<path d="M34.2918 27.1285C32.9612 28.3544 31.1822 29.1094 29.2237 29.1094C27.2652 29.1094 25.4861 28.3544 24.1556 27.1285C24.335 26.4483 24.8209 25.8279 25.531 25.3494C27.5717 23.989 30.8906 23.989 32.9164 25.3494C33.634 25.8279 34.1124 26.4483 34.2918 27.1285Z" fill="#F49F0A"/>
<rect x="12.5787" y="30.7041" width="9.16944" height="9.16944" rx="0.759494" fill="#E40514"/>
<rect x="12.5787" y="44.2588" width="9.16944" height="9.16944" rx="0.759494" fill="#1AB04B"/>
<rect x="24.9372" y="31.5015" width="20.7309" height="1.19601" fill="#70C1F9"/>
<rect x="24.9372" y="45.0562" width="20.7309" height="1.19601" fill="#70C1F9"/>
<rect x="24.9372" y="38.2788" width="20.7309" height="1.19601" fill="#70C1F9"/>
<rect x="24.9372" y="51.8337" width="20.7309" height="1.19601" fill="#70C1F9"/>
<rect x="24.9372" y="35.0894" width="12.3588" height="1.19601" fill="#70C1F9"/>
<rect x="24.9372" y="48.6443" width="12.3588" height="1.19601" fill="#70C1F9"/>
<rect x="39.8875" y="35.0894" width="5.78073" height="1.19601" fill="#70C1F9"/>
<path d="M14.3726 49.1426L16.1666 50.6376L19.7546 47.0496" stroke="#F9FBFF" stroke-width="1.13924" stroke-linecap="round"/>
<path d="M14.3726 35.5879L16.1666 37.0829L19.7546 33.4949" stroke="#F9FBFF" stroke-width="1.13924" stroke-linecap="round"/>
<path d="M35.0314 48.1895L35.8654 48.719L35.4241 49.4139C35.2778 49.6442 34.9726 49.7123 34.7423 49.5661C34.5121 49.4199 34.4439 49.1147 34.5902 48.8844L35.0314 48.1895Z" fill="#05186D"/>
<path d="M41.4239 45.0328L36.0034 41.5908L34.8735 48.2844L35.8464 48.9022L41.4239 45.0328Z" fill="#FFCBBA" stroke="#FFCBBA" stroke-width="0.189873" stroke-linecap="round"/>
<rect x="49.7908" y="19.7256" width="2.14033" height="25.8486" transform="rotate(32.4154 49.7908 19.7256)" fill="#FFC928"/>
<rect x="51.5972" y="20.8728" width="2.30498" height="25.8486" transform="rotate(32.4154 51.5972 20.8728)" fill="#FEA832"/>
<rect x="53.5434" y="22.1084" width="2.14033" height="25.8486" transform="rotate(32.4154 53.5434 22.1084)" fill="#FFC928"/>
<rect x="50.4082" y="18.7527" width="6.58564" height="1.15249" transform="rotate(32.4154 50.4082 18.7527)" fill="#C3D0FE"/>
<rect x="52.5265" y="15.417" width="6.58564" height="1.15249" transform="rotate(32.4154 52.5265 15.417)" fill="#C3D0FE"/>
<rect x="51.9087" y="16.3899" width="6.58564" height="0.987846" transform="rotate(32.4154 51.9087 16.3899)" fill="#AEBAF3"/>
<rect x="51.3791" y="17.2239" width="6.58564" height="0.823205" transform="rotate(32.4154 51.3791 17.2239)" fill="#C3D0FE"/>
<rect x="50.9378" y="17.9187" width="6.58564" height="0.987846" transform="rotate(32.4154 50.9378 17.9187)" fill="#AEBAF3"/>
<path d="M53.3618 14.1012C53.9239 13.2159 55.0973 12.954 55.9825 13.5161L58.3363 15.0107C59.2215 15.5729 59.4834 16.7462 58.9213 17.6314L58.0857 18.9473L52.5263 15.417L53.3618 14.1012Z" fill="#BE0411"/>
</g>
<defs>
<clipPath id="clip0_284_2545">
<rect width="60" height="60" rx="30" fill="white"/>
</clipPath>
</defs>
</svg>
