<svg width="146" height="116" viewBox="0 0 146 116" fill="none" xmlns="http://www.w3.org/2000/svg">
<path d="M93.2393 16.0834C85.4669 14.7271 77.5604 13.6333 70.1036 10.963C62.222 8.14058 55.8356 1.80698 47.4464 0.375677C39.3887 -0.998923 30.7256 1.46558 24.4586 6.67328C15.8783 13.8034 11.6465 25.3555 12.023 36.505C12.3995 47.6545 17.0012 58.3684 23.5433 67.405C32.0828 79.2001 43.202 89.0875 56.3681 95.2003C76.4918 104.543 110.255 109.623 128.576 93.7258C138.458 85.1518 142.203 70.8904 140.161 57.9679C136.332 33.7456 116.617 20.2207 93.9566 16.2094C93.7178 16.1671 93.4787 16.1251 93.2393 16.0834Z" fill="#CEE6F7"/>
<mask id="mask0_332_2426" style="mask-type:luminance" maskUnits="userSpaceOnUse" x="6" y="4" width="132" height="105">
<path d="M131.095 25.8836C131.816 25.1842 134.518 22.2043 133.177 17.8903C131.228 11.6178 120.47 4.0003 120.47 4.0003C120.47 4.0003 109.704 11.6107 107.749 17.882C106.404 22.1954 109.102 25.1768 109.823 25.8767C105.957 27.9421 103.324 32.0117 103.321 36.699C103.32 39.4749 103.312 54.2968 103.311 56.5668L103.287 101.186L99.9232 101.185L99.9473 56.5656C99.9481 54.2903 99.9561 39.4052 99.9572 36.6782C99.9477 31.9992 95.7059 27.9359 89.476 25.8702C90.6407 25.1709 95.0008 22.1918 92.8359 17.8773C89.6882 11.6041 72.317 4 72.317 4C72.317 4 54.937 11.5929 51.7825 17.8639C49.6129 22.177 53.9699 25.159 55.1336 25.8589C48.8929 27.9234 44.6435 31.9924 44.6409 36.6797C44.639 40.1158 44.6157 83.5033 44.6065 101.167L40.5675 101.166L40.5915 56.5463C40.5927 54.2763 40.6007 39.4545 40.6022 36.6785C40.6049 31.9912 37.9761 27.9198 34.1123 25.8521C34.8342 25.1528 37.5352 22.1728 36.1948 17.8589C34.2467 11.5863 23.4887 4 23.4887 4C23.4887 4 12.7219 11.5795 10.7665 17.8509C9.4223 22.1642 12.1198 25.1457 12.841 25.8456C8.97488 27.9109 6.34187 31.9805 6.33958 36.6679C6.33806 39.4438 6.33004 54.2656 6.32889 56.5356L6.30484 101.155L6.30103 108.563L40.5637 108.574L44.6027 108.575L99.9198 108.593L103.283 108.594L137.546 108.605L137.55 101.197L137.574 56.5774C137.575 54.3027 137.583 39.4251 137.584 36.6925C137.58 32.0128 134.953 27.9489 131.095 25.8836Z" fill="white"/>
</mask>
<g mask="url(#mask0_332_2426)">
<path d="M150.39 -9.22339H-8.19092V113.971H150.39V-9.22339Z" fill="#285672"/>
</g>
<mask id="mask1_332_2426" style="mask-type:luminance" maskUnits="userSpaceOnUse" x="6" y="4" width="132" height="105">
<path d="M131.095 25.8836C131.816 25.1842 134.518 22.2043 133.177 17.8903C131.228 11.6178 120.47 4.0003 120.47 4.0003C120.47 4.0003 109.704 11.6107 107.749 17.882C106.404 22.1954 109.102 25.1768 109.823 25.8767C105.957 27.9421 103.324 32.0117 103.321 36.699C103.32 39.4749 103.312 54.2968 103.311 56.5668L103.287 101.186L99.9232 101.185L99.9473 56.5656C99.9481 54.2903 99.9561 39.4052 99.9572 36.6782C99.9477 31.9992 95.7059 27.9359 89.476 25.8702C90.6407 25.1709 95.0008 22.1918 92.8359 17.8773C89.6882 11.6041 72.317 4 72.317 4C72.317 4 54.937 11.5929 51.7825 17.8639C49.6129 22.177 53.9699 25.159 55.1336 25.8589C48.8929 27.9234 44.6435 31.9924 44.6409 36.6797C44.639 40.1158 44.6157 83.5033 44.6065 101.167L40.5675 101.166L40.5915 56.5463C40.5927 54.2763 40.6007 39.4545 40.6022 36.6785C40.6049 31.9912 37.9761 27.9198 34.1123 25.8521C34.8342 25.1528 37.5352 22.1728 36.1948 17.8589C34.2467 11.5863 23.4887 4 23.4887 4C23.4887 4 12.7219 11.5795 10.7665 17.8509C9.4223 22.1642 12.1198 25.1457 12.841 25.8456C8.97488 27.9109 6.34187 31.9805 6.33958 36.6679C6.33806 39.4438 6.33004 54.2656 6.32889 56.5356L6.30484 101.155L6.30103 108.563L40.5637 108.574L44.6027 108.575L99.9198 108.593L103.283 108.594L137.546 108.605L137.55 101.197L137.574 56.5774C137.575 54.3027 137.583 39.4251 137.584 36.6925C137.58 32.0128 134.953 27.9489 131.095 25.8836Z" fill="white"/>
</mask>
<g mask="url(#mask1_332_2426)">
<path d="M139.936 83.0626H139.932L139.833 79.2125H140.136L140.125 78.3014L140.546 77.0973L139.776 77.097L139.77 76.637H139.385L139.199 65.4992H139.442L139.435 64.7948L139.774 63.8621L139.159 63.8618L139.155 63.505H139.074C139.316 63.3817 139.555 63.2132 139.674 62.9875C140.343 61.7173 137.998 60.7609 137.169 60.0452C137.108 59.9924 136.972 59.8892 136.855 59.7798C136.966 59.751 137.044 59.7009 137.043 59.641C137.043 59.5654 136.923 59.5046 136.763 59.485L136.735 58.9046C136.798 58.8916 136.848 58.8693 136.848 58.8373C136.848 58.8041 136.795 58.7809 136.728 58.7688L136.69 57.9843H136.634L136.595 58.7688C136.528 58.7809 136.475 58.8041 136.475 58.8373C136.475 58.8693 136.525 58.8918 136.588 58.9046L136.559 59.485C136.399 59.5046 136.279 59.5654 136.279 59.641C136.279 59.7009 136.356 59.751 136.467 59.7798C136.35 59.8889 136.213 59.9921 136.152 60.0449C135.323 60.76 132.977 61.7146 133.644 62.9855C133.763 63.2111 134.002 63.3799 134.243 63.5036H134.2L134.196 63.8603L133.581 63.86L133.919 64.7928L133.911 65.4971H134.154L133.975 75.5691C133.179 75.1447 132.447 74.7431 131.932 74.3564C131.768 74.2333 131.402 73.9931 131.089 73.7383C131.389 73.6707 131.593 73.5479 131.593 73.4067C131.593 73.2282 131.271 73.0793 130.834 73.0337L130.805 72.4975C130.802 72.4402 130.735 72.3948 130.654 72.3948H130.681L130.536 71.7439L130.439 72.3948H130.466C130.385 72.3948 130.318 72.4402 130.315 72.4975L130.285 73.0337C129.849 73.079 129.527 73.2276 129.526 73.4062C129.526 73.5476 129.729 73.6701 130.03 73.738C129.716 73.9928 129.35 74.2324 129.186 74.3555C128.244 75.0622 126.58 75.817 125.11 76.6735L124.951 70.422H125.312L125.298 69.3357L125.8 67.9L124.882 67.8997L124.876 67.3513L124.416 67.351L124.195 54.0704H124.484L124.476 53.2306L124.88 52.1184L124.146 52.1181L124.142 51.6928H124.045C124.334 51.5457 124.619 51.3446 124.76 51.0756C125.558 49.561 122.762 48.4204 121.774 47.5675C121.701 47.5043 121.538 47.3812 121.399 47.251C121.531 47.2166 121.623 47.1567 121.623 47.0855C121.623 46.9954 121.48 46.9227 121.289 46.8996L121.255 46.2074C121.33 46.192 121.391 46.1656 121.391 46.127C121.391 46.0876 121.327 46.06 121.247 46.0455L121.202 45.1101H121.135L121.089 46.0455C121.009 46.06 120.945 46.0876 120.945 46.127C120.945 46.1653 121.005 46.192 121.081 46.2074L121.047 46.8996C120.855 46.9227 120.712 46.9954 120.712 47.0855C120.712 47.1567 120.805 47.2166 120.936 47.2513C120.797 47.3815 120.634 47.5043 120.561 47.5675C119.571 48.4198 116.775 49.5587 117.57 51.0739C117.712 51.3432 117.997 51.5442 118.285 51.6916H118.233L118.229 52.1169L117.495 52.1166L117.898 53.2291L117.889 54.069H118.178L117.943 67.3492L117.483 67.3489L117.476 67.8973L116.558 67.897L117.059 69.333L117.044 70.4191H117.405L117.332 73.1547C115.968 72.4298 114.709 71.7468 113.834 71.0896C113.568 70.8897 112.974 70.5 112.465 70.0863C112.953 69.9763 113.283 69.7773 113.283 69.5477C113.283 69.258 112.761 69.0163 112.052 68.9424L112.005 68.072C112 67.9789 111.892 67.9053 111.761 67.9053H111.803L111.569 66.8486L111.411 67.905H111.454C111.323 67.905 111.215 67.9783 111.21 68.0714L111.161 68.9418C110.452 69.0154 109.929 69.2565 109.929 69.5465C109.929 69.7761 110.259 69.9751 110.747 70.0854C110.238 70.4988 109.643 70.8882 109.377 71.0878C109.186 71.2305 108.975 71.3746 108.751 71.52L108.309 54.1689L108.713 54.1692L108.698 52.953L109.26 51.3455L108.232 51.3452L108.226 50.7313L107.711 50.731L107.462 35.8605H107.787L107.777 34.9198L108.23 33.6748L107.409 33.6745L107.404 33.1982H107.296C107.618 33.0333 107.938 32.8085 108.096 32.5072C108.989 30.8111 105.859 29.5343 104.752 28.5791C104.67 28.5085 104.488 28.3706 104.332 28.225C104.48 28.1864 104.584 28.1194 104.583 28.0396C104.583 27.9388 104.423 27.8572 104.209 27.8311L104.172 27.0562C104.256 27.039 104.323 27.0093 104.323 26.9663C104.323 26.9221 104.252 26.8913 104.163 26.875L104.112 25.8275H104.037L103.985 26.875C103.896 26.8913 103.825 26.9221 103.825 26.9663C103.825 27.0093 103.892 27.039 103.976 27.0562L103.938 27.8311C103.723 27.8572 103.563 27.9385 103.563 28.0393C103.563 28.1191 103.667 28.1861 103.814 28.225C103.658 28.3706 103.476 28.5082 103.394 28.5788C102.286 29.5334 99.1541 30.8084 100.045 32.5048C100.203 32.8061 100.523 33.0315 100.845 33.1964H100.787L100.782 33.6727L99.9608 33.6724L100.412 34.9177L100.401 35.8585H100.726L100.462 50.7287L99.947 50.7284L99.9394 51.3423L98.9113 51.342L99.4717 52.95L99.4549 54.1662H99.8592L99.5137 67.19C97.5981 66.125 95.5812 65.1682 94.3806 64.2658C94.1443 64.0884 93.6167 63.7423 93.1651 63.3751C93.5984 63.2776 93.8912 63.1011 93.8912 62.8974C93.8912 62.6402 93.4273 62.4255 92.7986 62.36L92.7562 61.5874C92.7516 61.5047 92.6562 61.4394 92.5397 61.4394H92.5779L92.3699 60.5013L92.2298 61.4391H92.2679C92.1515 61.4391 92.0557 61.5044 92.0511 61.5868L92.0079 62.3594C91.3792 62.4246 90.9146 62.6388 90.9146 62.8962C90.9146 63.0999 91.2074 63.2767 91.6403 63.3746C91.1883 63.7414 90.6603 64.0869 90.424 64.2646C88.7382 65.5295 85.4485 66.9005 83.0816 68.5272L82.7186 54.2683H82.9721L82.9625 53.5055L83.3149 52.4974L82.6705 52.4971L82.6663 52.1122H82.3433L82.1879 42.7873H82.3914L82.3853 42.1974L82.6689 41.4165L82.1539 41.4163L82.1513 41.1176H82.0833C82.2856 41.0141 82.4861 40.8732 82.5853 40.6843C83.1454 39.6208 81.1824 38.82 80.4883 38.221C80.4372 38.1768 80.3226 38.0902 80.2253 37.9988C80.3177 37.9745 80.3826 37.9327 80.3826 37.8826C80.3826 37.8194 80.2822 37.7681 80.1478 37.7518L80.1241 37.2657C80.1772 37.255 80.2192 37.2363 80.2192 37.2094C80.2192 37.1815 80.1745 37.1622 80.1188 37.1521L80.0871 36.4952H80.0397L80.0073 37.1521C79.9516 37.1622 79.9069 37.1815 79.9065 37.2094C79.9065 37.2363 79.9489 37.255 80.0016 37.2657L79.9775 37.7518C79.8431 37.7681 79.7427 37.8191 79.7427 37.8823C79.7427 37.9324 79.8076 37.9742 79.9 37.9985C79.8023 38.0899 79.6878 38.1762 79.6366 38.2204C78.9418 38.8189 76.978 39.6184 77.5366 40.6822C77.6358 40.8711 77.8359 41.0123 78.0382 41.1158H78.0019L77.9989 41.4145L77.4839 41.4142L77.7668 42.195L77.7599 42.7849H77.9634L77.7981 52.1098H77.4751L77.4701 52.4948L76.8253 52.4945L77.1769 53.5028L77.1666 54.2656H77.4201L76.9761 71.0009H76.9066L76.8994 71.4968L76.1156 71.4965L76.5394 72.7967L76.5241 73.7819H76.8326L76.5062 81.7633C75.7113 82.2108 74.965 82.6954 74.5145 83.2322C74.1973 83.0578 73.9121 82.8897 73.6949 82.7263C73.5994 82.6545 73.3864 82.5142 73.2043 82.3659C73.3769 82.3265 73.4983 82.2586 73.4983 82.177C73.4983 82.0741 73.3108 81.9911 73.06 81.9644L73.0169 81.1802C73.1211 81.1633 73.1944 81.1245 73.1944 81.0791C73.1944 81.0322 73.1158 80.9928 73.0054 80.9768L72.9466 79.9065H72.8573L72.7974 80.9768C72.6874 80.9925 72.6084 81.0319 72.6084 81.0788C72.6084 81.1242 72.6817 81.163 72.7859 81.1802L72.742 81.9644C72.4912 81.9911 72.3034 82.0738 72.3034 82.1767C72.3034 82.258 72.4248 82.3262 72.5973 82.3656C72.4152 82.5139 72.2018 82.6539 72.1064 82.7257C71.2379 83.3776 69.3085 84.0997 68.4648 85.0191C68.0574 84.8029 67.6772 84.6 67.4184 84.4052C67.3435 84.3488 67.1763 84.2388 67.0335 84.1225C67.1691 84.0917 67.2641 84.0383 67.2645 83.9743C67.2645 83.8936 67.1175 83.8283 66.9205 83.8073L66.8866 83.1919C66.9686 83.1788 67.0259 83.1483 67.0259 83.1127C67.0259 83.0759 66.9641 83.0448 66.8778 83.0323L66.8316 82.1924H66.7617L66.7148 83.0323C66.6285 83.0448 66.5663 83.0756 66.5663 83.1124C66.5663 83.148 66.6239 83.1786 66.7056 83.1919L66.6713 83.8073C66.4743 83.828 66.3273 83.8933 66.3269 83.974C66.3269 84.0377 66.422 84.0914 66.5575 84.1222C66.4147 84.2385 66.2471 84.3485 66.1723 84.4049C65.7921 84.6902 65.1526 84.9927 64.5464 85.3296L64.2322 77.447H64.4685L64.4574 76.6928L64.7827 75.6978L64.1829 75.6975L64.178 75.3179H64.1245L63.7958 67.0464H63.9898L63.9825 66.4628L64.2524 65.6911H63.7588L63.7558 65.3963H63.5088L63.3896 58.0178H63.5454L63.5408 57.5665L63.758 56.9689H63.3637L63.3618 56.7402H63.3099C63.4648 56.661 63.6179 56.5531 63.6943 56.4083C64.123 55.5942 62.6204 54.9812 62.089 54.5227C62.0497 54.4886 61.963 54.4225 61.8882 54.3525C61.9588 54.3338 62.008 54.3021 62.008 54.2638C62.008 54.2155 61.9313 54.1763 61.8282 54.1639L61.8103 53.7917C61.8508 53.7834 61.8832 53.7691 61.8832 53.7487C61.8832 53.7273 61.8489 53.7128 61.8065 53.7048L61.782 53.2021H61.7458L61.721 53.7048C61.6782 53.7128 61.6442 53.7273 61.6438 53.7487C61.6438 53.7691 61.6763 53.7837 61.7168 53.792L61.6984 54.1639C61.5957 54.1763 61.5186 54.2155 61.5186 54.2638C61.5186 54.3021 61.5679 54.3341 61.6385 54.3525C61.5637 54.4225 61.4766 54.4886 61.4373 54.5227C60.9055 54.9809 59.4021 55.5931 59.8297 56.4072C59.9057 56.5519 60.0588 56.6601 60.2138 56.7393H60.1863L60.184 56.968L59.7896 56.9677L60.0061 57.5656L60.0007 58.017H60.1565L60.0298 65.3954H59.7828L59.7789 65.6902H59.2853L59.5545 66.4619L59.5465 67.0455H59.7404L59.4033 75.3167H59.3498L59.3445 75.696L58.7448 75.6957L59.0693 76.691L59.0624 77.1362C57.3319 75.9843 55.0195 75.0056 53.8158 74.101C53.6414 73.9699 53.2527 73.7146 52.9195 73.4432C53.2386 73.3712 53.4543 73.241 53.4547 73.0906C53.4547 72.9008 53.1123 72.7424 52.648 72.6938L52.5686 71.9245C52.7607 71.8936 52.8954 71.8222 52.8954 71.7385C52.8954 71.6522 52.7504 71.5796 52.548 71.5502L52.3976 70.048L52.1651 71.5499C51.9624 71.579 51.8173 71.6513 51.8173 71.7379C51.8173 71.8216 51.9521 71.893 52.1441 71.9242L52.0639 72.6935C51.5997 72.7415 51.2569 72.8999 51.2565 73.0897C51.2565 73.2401 51.4722 73.3703 51.7914 73.4426C51.4577 73.7137 51.0691 73.9688 50.8942 74.0998C49.8742 74.8653 48.0577 75.6835 46.4731 76.6154C41.3762 71.3889 31.4305 67.2039 26.8147 63.4081C26.2806 62.9691 25.0868 62.1129 24.066 61.2042C25.0456 60.9625 25.7079 60.5257 25.7083 60.0215C25.7087 59.385 24.6589 58.8542 23.2368 58.6917L23.141 56.7799C23.1307 56.5753 22.9146 56.414 22.6512 56.4137H22.7371L22.6829 55.3371C22.8039 55.3451 22.9257 55.3516 23.0494 55.3516C25.3773 55.3522 27.2655 53.8869 27.2663 52.0784C27.2663 52.0199 27.259 51.9633 27.2552 51.9058C26.8059 52.9444 25.5446 53.6932 24.0565 53.6926C22.1923 53.692 20.6817 52.5176 20.6824 51.0694C20.6828 50.1429 21.3036 49.3309 22.2374 48.8647C20.2999 49.1592 18.8366 50.484 18.8359 52.0757C18.8351 53.6048 20.1858 54.886 22.0095 55.2467L21.9495 56.4134H22.0358C21.7724 56.4134 21.5559 56.5747 21.5456 56.7794L21.4475 58.6911C20.0254 58.8524 18.9748 59.3827 18.9745 60.0191C18.9741 60.5233 19.636 60.9604 20.6156 61.2027C19.5937 62.1109 18.3991 62.9662 17.8647 63.4048C13.4366 67.0402 4.10984 71.0294 -1.14968 75.9537C-1.18671 75.9338 -1.22298 75.9146 -1.26001 75.8947V117.444L141.715 117.491L141.734 81.3976C140.865 81.8793 140.033 82.419 139.936 83.0626Z" fill="#1F4C63"/>
</g>
<mask id="mask2_332_2426" style="mask-type:luminance" maskUnits="userSpaceOnUse" x="6" y="4" width="132" height="105">
<path d="M131.095 25.8836C131.816 25.1842 134.518 22.2043 133.177 17.8903C131.228 11.6178 120.47 4.0003 120.47 4.0003C120.47 4.0003 109.704 11.6107 107.749 17.882C106.404 22.1954 109.102 25.1768 109.823 25.8767C105.957 27.9421 103.324 32.0117 103.321 36.699C103.32 39.4749 103.312 54.2968 103.311 56.5668L103.287 101.186L99.9232 101.185L99.9473 56.5656C99.9481 54.2903 99.9561 39.4052 99.9572 36.6782C99.9477 31.9992 95.7059 27.9359 89.476 25.8702C90.6407 25.1709 95.0008 22.1918 92.8359 17.8773C89.6882 11.6041 72.317 4 72.317 4C72.317 4 54.937 11.5929 51.7825 17.8639C49.6129 22.177 53.9699 25.159 55.1336 25.8589C48.8929 27.9234 44.6435 31.9924 44.6409 36.6797C44.639 40.1158 44.6157 83.5033 44.6065 101.167L40.5675 101.166L40.5915 56.5463C40.5927 54.2763 40.6007 39.4545 40.6022 36.6785C40.6049 31.9912 37.9761 27.9198 34.1123 25.8521C34.8342 25.1528 37.5352 22.1728 36.1948 17.8589C34.2467 11.5863 23.4887 4 23.4887 4C23.4887 4 12.7219 11.5795 10.7665 17.8509C9.4223 22.1642 12.1198 25.1457 12.841 25.8456C8.97488 27.9109 6.34187 31.9805 6.33958 36.6679C6.33806 39.4438 6.33004 54.2656 6.32889 56.5356L6.30484 101.155L6.30103 108.563L40.5637 108.574L44.6027 108.575L99.9198 108.593L103.283 108.594L137.546 108.605L137.55 101.197L137.574 56.5774C137.575 54.3027 137.583 39.4251 137.584 36.6925C137.58 32.0128 134.953 27.9489 131.095 25.8836Z" fill="white"/>
</mask>
<g mask="url(#mask2_332_2426)">
<path d="M18.0392 36.5637L16.6137 37.2037L15.3455 36.3875L15.6887 37.6388L14.2976 38.3235L15.9354 38.4567L16.3438 39.6958L17.0127 38.527L18.6562 38.6083L17.4319 37.7526L18.0392 36.5637Z" fill="#F8CB6E"/>
<path d="M76.2063 21.0965L75.1523 20.0016L75.105 21.3685L73.439 21.8092L75.0977 22.2665L75.1221 23.6337L76.1945 22.5494L77.8758 22.9537L76.8798 21.8264L77.8945 20.7089L76.2063 21.0965Z" fill="#F8CB6E"/>
<path d="M127.812 34.9613L126.533 34.6763L126.432 33.6451L125.688 34.5025L124.394 34.2582L125.214 35.0728L124.515 35.9531L125.766 35.5993L126.628 36.3876L126.581 35.3543L127.812 34.9613Z" fill="#F8CB6E"/>
<path d="M25.2559 20.1499L25.1742 19.3105L24.5684 20.0084L23.5159 19.8094L24.1828 20.4725L23.614 21.1887L24.6321 20.9011L25.333 21.5426L25.2953 20.7015L26.2974 20.3818L25.2559 20.1499Z" fill="#F8CB6E"/>
<path d="M121.082 18.0994L120.728 17.4594L120.494 18.1317L119.602 18.1954L120.353 18.5757L120.155 19.2551L120.852 18.8177L121.623 19.1738L121.303 18.5232L121.977 18.0641L121.082 18.0994Z" fill="#F8CB6E"/>
<path d="M70.3743 59.2958L70.0204 58.6555L69.7867 59.3281L68.8938 59.3918L69.6451 59.7721L69.447 60.4515L70.1448 60.0141L70.9152 60.3702L70.5953 59.7196L71.2695 59.2605L70.3743 59.2958Z" fill="#F8CB6E"/>
<path d="M64.6391 42.2532C60.9215 42.2532 57.9075 39.9118 57.9075 37.0237C57.9075 35.5942 58.6477 34.2997 59.8445 33.3557C56.2277 34.0458 53.5439 36.5801 53.5439 39.6027C53.5439 43.156 57.252 46.0366 61.8259 46.0366C66.1875 46.0366 69.7588 43.4167 70.0814 40.0927C68.8575 41.3997 66.8788 42.2532 64.6391 42.2532Z" fill="#F8CB6E"/>
</g>
<path d="M7.4942 83.611C6.85173 82.0374 5.84204 80.5876 4.5188 79.5641C6.49141 80.2091 8.52931 79.6683 10.5142 80.0468C13.0025 80.5211 13.7808 81.8409 15.7017 83.4376C17.2876 84.7557 18.978 84.655 20.5875 85.7235C22.5705 87.0398 22.0931 88.6077 23.1988 90.5085C24.9254 93.4767 28.9673 93.1136 31.1028 96.2451C32.7616 98.6773 33.0152 103.843 35.8201 105.271C33.2204 103.854 30.1032 104.431 27.7696 102.841C26.4916 101.97 25.8962 100.233 24.5095 99.444C22.6631 98.3932 21.0348 99.4503 19.2219 98.885C17.2116 98.2583 17.2973 97.2486 16.7223 95.3612C16.046 93.1415 16.0096 92.7091 14.0134 91.5736C9.98562 89.2829 9.34598 88.1474 7.4942 83.611Z" fill="#489332"/>
<g opacity="0.59">
<path d="M9.91553 82.7319C11.5489 83.1435 13.0237 84.0001 14.239 85.0731C15.4589 86.1493 16.4721 87.3912 17.5116 88.5972C19.52 91.051 22.3632 92.8477 24.3296 95.4017C25.3164 96.657 26.1836 97.9762 27.1754 99.2087C28.1606 100.44 29.3033 101.585 30.7248 102.386C32.1397 103.196 33.778 103.649 35.4403 103.855C37.1065 104.076 38.8017 104.064 40.489 104.047C38.8039 104.128 37.1078 104.169 35.4205 103.994C33.7398 103.814 32.0641 103.38 30.5986 102.573C29.1175 101.779 27.9506 100.597 26.9453 99.3627C25.9353 98.1217 25.0584 96.8065 24.0747 95.568C22.1718 93.0465 19.3204 91.2458 17.3204 88.7301C16.3029 87.5059 15.3168 86.2574 14.1313 85.1721C13.5419 84.6287 12.8981 84.1316 12.191 83.7174C11.4845 83.3033 10.7178 82.9727 9.91553 82.7319Z" fill="white"/>
</g>
<path d="M31.5706 99.6018C27.8426 85.8604 23.5565 83.7063 15.9243 79.8925C17.0257 81.8012 17.3408 84.8589 17.9845 87.3559C18.7057 90.1537 19.1301 93.0286 20.4813 95.6336C23.1576 100.793 30.0926 102.517 32.6741 108.018C34.8859 106.313 32.182 101.855 31.5706 99.6018Z" fill="#1F4E39"/>
<path d="M36.5882 111.957C33.8159 112.421 31.1321 113.336 28.2929 113.386C24.4741 113.453 21.956 112.491 18.3049 111.861C13.8685 111.095 8.54821 110.564 4.84937 112.934C7.16252 107.715 12.8927 103.481 18.8353 105.014C22.537 105.968 25.3806 109.125 29.1136 110.075C31.7796 110.754 34.6834 110.608 37.3186 110.017C37.0851 110.638 36.9187 111.391 36.5882 111.957Z" fill="#489332"/>
<path d="M34.0951 104.474C31.6963 97.3393 25.6488 95.1578 20.1936 92.6486C15.4546 90.4689 9.95356 90.2698 5.36963 92.3848C11.1453 92.3306 13.2083 98.9237 17.99 100.904C20.3587 101.885 22.8589 101.351 25.3029 101.59C28.3543 101.888 31.351 103.007 34.0951 104.474Z" fill="#398645"/>
<path d="M7.53665 105.824C5.97237 104.55 4.06724 103.687 2.10059 103.58C6.92149 101.887 8.77233 97.5118 14.4284 98.5791C17.2343 99.1085 18.3394 98.6907 21.012 98.0868C24.2372 97.3581 24.7434 98.3592 27.1385 100.428C30.6308 103.445 34.7766 99.3048 39.1186 101.156C42.2905 102.509 45.7329 108.468 49.4829 107.843C46.209 108.265 44.0129 110.951 41.0589 111.537C38.7718 111.991 36.6651 110.078 34.3752 110.274C32.2353 110.457 31.2994 112.002 29.6538 113.131C24.7026 116.53 24.6869 109.59 20.2973 109.398C18.1222 109.303 16.4327 110.941 14.0894 110.475C11.3548 109.931 9.63105 107.53 7.53665 105.824Z" fill="#95C75B"/>
<g opacity="0.59">
<path d="M8.31934 103.196C9.13318 102.836 10.0609 102.71 10.9633 102.776C11.8694 102.838 12.7514 103.06 13.6048 103.329C15.3106 103.872 16.9285 104.631 18.6821 104.962C22.1983 105.655 25.7543 106.239 29.3019 106.739C31.0617 106.952 32.8124 106.323 34.6428 106.287C36.4714 106.206 38.2673 106.533 40.0394 106.76C41.8117 106.964 43.6158 106.725 45.4186 106.671C46.3213 106.646 47.2321 106.661 48.1254 106.803C49.0174 106.941 49.8877 107.224 50.6432 107.675C49.8695 107.251 48.9985 106.996 48.1122 106.878C47.2236 106.758 46.3216 106.764 45.4252 106.811C43.6334 106.891 41.8331 107.159 40.0095 106.978C38.2149 106.783 36.4428 106.453 34.6557 106.547C33.7634 106.58 32.8871 106.726 31.9973 106.875C31.1097 107.019 30.1848 107.128 29.2642 107.022C27.4705 106.766 25.7035 106.479 23.9276 106.178C22.1556 105.872 20.3851 105.554 18.629 105.176C16.8435 104.81 15.2346 104.025 13.553 103.46C12.714 103.174 11.8493 102.934 10.9567 102.852C10.0675 102.768 9.14761 102.864 8.31934 103.196Z" fill="white"/>
</g>
<path d="M34.3319 102.292C32.3822 101.465 31.1026 97.005 29.6203 95.3792C26.8244 92.3126 26.2519 89.2124 25.7466 84.8909C27.813 88.6599 32.7457 85.0825 35.5478 87.1596C37.2841 88.4466 36.6087 89.8456 37.1501 91.611C37.9859 94.3369 38.5439 92.5864 40.3311 94.0457C41.5652 95.0531 41.1245 96.7605 41.9023 97.9688C42.9101 99.5339 43.915 99.1414 45.2744 100.076C48.1512 102.053 47.821 106.206 50.6066 108.442C48.3364 108.675 45.1925 108.916 43.1153 107.64C41.5187 106.66 41.5134 104.987 40.4014 103.664C38.1089 100.938 37.1152 103.472 34.3319 102.292Z" fill="#398645"/>
<g opacity="0.59">
<path d="M28.8865 89.3157C30.1184 89.7084 31.1632 90.5114 31.929 91.4712C32.7021 92.433 33.2724 93.5046 33.88 94.5428C34.1851 95.0591 34.5077 95.5646 34.9041 96.0164C35.3005 96.4673 35.7732 96.8541 36.325 97.1436C36.8708 97.4405 37.4649 97.6816 38.0415 97.9614C38.6184 98.2426 39.1864 98.5361 39.7181 98.9012C40.7721 99.6408 41.5671 100.615 42.2937 101.592C43.0196 102.573 43.7095 103.568 44.5365 104.465C45.3682 105.357 46.3494 106.133 47.4334 106.77C48.5112 107.419 49.6867 107.927 50.873 108.404C49.6593 107.987 48.4676 107.503 47.3512 106.888C46.2392 106.269 45.2229 105.5 44.3542 104.609C43.4816 103.717 42.7914 102.705 42.058 101.738C41.3285 100.772 40.542 99.8299 39.5273 99.1277C39.0261 98.7777 38.4649 98.4811 37.9009 98.2021C37.3356 97.9226 36.7434 97.6784 36.1768 97.3658C35.6053 97.0615 35.1 96.643 34.692 96.1704C34.2795 95.698 33.9607 95.1718 33.6663 94.6435C33.0828 93.5896 32.5401 92.5166 31.8044 91.553C31.44 91.071 31.0217 90.62 30.5308 90.2393C30.0412 89.857 29.4841 89.5461 28.8865 89.3157Z" fill="white"/>
</g>
<path d="M141.433 81.2915C141.743 80.071 142.543 78.8502 143.662 78.0918C141.314 78.6902 138.845 78.083 136.493 78.5499C133.777 79.089 133.004 80.8868 130.804 82.087C129.119 83.0066 126.802 82.6307 125.345 83.9376C123.673 85.4368 124.398 87.7543 122.547 89.1948C121.044 90.3642 118.523 90.2772 116.774 91.2584C114.677 92.4353 113.09 94.1102 112.035 96.1034C110.497 99.0088 109.737 103.707 106.259 105.387C109.67 103.606 113.151 103.602 116.677 102.469C120.916 101.107 121.661 96.7497 126.624 96.1573C128.418 95.9434 130.795 96.6972 132.281 95.327C133.922 93.8141 132.35 91.8412 133.178 90.1802C134.131 88.2698 136.635 88.5045 138.306 87.448C140.894 85.8116 140.774 83.8914 141.433 81.2915Z" fill="#489332"/>
<g opacity="0.59">
<path d="M113.786 100.274C115.161 99.9569 116.516 99.5524 117.769 98.9588C119.027 98.3773 120.174 97.6074 121.15 96.6853C123.096 94.8221 124.429 92.5166 125.765 90.2507C126.442 89.118 127.148 87.9703 128.13 87.0047C129.104 86.0332 130.36 85.3173 131.686 84.8418C132.999 84.3427 134.344 83.9222 135.594 83.3238C136.219 83.028 136.818 82.6826 137.366 82.2767C137.914 81.8711 138.412 81.4096 138.863 80.9113C138.024 81.9538 136.916 82.8172 135.667 83.4465C134.416 84.0771 133.075 84.5224 131.781 85.0432C131.134 85.301 130.508 85.588 129.926 85.9414C129.344 86.2937 128.812 86.7101 128.341 87.1796C127.396 88.12 126.709 89.2527 126.042 90.3847C125.367 91.5205 124.685 92.6558 123.928 93.7542C123.17 94.8492 122.337 95.9163 121.322 96.8376C120.308 97.7572 119.124 98.5207 117.838 99.0826C116.548 99.6408 115.177 100.019 113.786 100.274Z" fill="white"/>
</g>
<path d="M114.042 99.2136C115.665 94.823 118.307 92.5839 121.723 90.1395C125.877 87.1676 128.941 84.5612 136.51 86.2058C132.813 87.5473 130.816 90.1472 129.293 92.2048C127.693 94.366 126.129 96.4534 124.439 98.5575C121.019 102.817 115.073 102.489 111.662 107.125C109.812 104.839 113.206 101.476 114.042 99.2136Z" fill="#1F4E39"/>
<path d="M108.729 112.428C111.537 112.655 114.303 113.339 117.135 113.147C120.944 112.89 126.837 112.198 130.408 111.261C134.746 110.121 137.174 108.489 141.948 108.724C139.109 103.724 131.451 101.979 125.692 104.01C122.104 105.274 119.597 108.658 115.978 109.921C113.393 110.822 110.487 110.923 107.803 110.559C108.099 111.157 108.342 111.892 108.729 112.428Z" fill="#489332"/>
<path d="M117.166 103.491C123.877 97.2235 133.75 87.288 143.661 90.9145C138.126 91.0591 136.627 97.7298 132.033 99.6007C129.465 100.647 126.515 100.08 123.852 100.683C121.514 101.213 119.241 102.249 117.166 103.491Z" fill="#398645"/>
<path d="M136.665 103.444C137.808 102.105 139.328 101.096 141.016 100.745C138.709 100.305 136.875 98.6916 134.716 97.8625C131.85 96.7617 130.738 97.7458 128.043 98.5205C125.891 99.1389 124.257 97.962 122.198 98.1962C119.579 98.4942 119.87 100.08 118.164 101.677C115.472 104.197 111.516 101.28 108.123 103.461C105.598 105.084 103.617 110.798 100.271 110.738C103.362 110.65 106.104 113.036 108.919 112.815C110.733 112.673 112.121 111.033 113.961 110.905C116.354 110.739 117.593 112.893 119.715 113.345C123.816 114.22 122.882 108.482 126.752 108.254C128.528 108.149 129.951 109.096 131.779 108.42C134.091 107.565 135.131 105.244 136.665 103.444Z" fill="#95C75B"/>
<path d="M119.297 99.7883C121.612 98.3231 121.52 93.6076 123.118 91.3032C124.62 89.1357 125.658 88.952 126.344 85.9537C126.959 83.2671 127.056 80.2561 127.152 77.4911C125.245 82.3038 120.032 80.3874 117.167 83.3124C115.435 85.0803 115.767 85.1191 115.334 87.3433C114.687 90.67 113.846 88.7969 112.085 90.767C110.857 92.1404 111.442 94.1678 110.709 95.7377C109.776 97.7386 108.596 97.4876 107.225 98.7957C104.301 101.584 104.937 106.623 102.14 109.7C104.636 109.632 107.793 109.413 109.928 107.758C111.808 106.301 111.663 104.457 112.82 102.375C114.849 98.7227 116.506 101.554 119.297 99.7883Z" fill="#398645"/>
<g opacity="0.59">
<path d="M102.787 109.182C103.52 109.341 104.299 109.263 104.969 108.971C105.643 108.681 106.195 108.204 106.678 107.693C107.641 106.658 108.357 105.45 109.02 104.232C109.679 103.009 110.293 101.764 110.943 100.53C111.27 99.9138 111.607 99.3003 111.982 98.7027C112.359 98.1069 112.769 97.5204 113.292 97.0027C113.82 96.5021 114.383 96.048 114.952 95.5988C115.52 95.151 116.093 94.7137 116.604 94.2257C117.647 93.2625 118.335 92.0402 118.882 90.7798C119.432 89.5162 119.886 88.2047 120.566 86.9759C120.911 86.367 121.312 85.7737 121.839 85.2777C122.359 84.7814 123.044 84.4043 123.796 84.3176C123.049 84.4359 122.396 84.8301 121.9 85.3296C121.399 85.8316 121.024 86.4263 120.704 87.0375C120.059 88.2646 119.634 89.5755 119.107 90.8585C118.593 92.1424 117.875 93.4025 116.811 94.4037C116.289 94.9083 115.712 95.3547 115.149 95.8036C114.587 96.2523 114.03 96.7104 113.521 97.197C113.023 97.683 112.616 98.2538 112.242 98.8379C111.868 99.4244 111.53 100.031 111.2 100.643C110.54 101.866 109.931 103.116 109.235 104.33C108.542 105.542 107.797 106.75 106.793 107.785C106.284 108.29 105.703 108.761 105.003 109.039C104.308 109.321 103.51 109.371 102.787 109.182Z" fill="white"/>
</g>
<g opacity="0.59">
<path d="M102.581 110.495C103.931 110.5 105.283 110.618 106.627 110.57C107.297 110.547 107.966 110.48 108.612 110.33C109.258 110.181 109.877 109.948 110.45 109.644C111.029 109.346 111.538 108.949 112.067 108.568C112.592 108.184 113.108 107.787 113.661 107.421C114.21 107.055 114.815 106.726 115.488 106.549C116.158 106.364 116.865 106.328 117.549 106.378C118.241 106.435 118.89 106.563 119.546 106.539C120.199 106.523 120.83 106.345 121.315 105.943C121.811 105.56 122.225 105.062 122.707 104.625C123.184 104.178 123.708 103.779 124.285 103.433C124.892 103.097 125.588 102.978 126.261 102.91C126.94 102.845 127.616 102.834 128.288 102.801C128.959 102.768 129.634 102.719 130.272 102.531C130.906 102.349 131.49 101.973 131.806 101.422C131.659 101.699 131.45 101.951 131.188 102.149C130.926 102.349 130.619 102.495 130.299 102.602C129.655 102.815 128.972 102.886 128.299 102.94C127.624 102.989 126.948 103.011 126.285 103.089C125.625 103.167 124.96 103.3 124.414 103.619C123.874 103.961 123.363 104.361 122.901 104.797C122.431 105.228 122.03 105.723 121.499 106.141C121.24 106.354 120.927 106.525 120.594 106.636L120.341 106.713C120.255 106.733 120.167 106.745 120.081 106.76C119.907 106.798 119.733 106.8 119.558 106.811C118.861 106.84 118.175 106.711 117.524 106.662C116.865 106.61 116.2 106.641 115.573 106.809C114.943 106.97 114.367 107.276 113.827 107.631C113.285 107.984 112.766 108.378 112.237 108.76C111.708 109.138 111.177 109.537 110.569 109.833C109.97 110.136 109.324 110.364 108.658 110.504C107.991 110.645 107.308 110.702 106.63 110.709C105.271 110.71 103.929 110.565 102.581 110.495Z" fill="white"/>
</g>
<path d="M48.5826 120.765L6.72144 110.396L98.096 99.3109L139.957 109.68L48.5826 120.765Z" fill="#FBDFAD"/>
<path d="M126.918 108.774L64.6028 116.196C56.0633 117.146 51.3598 117.86 44.0459 115.409C40.5561 114.24 37.5129 115.031 37.5129 115.031C37.5129 115.031 38.8349 113.531 37.2166 112.659C34.3278 111.104 34.6746 109.898 35.7625 109.773L98.078 102.35L126.918 108.774Z" fill="#F49F0A"/>
<path d="M98.0966 99.3108L139.958 109.68L48.5832 120.765L6.72202 110.396L98.0966 99.3108ZM98.1873 98.0764L97.9199 98.1089L6.54532 109.194L-0.000244141 109.988L6.37082 111.566L48.232 121.936L48.4922 122L48.7596 121.967L140.134 110.882L146.68 110.088L140.309 108.51L98.4475 98.1405L98.1873 98.0764Z" fill="white"/>
<path d="M92.1598 105.953C94.4055 105.498 96.4314 105.497 98.6862 104.889C100.941 104.28 103.813 104.644 105.738 104.729C107.662 104.814 109.61 104.503 109.647 103.871C109.647 103.871 108.939 103.341 108.272 103.262C107.605 103.182 106.846 102.597 105.959 102.106C105.072 101.616 100.343 97.8599 98.5352 97.4979C96.7274 97.136 96.3787 97.873 94.7629 98.3534C93.1472 98.834 89.9637 100.145 89.7804 100.194C89.5968 100.242 92.1598 105.953 92.1598 105.953Z" fill="#F7B2A1"/>
<path d="M63.0204 108.332C65.6735 109.623 69.2123 110.748 72.478 110.464C75.744 110.181 85.2217 108.143 87.8584 107.512C90.4952 106.881 94.2452 106.314 94.8717 106.172C95.4981 106.03 96.1133 102.587 95.7241 100.454C95.3346 98.321 95.1541 97.89 95.1541 97.89C95.1541 97.89 79.2113 100.912 76.2989 101.376C73.3866 101.84 66.7789 103.042 66.7789 103.042C66.7789 103.042 60.3674 107.04 63.0204 108.332Z" fill="white"/>
<path d="M69.6649 106.774C73.5006 106.097 77.3291 105.764 81.2326 105.438C86.1003 105.031 90.9052 104.299 95.7308 103.695C95.8704 102.628 95.8984 101.41 95.7239 100.454C95.3344 98.321 95.1539 97.89 95.1539 97.89C95.1539 97.89 79.211 100.912 76.2987 101.376C73.3864 101.84 66.7787 103.042 66.7787 103.042C66.7787 103.042 62.9866 105.408 62.4446 107.088C65.6259 108.004 66.4482 107.343 69.6649 106.774Z" fill="#DDD1F3"/>
<path d="M102.362 95.1C102.217 97.4691 99.6218 97.0983 97.5177 97.9957C97.2042 98.1297 96.4386 98.3679 95.3656 98.6739C94.9346 98.7972 94.4522 98.9338 93.9309 99.0787C87.0558 100.977 73.1279 104.452 73.1279 104.452L69.6673 106.47L65.6012 107.61L63.0213 108.332C63.0213 108.332 62.8135 108.184 62.5241 107.938C61.8374 107.36 60.6865 106.239 60.6749 105.229C60.6545 103.867 61.7097 102.83 63.214 101.351C63.2984 101.266 63.386 101.179 63.4764 101.091C64.5859 99.9963 68.0223 98.1925 71.1873 96.5835C72.7095 95.8062 74.1684 95.0783 75.2747 94.4924C78.6779 92.6972 86.9889 87.9894 86.9889 87.9894L100.508 87.5071C100.509 87.5074 102.635 90.6603 102.362 95.1Z" fill="white"/>
<path d="M123.747 108.197C121.677 108.355 116.575 108.882 115.948 109.024C115.761 109.067 114.586 109.267 112.958 109.543H112.955C109.151 110.188 102.894 111.251 101.047 111.694C98.4123 112.325 84.7977 113.896 81.5307 114.18C78.2669 114.463 71.6168 113.711 71.6077 110.506C71.5929 105.347 77.577 104.874 80.5217 104.426C85.2895 103.696 106.714 102.926 110.812 102.306C113.263 101.934 114.899 101.686 114.899 101.686C114.899 101.686 117.3 103.042 119.648 104.517H119.651C122.374 106.23 125.022 108.101 123.747 108.197Z" fill="white"/>
<path d="M80.4408 111.582C84.574 110.901 90.3424 109.142 94.3056 107.998C100.078 106.332 103.022 106.087 109.019 105.601C109.001 105.262 108.968 104.935 108.913 104.636C108.524 102.502 108.343 102.071 108.343 102.071C108.343 102.071 92.4004 105.093 89.4881 105.557C86.5758 106.021 77.3348 107.223 77.3348 107.223C77.3348 107.223 72.8993 109.696 73.4153 111.33C75.5558 111.446 78.5454 111.895 80.4408 111.582Z" fill="#DDD1F3"/>
<path d="M80.2234 110.651L73.5759 112.512C73.5759 112.512 71.2477 110.848 71.2295 109.408C71.2113 107.969 72.3926 107.192 74.0335 105.571C75.6747 103.951 81.6095 101.781 85.0126 99.9843C88.4158 98.1876 100.18 92.1709 100.18 92.1709L113.7 91.6871C113.7 91.6871 115.091 93.7149 114.818 98.1536C114.736 99.4843 115.029 101.468 113.109 102.655C112.373 103.111 110.57 103.478 109.647 103.871C107.543 104.766 86.3186 108.634 86.3186 108.634L80.2234 110.651Z" fill="white"/>
<path d="M123.747 108.197C121.677 108.355 116.574 108.881 115.948 109.024C115.761 109.067 114.586 109.267 112.958 109.543H112.955C111.345 109.553 109.86 109.536 108.609 109.522C103.191 109.462 94.9934 108.848 89.671 109.75C85.8343 110.401 81.955 111.752 78.1491 110.976C77.1485 110.773 76.1966 110.43 75.2443 110.082C74.8768 109.947 74.5093 109.81 74.1414 109.684C73.7708 109.555 73.3973 109.435 73.0175 109.33C71.1343 108.809 69.1454 108.672 67.256 108.175C66.6954 108.03 66.1352 107.844 65.6016 107.61C64.6616 107.199 63.8088 106.646 63.1883 105.925C62.9714 105.673 62.7816 105.402 62.6281 105.109C61.8481 103.624 62.4394 102.524 63.2144 101.352C63.2988 101.267 63.3864 101.179 63.4768 101.092C64.5863 99.9965 68.0227 98.1927 71.1877 96.5837C71.8418 96.5894 72.4987 96.6279 73.1465 96.6721C78.5832 97.0301 84.7487 97.7089 91.1282 98.6508C92.0563 98.788 92.9935 98.9309 93.9307 99.0792C94.4551 99.1616 94.9824 99.2466 95.5066 99.3316C100.635 100.172 105.822 101.173 110.812 102.306C113.849 102.995 116.814 103.733 119.647 104.517H119.65C122.374 106.23 125.022 108.101 123.747 108.197Z" fill="#DDD1F3"/>
<path d="M85.6887 91.3009C91.2761 91.6723 96.8568 92.138 102.464 92.2016C106.683 92.2493 107.928 93.1923 112.114 92.8688C111.848 89.5413 111.997 83.5274 114.079 76.5532C115.603 71.449 116.09 68.1497 113.801 64.2012C113.197 63.1607 104.924 59.0565 104.924 59.0565C104.924 59.0565 100.971 63.5552 96.2972 63.7853C91.9411 64.0015 92.5168 60.1107 92.5168 60.1107L88.9573 65.5618C88.9573 65.5618 86.888 68.7567 86.5176 74.4582C86.3387 77.2018 85.7242 82.6121 85.8673 88.1779C85.7914 89.0869 85.7371 90.1346 85.6887 91.3009Z" fill="white"/>
<path d="M84.611 85.8199C82.6208 91.1318 75.2759 94.4929 75.2759 94.4929C75.2759 94.4929 82.7822 97.6054 85.6863 96.7603C88.5905 95.9154 96.6906 95.9125 100.221 97.8921C102.097 98.944 103.909 99.1625 106.933 101.176C109.599 102.952 113.821 101.808 113.821 101.808C113.821 101.808 115.164 98.0007 114.854 95.1901C114.544 92.3794 112.779 87.9788 112.908 85.7953C113.036 83.6122 114.08 76.5524 114.08 76.5524L86.095 77.2891C86.0947 77.2897 85.9252 82.3124 84.611 85.8199Z" fill="#DDD1F3"/>
<path d="M124.974 107.565C119.969 107.563 114.239 108.656 111.933 108.787C109.095 108.944 105.723 106.571 102.381 105.893C102.053 105.828 101.73 105.773 101.414 105.729C98.1657 105.281 95.5251 105.995 92.7101 106.879C92.707 106.879 92.7042 106.881 92.701 106.881C90.7447 107.494 88.7043 108.192 86.3171 108.634C85.3043 108.823 84.346 108.968 83.4359 109.074C78.8306 109.612 75.5187 109.091 72.9338 107.545C71.8582 106.904 70.8008 106.342 70.2914 106.079C70.2882 106.076 70.2882 106.079 70.2882 106.079C70.0892 105.974 69.975 105.917 69.975 105.917C69.0196 105.763 67.2902 105.313 65.1748 104.576C65.1114 104.554 65.0483 104.529 64.9821 104.507C62.9301 103.781 62.8278 103.545 62.8372 102.71C62.8466 101.809 63.4768 101.091 63.4768 101.091C66.2815 96.9568 70.7097 94.0662 72.941 91.6705C74.3612 90.1511 77.0177 87.0572 79.2464 83.599C80.5311 81.6112 81.6713 79.5054 82.3565 77.509L105.477 64.5221C105.477 64.5221 116.277 68.3716 116.517 70.0177C116.52 70.0205 116.52 70.0231 116.52 70.0259C116.52 70.0368 116.523 70.0479 116.523 70.0616C116.631 70.8477 117.338 73.6387 118.129 76.9913C118.283 77.6431 118.439 78.3142 118.592 78.9962C119.44 82.7077 120.271 86.734 120.474 89.3662C120.582 90.7658 120.913 92.5927 121.352 94.5457C122.678 100.467 124.974 107.565 124.974 107.565Z" fill="#5AB6AF"/>
<path d="M116.176 88.9033C115.004 92.0625 113.61 94.4419 113.61 94.4419C113.61 94.4419 110.886 93.874 108.582 92.4458C106.697 91.2795 105.56 89.3884 102.47 88.0407C102.458 88.035 102.444 88.0293 102.432 88.0233C101.471 87.6057 100.704 86.9235 100.091 86.0886C96.8857 81.7391 85.4957 93.034 84.5614 90.5847C84.5052 90.4378 85.1461 85.2916 84.1543 83.584C82.1638 80.158 82.3574 77.5085 82.3574 77.5085C83.0027 72.1821 85.7468 70.1897 86.5108 68.688C86.6831 68.3457 90.3276 61.8347 90.5373 61.4174C91.0504 60.396 91.6421 59.1877 92.1518 58.0251C92.3542 57.5647 92.545 57.1129 92.7136 56.6814L100.177 53.2771L100.413 53.1707L105.383 50.902C105.383 50.902 108.129 57.2883 110.39 60.2339C112.617 63.1365 115.39 65.1334 116.312 68.3856C116.69 69.7211 117.048 80.8546 117.081 82.5351C117.128 84.7739 116.847 87.0992 116.176 88.9033Z" fill="#5AB6AF"/>
<path d="M99.945 61.179C100.058 60.2149 100.174 59.8492 100.287 58.8854C99.2865 60.6145 97.5776 61.4282 95.394 61.8552C94.4161 62.0466 91.6418 60.0851 92.1512 58.9228C92.8806 59.2913 93.6703 59.5911 94.4933 59.813C94.7101 59.8706 94.9386 59.9254 95.163 59.8908C95.395 59.8592 95.5861 59.7385 95.7657 59.6236C96.8513 58.9131 97.8544 58.1221 98.7492 57.2707C99.3333 56.7156 99.8879 55.2167 100.105 54.5233C100.236 54.1117 100.24 53.6944 100.177 53.2774C100.098 52.7509 99.9077 52.2241 99.7209 51.7118C99.9752 52.1896 100.211 52.6787 100.412 53.171C100.82 54.1408 101.107 56.0342 101.196 57.0502C101.327 58.5808 100.974 59.864 99.945 61.179Z" fill="#2F8F85"/>
<path d="M92.3158 47.907C90.0936 48.3101 89.2945 48.1558 88.965 48.86C88.6354 49.5642 88.1922 52.5977 88.2632 53.7574C88.3341 54.9172 90.0026 58.3597 90.694 59.0847C91.3855 59.8098 93.4912 59.5183 93.4912 59.5183L95.6436 52.2004L92.3158 47.907Z" fill="#2F8F85"/>
<path d="M90.2253 48.9564C89.9645 49.854 89.3455 52.479 89.3182 53.1539C89.2906 53.829 89.7915 54.5148 89.8342 55.4734C89.8769 56.4321 89.5543 57.2818 90.2507 58.4053C90.9472 59.5289 91.8834 60.358 92.3134 60.6667C92.7431 60.9753 94.3017 62.426 95.9865 61.7465C97.6713 61.0674 98.2818 59.7317 98.8414 58.9341C99.401 58.1369 100.367 55.634 100.445 54.0866C100.523 52.5392 97.9243 49.0933 97.9243 49.0933L90.2253 48.9564Z" fill="#F7B2A1"/>
<path d="M98.7629 50.2973C98.3009 49.5939 97.9242 49.0936 97.9242 49.0936L90.2252 48.9564C90.079 49.4604 89.8197 50.5084 89.6157 51.4502C92.6009 50.8469 95.6676 50.5067 98.7629 50.2973Z" fill="#EDF3FC"/>
<path d="M88.9648 48.86C89.1936 49.1446 89.2847 49.7522 90.3565 49.7736C93.2396 49.8312 97.2238 51.7103 98.4984 53.8193C99.0765 54.7757 99.6866 57.1679 99.6866 57.1679L105.379 57.2872C105.379 57.2872 105.611 52.6644 105.381 50.9011C105.152 49.1378 103.615 46.9997 102.866 46.6788C102.117 46.3579 98.0586 45.2021 96.0182 45.4634C93.9778 45.7247 91.2328 47.405 90.0988 48.1323C88.9648 48.86 88.9648 48.86 88.9648 48.86Z" fill="#5AB6AF"/>
<path d="M101.222 57.6832C101.335 56.1686 101.104 54.63 100.412 53.1708C100.412 53.1708 100.623 55.7424 99.6868 57.1683L101.165 58.5363L101.222 57.6832Z" fill="#2F8F85"/>
<path d="M89.7527 67.2415C90.4043 69.4409 92.4918 69.4672 95.1232 68.1765C97.3519 67.0832 100.497 63.204 100.497 63.204C100.497 63.204 96.5855 69.3075 92.9095 69.9378C89.2336 70.5679 89.7527 67.2415 89.7527 67.2415Z" fill="#2F8F85"/>
<path opacity="0.21" d="M93.918 77.0838C91.8798 77.5128 88.7384 77.804 86.5266 76.0059C84.9112 74.6927 84.3569 72.8809 84.3569 72.8809C84.3569 72.8809 83.6401 75.4656 85.9576 76.9885C88.6628 78.7664 93.918 77.0838 93.918 77.0838Z" fill="#DBFCFC"/>
<path d="M84.9309 75.9874C88.0168 78.5995 94.9675 78.1871 98.1579 74.1099C101.348 70.0328 104.068 61.9291 104.068 61.9291C104.068 61.9291 103.115 75.0361 95.4945 79.2404C87.6668 83.5594 84.9309 75.9874 84.9309 75.9874Z" fill="#2F8F85"/>
<path d="M106.881 76.9877C106.881 76.9877 105.566 86.9064 94.8622 95.8475C88.7711 100.936 79.7237 102.425 75.2728 100.931C69.2376 98.9052 73.9192 91.6726 73.9192 91.6726C73.9192 91.6726 73.3555 96.1596 76.6312 97.8405C79.907 99.5213 84.9765 100.327 92.0726 95.8393C99.1683 91.3514 104.058 83.3678 106.881 76.9877Z" fill="#2F8F85"/>
<path d="M87.664 88.0857C87.5162 88.2118 84.0822 91.0807 80.889 88.598C79.7444 87.7101 79.0972 85.708 79.246 83.599C80.5306 81.6112 81.6708 79.5054 82.356 77.509C81.9025 80.9789 80.3074 82.3668 81.5353 86.1196C82.742 89.7957 87.4713 88.1514 87.664 88.0857Z" fill="#2F8F85"/>
<path d="M103.066 104.963C102.568 105.193 102.011 105.452 101.414 105.729C98.1653 105.281 95.5247 105.995 92.7097 106.879C96.0012 105.483 104.049 102.424 108.041 100.643C108.041 100.643 107.026 103.132 103.066 104.963Z" fill="#2F8F85"/>
<path d="M121.352 94.5457C120.785 95.5862 120.127 96.7665 119.382 98.0697C116.218 103.593 111.424 102.728 111.424 102.728C111.424 102.728 114.899 101.686 117.079 99.3781C119.259 97.0729 119.492 94.7231 119.823 90.6614C120.15 86.6025 119.417 82.7707 118.129 76.9913C119.116 81.182 120.231 86.2491 120.474 89.3662C120.582 90.7658 120.913 92.5927 121.352 94.5457Z" fill="#2F8F85"/>
<path d="M118.592 78.9966C118.119 80.3494 117.602 81.809 117.083 83.2494C116.302 85.4266 115.514 87.5624 114.857 89.2439C114.099 91.1772 113.258 92.8173 112.471 94.1399C110.951 96.7001 109.651 98.0664 109.651 98.0664C110.197 97.193 110.897 95.673 111.615 93.8603C113.009 90.3223 114.463 85.6642 114.908 82.5038C115.576 77.7384 116.729 73.5569 116.523 70.062C116.631 70.8481 117.338 73.6391 118.129 76.9917C118.282 77.6434 118.439 78.3143 118.592 78.9966Z" fill="#2F8F85"/>
<path d="M89.5249 107.655C94.8718 106.172 101.914 102.109 107.405 95.0537C111.43 89.8828 113.071 84.0637 113.071 84.0637" stroke="#349B91" stroke-width="0.272765" stroke-miterlimit="10"/>
<path d="M76.2426 106.87C76.0075 106.815 72.9399 106.134 70.2909 106.079C70.2877 106.076 70.2877 106.079 70.2877 106.079C70.0888 105.974 69.9745 105.917 69.9745 105.917C69.0191 105.763 67.2897 105.313 65.1743 104.576C67.543 104.949 69.3361 104.939 70.7193 105.276C72.4581 105.699 75.9837 106.787 76.2426 106.87Z" fill="#2F8F85"/>
</svg>
