<svg width="50" height="50" viewBox="0 0 50 50" fill="none" xmlns="http://www.w3.org/2000/svg">
<g clip-path="url(#clip0_117_494)">
<rect width="50" height="50" rx="25" fill="#FDECCE"/>
<path d="M25.2316 27.0188C22.7798 27.0687 21.166 27.1057 19.9715 27.6014C18.7769 28.0971 25.4915 33.5914 25.4915 33.5914L30.6857 27.6014C30.6857 27.6014 27.5173 26.9722 25.2316 27.0188Z" fill="#5E2935"/>
<path d="M18.2025 29.1701C18.2025 29.1701 22.7606 26.2958 30.442 28.5448L24.4319 34.6712L18.2025 29.1701Z" fill="#EDA970"/>
<path d="M31.1532 27.6292C29.4574 27.4297 25.5426 28.2283 25.403 32.1225C25.403 32.1225 23.7655 28.372 19.9714 27.6011C19.9714 27.6011 9.78668 30.965 5.59271 43.326C1.39915 55.6874 7.42133 61.391 7.19039 63.1761C4.94011 80.5804 0.45929 94.1544 0.45929 94.1544C0.45929 94.1544 22.8755 104.988 47.3392 96.101C47.3392 96.101 42.4665 58.26 41.0398 53.0907C39.6136 47.9223 31.1532 27.6292 31.1532 27.6292Z" fill="#3BB084"/>
<mask id="mask0_117_494" style="mask-type:luminance" maskUnits="userSpaceOnUse" x="0" y="27" width="48" height="73">
<path d="M31.1532 27.6292C29.4574 27.4297 25.5426 28.2283 25.403 32.1225C25.403 32.1225 23.7655 28.372 19.9714 27.6011C19.9714 27.6011 9.78668 30.965 5.59271 43.326C1.39915 55.6874 7.42133 61.391 7.19039 63.1761C4.94011 80.5804 0.45929 94.1544 0.45929 94.1544C0.45929 94.1544 22.8755 104.988 47.3392 96.101C47.3392 96.101 42.4665 58.26 41.0398 53.0907C39.6136 47.9223 31.1532 27.6292 31.1532 27.6292Z" fill="white"/>
</mask>
<g mask="url(#mask0_117_494)">
<path d="M26.1437 34.43C24.4165 31.0898 20.0358 28.4002 18.6341 28.1644C17.4472 27.9648 20.8171 27.0161 20.8171 27.0161C20.8171 27.0161 26.5706 30.0682 26.1437 34.43Z" fill="#C6744F"/>
</g>
<mask id="mask1_117_494" style="mask-type:luminance" maskUnits="userSpaceOnUse" x="0" y="27" width="48" height="73">
<path d="M31.1532 27.6292C29.4574 27.4297 25.5426 28.2283 25.403 32.1225C25.403 32.1225 23.7655 28.372 19.9714 27.6011C19.9714 27.6011 9.78668 30.965 5.59271 43.326C1.39915 55.6874 7.42133 61.391 7.19039 63.1761C4.94011 80.5804 0.45929 94.1544 0.45929 94.1544C0.45929 94.1544 22.8755 104.988 47.3392 96.101C47.3392 96.101 42.4665 58.26 41.0398 53.0907C39.6136 47.9223 31.1532 27.6292 31.1532 27.6292Z" fill="white"/>
</mask>
<g mask="url(#mask1_117_494)">
<path d="M26.1437 34.4299C26.1437 34.4299 22.0861 26.8579 32.2399 26.1426L31.7455 27.6847C29.4731 28.1861 27.6098 30.3036 26.1437 34.4299Z" fill="#C6744F"/>
</g>
<path d="M36.4936 54.1658C36.4936 54.1658 41.2513 62.8104 47.368 61.4851C53.4847 60.1598 47.8778 42.5225 45.4311 38.2409C41.6785 31.6739 31.365 26.3224 31.153 28.8065C30.941 31.2905 31.2262 44.5016 36.4936 54.1658Z" fill="#3BB084"/>
<path d="M8.27606 37.6048C8.27606 37.6048 15.5133 27.2784 13.7334 22.2013C11.0952 14.678 16.2238 1.01745 29.6486 2.63122C37.2419 3.54372 38.634 16.9005 36.4932 22.2013C34.3524 27.5025 43.1092 33.993 42.8525 34.8407C42.5958 35.6884 35.8543 34.3318 33.8169 42.0329C32.776 45.9661 25.7029 54.7443 22.5631 44.6782C21.5097 41.3002 19.49 29.4397 8.27606 37.6048Z" fill="#FCC342"/>
<mask id="mask2_117_494" style="mask-type:luminance" maskUnits="userSpaceOnUse" x="8" y="2" width="35" height="48">
<path d="M8.27606 37.6048C8.27606 37.6048 15.5133 27.2784 13.7334 22.2013C11.0952 14.678 16.2238 1.01745 29.6486 2.63122C37.2419 3.54372 38.634 16.9005 36.4932 22.2013C34.3524 27.5025 43.1092 33.993 42.8525 34.8407C42.5958 35.6884 35.8543 34.3318 33.8169 42.0329C32.776 45.9661 25.7029 54.7443 22.5631 44.6782C21.5097 41.3002 19.49 29.4397 8.27606 37.6048Z" fill="white"/>
</mask>
<g mask="url(#mask2_117_494)">
<g opacity="0.5">
<path d="M28.0057 29.6646C17.5662 29.6646 16.9201 20.5606 16.9149 20.466C16.9104 20.3916 16.9672 20.3284 17.0416 20.324C17.1148 20.3208 17.1792 20.3763 17.1836 20.4507C17.1852 20.4745 17.3385 22.8338 18.8429 25.1005C20.8288 28.0931 24.2756 29.5733 28.7979 29.3782C28.8731 29.3762 28.9351 29.4325 28.9383 29.5069C28.9415 29.5813 28.884 29.6441 28.8096 29.6473C28.536 29.6586 28.2668 29.6646 28.0057 29.6646Z" fill="#C6744F"/>
<path d="M22.993 39.906C22.9391 39.906 22.888 39.873 22.8671 39.8195C22.847 39.7672 20.8168 34.5525 18.136 33.1874C15.4709 31.8303 13.1156 33.0727 13.0919 33.0856C13.0271 33.1206 12.945 33.0969 12.9092 33.0313C12.8738 32.9661 12.8984 32.8844 12.9635 32.8486C12.9881 32.8354 15.4677 31.5266 18.2579 32.9476C21.0308 34.3598 23.0344 39.5049 23.1181 39.723C23.1447 39.7922 23.1101 39.8702 23.0405 39.8968C23.0256 39.9032 23.0091 39.906 22.993 39.906Z" fill="#C6744F"/>
<path d="M23.8171 39.6799C23.7427 39.6799 23.6823 39.6195 23.6823 39.5451C23.6827 36.6097 22.7457 34.6575 21.9591 33.537C21.107 32.3227 20.2427 31.7941 20.2343 31.7892C20.1707 31.751 20.1498 31.6682 20.1884 31.6046C20.2266 31.541 20.3095 31.5201 20.3727 31.5583C20.4085 31.5796 23.9527 33.77 23.9519 39.5455C23.9519 39.6195 23.8911 39.6799 23.8171 39.6799Z" fill="#C6744F"/>
</g>
</g>
<path d="M18.2901 13.3821C18.1452 9.97712 17.3953 5.03963 24.5589 3.54173C31.2256 2.14804 34.0122 4.6912 34.4697 7.71999C34.9267 10.7488 32.8696 18.5211 33.5552 19.8927C34.2407 21.2643 35.4981 26.522 27.8404 26.8648C20.1823 27.2084 18.525 18.9134 18.2901 13.3821Z" fill="#EDA970"/>
<mask id="mask3_117_494" style="mask-type:luminance" maskUnits="userSpaceOnUse" x="18" y="3" width="17" height="24">
<path d="M18.2901 13.3821C18.1452 9.97712 17.3953 5.03963 24.5589 3.54173C31.2256 2.14804 34.0122 4.6912 34.4697 7.71999C34.9267 10.7488 32.8696 18.5211 33.5552 19.8927C34.2407 21.2643 35.4981 26.522 27.8404 26.8648C20.1823 27.2084 18.525 18.9134 18.2901 13.3821Z" fill="white"/>
</mask>
<g mask="url(#mask3_117_494)">
<path d="M19.0683 19.0335C19.0683 19.0335 19.4819 9.6188 28.3981 9.30739C34.1523 9.10663 34.5366 13.0093 34.5366 13.0093L35.855 6.71675L22.7597 4.32727L17.9812 9.30176C17.7611 13.2141 17.2368 17.4744 19.0683 19.0335Z" fill="white"/>
</g>
<mask id="mask4_117_494" style="mask-type:luminance" maskUnits="userSpaceOnUse" x="18" y="3" width="17" height="24">
<path d="M18.2901 13.3821C18.1452 9.97712 17.3953 5.03963 24.5589 3.54173C31.2256 2.14804 34.0122 4.6912 34.4697 7.71999C34.9267 10.7488 32.8696 18.5211 33.5552 19.8927C34.2407 21.2643 35.4981 26.522 27.8404 26.8648C20.1823 27.2084 18.525 18.9134 18.2901 13.3821Z" fill="white"/>
</mask>
<g mask="url(#mask4_117_494)">
<path d="M18.9556 18.5706C17.6472 9.38401 23.6513 5.75814 27.8915 5.83016C31.3359 5.8885 34.3587 9.05087 34.2134 12.447C34.1197 14.6321 35.6526 5.82452 35.6526 5.82452L32.0476 2.06067L22.8015 2.21315L18.5854 4.34795L16.3505 7.64833L16.655 13.8564L15.7224 18.7315" fill="#FCC342"/>
</g>
<path d="M27.9078 22.2014C28.7724 22.2014 29.4343 21.9427 29.4472 21.9374C29.5164 21.9097 29.5494 21.8312 29.522 21.7624C29.4942 21.6932 29.4154 21.6598 29.347 21.6876C29.3245 21.6968 27.0605 22.5776 25.5385 20.9465C25.4878 20.8922 25.4025 20.8893 25.3482 20.94C25.2938 20.9907 25.291 21.076 25.3417 21.1304C26.1343 21.9797 27.108 22.2014 27.9078 22.2014Z" fill="#C6744F"/>
<path d="M39.6634 40.5449C39.6634 40.5449 40.5111 53.6651 37.1548 54.2228C33.7985 54.7804 34.2632 43.3259 34.2632 43.3259L39.6634 40.5449Z" fill="#0F4A49"/>
<path d="M32.0641 23.8069C35.943 23.4629 36.9106 25.947 37.1693 27.0176C37.4389 28.1345 36.6571 36.7324 37.018 37.2526C37.3789 37.7733 39.6638 40.545 39.6638 40.545C39.6638 40.545 39.5508 48.3543 37.5294 48.6505C35.5081 48.947 32.7577 38.4782 32.3505 37.2531C31.9425 36.0283 32.0641 23.8069 32.0641 23.8069Z" fill="#C6744F"/>
<path d="M27.2343 39.7717C24.6855 42.7538 18.197 45.9432 18.197 45.9432C18.197 45.9432 20.2284 52.56 27.7888 53.116L27.2343 39.7717Z" fill="#3BB084"/>
<path d="M27.2342 39.7717C27.2342 39.7717 24.454 53.9722 29.2286 53.5852C34.0031 53.1981 31.6688 38.2939 31.6688 38.2939L27.2342 39.7717Z" fill="#0F4A49"/>
<path d="M29.473 37.0069C29.473 37.0069 31.0115 24.5103 31.2642 23.9687C31.5168 23.4272 36.0584 24.2174 36.262 26.1723C36.4342 27.8263 37.4461 35.0768 33.2811 39.5456L29.473 37.0069Z" fill="#EDA970"/>
<mask id="mask5_117_494" style="mask-type:luminance" maskUnits="userSpaceOnUse" x="29" y="23" width="8" height="17">
<path d="M29.473 37.0069C29.473 37.0069 31.0115 24.5103 31.2642 23.9687C31.5168 23.4272 36.0584 24.2174 36.262 26.1723C36.4342 27.8263 37.4461 35.0768 33.2811 39.5456L29.473 37.0069Z" fill="white"/>
</mask>
<g mask="url(#mask5_117_494)">
<path d="M32.7811 23.7341C31.8541 24.2568 31.5174 30.3103 31.5174 30.3103" stroke="#C6744F" stroke-width="0.226529" stroke-miterlimit="10" stroke-linecap="round"/>
</g>
<mask id="mask6_117_494" style="mask-type:luminance" maskUnits="userSpaceOnUse" x="29" y="23" width="8" height="17">
<path d="M29.473 37.0069C29.473 37.0069 31.0115 24.5103 31.2642 23.9687C31.5168 23.4272 36.0584 24.2174 36.262 26.1723C36.4342 27.8263 37.4461 35.0768 33.2811 39.5456L29.473 37.0069Z" fill="white"/>
</mask>
<g mask="url(#mask6_117_494)">
<path d="M34.1285 24.2653C33.2015 24.7879 32.8647 30.8415 32.8647 30.8415" stroke="#C6744F" stroke-width="0.226529" stroke-miterlimit="10" stroke-linecap="round"/>
</g>
<mask id="mask7_117_494" style="mask-type:luminance" maskUnits="userSpaceOnUse" x="29" y="23" width="8" height="17">
<path d="M29.473 37.0069C29.473 37.0069 31.0115 24.5103 31.2642 23.9687C31.5168 23.4272 36.0584 24.2174 36.262 26.1723C36.4342 27.8263 37.4461 35.0768 33.2811 39.5456L29.473 37.0069Z" fill="white"/>
</mask>
<g mask="url(#mask7_117_494)">
<path d="M35.435 24.9697C34.436 25.6674 34.1712 31.5459 34.1712 31.5459" stroke="#C6744F" stroke-width="0.226529" stroke-miterlimit="10" stroke-linecap="round"/>
</g>
<path d="M29.7611 36.236C29.7611 36.236 27.9876 32.0642 29.1214 30.8346C29.809 30.0891 31.1528 32.4919 31.1528 32.4919L29.7611 36.236Z" fill="#EDA970"/>
<path d="M30.0776 35.9265C29.4616 37.3612 27.2347 39.7716 27.2347 39.7716C26.1508 44.9047 26.43 48.1394 26.43 48.1394C28.4879 45.7178 31.8829 42.452 33.281 39.5451L30.0776 35.9265Z" fill="#EDA970"/>
</g>
<defs>
<clipPath id="clip0_117_494">
<rect width="50" height="50" rx="25" fill="white"/>
</clipPath>
</defs>
</svg>
