<svg width="141" height="109" viewBox="0 0 141 109" fill="none" xmlns="http://www.w3.org/2000/svg">
<path d="M56.4602 25.0834C64.2326 23.7271 72.1391 22.6333 79.5959 19.963C87.4775 17.1406 93.8639 10.807 102.253 9.37568C110.311 8.00108 118.974 10.4656 125.241 15.6733C133.821 22.8034 138.053 34.3555 137.676 45.505C137.3 56.6545 132.698 67.3684 126.156 76.405C117.617 88.2001 106.497 98.0875 93.3314 104.2C73.2076 113.543 39.4442 118.623 21.1235 102.726C11.2415 94.1518 7.49626 79.8904 9.53866 66.9679C13.3673 42.7456 33.083 29.2207 55.7429 25.2094C55.9817 25.1671 56.2208 25.1251 56.4602 25.0834Z" fill="#CEE6F7"/>
<path d="M95.0232 24.5321V105.666H42.4207V24.5321C42.4207 10.985 54.197 0 68.7202 0C83.2468 0 95.0232 10.985 95.0232 24.5321Z" fill="#285672"/>
<path d="M140.309 36.9863V105.891H99.6104V36.9863C99.6104 26.4999 108.721 18.0012 119.96 18.0012C131.198 18.0012 140.309 26.4999 140.309 36.9863Z" fill="#285672"/>
<path d="M37.7023 36.9863V105.891H-3V36.9863C-3 26.4999 6.11456 18.0012 17.3529 18.0012C28.5913 18.0012 37.7023 26.4999 37.7023 36.9863Z" fill="#285672"/>
<path d="M62.7511 23.9034C59.2568 20.6439 59.2568 15.3584 62.7511 12.099C65.3039 9.71772 69.0138 9.07587 72.1906 10.1734C70.2891 10.105 68.3639 10.7472 66.912 12.1016C64.1489 14.6789 64.1489 18.8583 66.912 21.436C69.675 24.0137 74.1551 24.0127 76.9182 21.4353C77.1298 21.2379 77.3256 21.0302 77.5047 20.8153C77.0736 21.9428 76.3738 23.0014 75.4064 23.9037C71.9117 27.1632 66.2458 27.1632 62.7511 23.9034Z" fill="#F0AD1D"/>
<path d="M74.9557 24.297C71.4405 27.1573 66.1006 27.0272 62.7521 23.9037C59.2574 20.6439 59.2574 15.3581 62.7521 12.0999C63.191 11.6905 63.6653 11.3323 64.1651 11.0259C64.0136 11.1497 63.8643 11.2798 63.7195 11.4145C60.2248 14.6743 60.2248 19.9601 63.7195 23.2183C66.7721 26.0657 71.4848 26.4259 74.9557 24.297Z" fill="#E59D0E"/>
<mask id="mask0_332_2515" style="mask-type:luminance" maskUnits="userSpaceOnUse" x="42" y="0" width="54" height="106">
<path d="M68.7161 0.0220947C54.1908 0.0220947 42.4155 11.0057 42.4155 24.5552V105.688H95.0163V24.5552C95.0167 11.0061 83.2413 0.0220947 68.7161 0.0220947Z" fill="white"/>
</mask>
<g mask="url(#mask0_332_2515)">
<path d="M32.1946 29.8594H65.0587C65.0587 29.8594 64.5539 23.8872 56.48 25.6817C56.48 25.6817 55.313 22.7398 50.8028 22.9749C46.2926 23.2103 46.0087 26.4104 46.0087 26.4104C46.0087 26.4104 45.5199 25.2036 43.738 25.3581C42.1672 25.4942 41.7194 26.8291 41.7194 26.8291C41.7194 26.8291 35.2224 26.4322 32.1946 29.8594Z" fill="#3D738E"/>
</g>
<mask id="mask1_332_2515" style="mask-type:luminance" maskUnits="userSpaceOnUse" x="42" y="0" width="54" height="106">
<path d="M68.7161 0.0220947C54.1908 0.0220947 42.4155 11.0057 42.4155 24.5552V105.688H95.0163V24.5552C95.0167 11.0061 83.2413 0.0220947 68.7161 0.0220947Z" fill="white"/>
</mask>
<g mask="url(#mask1_332_2515)">
<path d="M71.9722 37.8863H104.836C104.836 37.8863 104.331 31.9141 96.2573 33.7086C96.2573 33.7086 95.0902 30.7668 90.58 31.0022C86.0698 31.2376 85.786 34.4377 85.786 34.4377C85.786 34.4377 85.2971 33.2309 83.5153 33.3851C81.9444 33.5211 81.4966 34.856 81.4966 34.856C81.4966 34.856 75 34.4591 71.9722 37.8863Z" fill="#3D738E"/>
</g>
<path d="M33.6386 72.2523V89.8573H28.8324V62.4527H29.98C30.5191 62.4527 30.9566 62.045 30.9566 61.5418V59.0532C30.9566 58.763 30.8083 58.5078 30.5821 58.3411L30.6086 58.3163C32.2949 56.7433 32.9055 54.3644 32.1675 52.249C31.3665 49.9529 29.2908 49.3216 27.486 47.8765C26.0772 46.7486 24.862 45.4137 23.8971 43.9342L23.3761 43.1351C21.8307 45.8175 19.5943 47.8061 16.8929 49.4504C13.6647 51.4153 13.4789 55.8307 16.1432 58.3163C16.1432 58.3163 16.1573 58.3295 16.1782 58.349C15.9577 58.516 15.8136 58.7676 15.8136 59.0536V61.5421C15.8136 62.0453 16.2508 62.4531 16.7902 62.4531H17.9406V96.5596C17.9406 96.5632 17.9399 96.5665 17.9399 96.5698V105.891H37.7017V93.0336V89.8573V66.57C35.3163 67.4945 33.6386 69.6902 33.6386 72.2523Z" fill="#1F4C63"/>
<path d="M94.1412 56.9123C91.8988 50.4841 86.0874 48.7167 81.0342 44.6707C77.0907 41.5133 73.6877 37.7753 70.987 33.6336L69.5283 31.3967C65.2018 38.9068 58.9409 44.4743 51.3777 49.0776C45.1858 52.8465 42.9937 59.8354 44.6248 66.1008H42.4214V89.8569V93.0332V105.666H95.0236V93.0332V89.8569V66.1008H94.4696C95.2639 63.1087 95.1889 59.9159 94.1412 56.9123Z" fill="#1F4C63"/>
<path d="M122.006 58.3411L122.033 58.3163C123.719 56.7433 124.33 54.3644 123.592 52.249C122.791 49.9529 120.715 49.3216 118.91 47.8765C117.501 46.7486 116.286 45.4137 115.321 43.9342L114.8 43.1351C113.255 45.8175 111.018 47.8061 108.317 49.4504C105.089 51.4153 104.903 55.8307 107.568 58.3163C107.568 58.3163 107.582 58.3295 107.603 58.349C107.382 58.516 107.238 58.7676 107.238 59.0536V61.5421C107.238 62.0453 107.675 62.4531 108.215 62.4531H109.365V89.8577H104.559V72.2527C104.559 69.3835 102.456 66.9765 99.6106 66.2963V89.8577V93.034V105.891H120.257V96.5701C120.257 96.5675 120.257 96.5649 120.257 96.5622V62.4527H121.405C121.944 62.4527 122.381 62.045 122.381 61.5418V59.0532C122.381 58.7634 122.233 58.5078 122.006 58.3411Z" fill="#1F4C63"/>
<mask id="mask2_332_2515" style="mask-type:luminance" maskUnits="userSpaceOnUse" x="-3" y="18" width="41" height="88">
<path d="M37.7023 36.9863V105.891H-3V36.9863C-3 26.4999 6.11456 18.0012 17.3529 18.0012C28.5913 18.0012 37.7023 26.4999 37.7023 36.9863Z" fill="white"/>
</mask>
<g mask="url(#mask2_332_2515)">
<path d="M-8.63745 47.4866H14.4442C14.4442 47.4866 14.0899 43.292 8.419 44.5526C8.419 44.5526 7.59957 42.4864 4.4316 42.6515C1.26398 42.8169 1.0647 45.0644 1.0647 45.0644C1.0647 45.0644 0.721351 44.2168 -0.530266 44.3251C-1.63357 44.4209 -1.94789 45.3583 -1.94789 45.3583C-1.94789 45.3583 -6.51084 45.0796 -8.63745 47.4866Z" fill="#3D738E"/>
</g>
<mask id="mask3_332_2515" style="mask-type:luminance" maskUnits="userSpaceOnUse" x="-3" y="18" width="41" height="88">
<path d="M37.7023 36.9863V105.891H-3V36.9863C-3 26.4999 6.11456 18.0012 17.3529 18.0012C28.5913 18.0012 37.7023 26.4999 37.7023 36.9863Z" fill="white"/>
</mask>
<g mask="url(#mask3_332_2515)">
<path d="M13.3301 59.9744H36.4117C36.4117 59.9744 36.0574 55.7798 30.3865 57.0404C30.3865 57.0404 29.5671 54.9742 26.3995 55.1396C23.2319 55.305 23.0326 57.5525 23.0326 57.5525C23.0326 57.5525 22.6892 56.705 21.4376 56.8133C20.3343 56.909 20.02 57.8464 20.02 57.8464C20.02 57.8464 15.4567 57.5671 13.3301 59.9744Z" fill="#3D738E"/>
</g>
<mask id="mask4_332_2515" style="mask-type:luminance" maskUnits="userSpaceOnUse" x="99" y="18" width="42" height="88">
<path d="M99.6089 36.9863V105.891H140.311V36.9863C140.311 26.4999 131.197 18.0012 119.958 18.0012C108.72 18.0012 99.6089 26.4999 99.6089 36.9863Z" fill="white"/>
</mask>
<g mask="url(#mask4_332_2515)">
<path d="M145.949 47.4866H122.867C122.867 47.4866 123.222 43.292 128.892 44.5526C128.892 44.5526 129.712 42.4864 132.879 42.6515C136.047 42.8169 136.246 45.0644 136.246 45.0644C136.246 45.0644 136.59 44.2168 137.841 44.3251C138.945 44.4209 139.259 45.3583 139.259 45.3583C139.259 45.3583 143.822 45.0796 145.949 47.4866Z" fill="#3D738E"/>
</g>
<mask id="mask5_332_2515" style="mask-type:luminance" maskUnits="userSpaceOnUse" x="99" y="18" width="42" height="88">
<path d="M99.6089 36.9863V105.891H140.311V36.9863C140.311 26.4999 131.197 18.0012 119.958 18.0012C108.72 18.0012 99.6089 26.4999 99.6089 36.9863Z" fill="white"/>
</mask>
<g mask="url(#mask5_332_2515)">
<path d="M121.837 55.5801H98.7559C98.7559 55.5801 99.1102 51.3856 104.781 52.6459C104.781 52.6459 105.6 50.5796 108.768 50.745C111.936 50.9104 112.135 53.158 112.135 53.158C112.135 53.158 112.478 52.3104 113.73 52.4187C114.833 52.5144 115.148 53.4518 115.148 53.4518C115.148 53.4518 119.711 53.1731 121.837 55.5801Z" fill="#3D738E"/>
</g>
<path opacity="0.5" d="M32.6363 110.246H96.7703C98.1568 110.246 99.2803 109.197 99.2803 107.904C99.2803 106.611 98.1564 105.563 96.7703 105.563H32.6363C31.2499 105.563 30.1264 106.611 30.1264 107.904C30.1264 109.198 31.2499 110.246 32.6363 110.246Z" fill="#A6E2E2"/>
<path d="M79.5841 103.649C79.6142 103.635 85.9533 103.639 85.9533 103.639L88.596 103.74C89.2657 103.766 89.7952 104.247 89.7761 104.814L89.649 108.563C89.625 109.273 88.8908 109.803 88.0551 109.712C87.6109 109.664 87.2134 109.444 86.9787 109.118L86.8032 108.874L79.0878 107.628C79.0878 107.628 77.2026 104.705 79.5841 103.649Z" fill="#F4B1A2"/>
<path d="M60.8676 94.1512L81.4797 93.1977C83.9454 93.2185 86.0575 94.8496 86.5392 97.1053C87.1976 100.187 84.5938 103.032 81.228 102.908L61.5784 102.187L60.8676 94.1512Z" fill="#396F8E"/>
<path d="M41.4376 94.4156L61.18 94.1349L66.54 99.8691L53.0469 107.243L41.4376 94.4156Z" fill="#316389"/>
<path d="M52.0157 95.3385L41.4379 94.4156L40.5285 97.8082C39.598 101.28 41.76 104.82 45.4362 105.844L49.5889 107.001C53.3654 108.053 57.2533 105.701 57.7648 102.056C58.2349 98.7017 55.6261 95.6535 52.0157 95.3385Z" fill="#3F7393"/>
<path d="M79.6523 101.437L53.3556 95.1456C49.8128 94.2462 46.2646 96.4848 45.5227 99.7054C44.7359 103.121 47.5315 106.391 51.4212 106.605L79.2774 108.109L79.6257 107.708C80.8487 106.302 80.791 102.903 79.6523 101.437Z" fill="#4B7DA3"/>
<path d="M66.2163 109.089L65.5572 108.806C63.0604 107.732 61.4389 105.424 61.3794 102.86L66.2149 103.879L66.2163 109.089Z" fill="#3E7391"/>
<path d="M66.4535 108.698L65.8419 108.398C63.6059 107.3 62.1861 105.155 62.1355 102.798L62.1352 102.783L66.634 103.671L66.4535 108.698Z" fill="#2D637A"/>
<path d="M64.6342 106.908C64.7422 106.894 69.6775 105.615 69.6141 105.29C69.5508 104.964 67.0447 101.157 67.0447 101.157L62.0652 102.911L64.6342 106.908Z" fill="#EA9F92"/>
<path d="M45.3095 108.805C45.6032 109.67 46.3643 109.859 47.051 109.829C47.7589 109.799 48.4208 109.486 48.9057 109.007L49.2632 108.657L51.1145 108.746L51.1676 108.749L58.3884 109.099C58.5335 109.106 58.6751 109.109 58.8202 109.109C60.9865 109.109 63.0714 108.323 64.6359 106.907C64.7668 106.455 64.7067 105.976 64.466 105.563C64.1368 104.992 63.6837 104.213 63.5492 103.975C63.4359 103.767 62.5298 103.159 61.7936 102.981C61.0325 102.799 60.6538 102.846 59.8751 102.955L59.0539 103.074L53.6488 102.007C53.3267 101.944 53.0011 101.905 52.6754 101.892L51.9003 101.855C51.1534 101.819 50.4313 102.076 49.9039 102.568C48.265 104.097 44.8596 107.481 45.3095 108.805Z" fill="#F4B1A2"/>
<path d="M78.6024 93.9577L61.3796 102.86L62.6174 103.602C64.6534 104.821 65.979 106.843 66.2165 109.089L83.0297 103.574C86.5244 102.428 87.9509 98.5356 85.9397 95.6337C84.3564 93.3499 81.1378 92.6146 78.6024 93.9577Z" fill="#4175A0"/>
<path d="M88.0012 87.8238C88.0012 87.8238 87.9552 91.8021 83.7572 92.3763L83.0185 87.3943L88.0012 87.8238Z" fill="#2F7F62"/>
<path d="M87.5857 87.7789C87.5857 87.7789 87.5432 91.4504 83.6687 91.9804L82.9866 87.382L87.5857 87.7789Z" fill="#276B51"/>
<path d="M73.5947 81.7343C73.5947 82.6489 73.9912 83.5866 74.7734 84.3064L81.9412 89.5661L84.6526 91.5571L86.079 92.6037L88.7939 89.7213L87.4029 88.1761L86.4047 87.0667L79.7042 79.6212C78.2211 78.2609 75.9132 78.208 74.554 79.5023C73.9098 80.1132 73.5947 80.9155 73.5947 81.7343Z" fill="#F4B1A2"/>
<path d="M81.881 89.4705C81.881 89.4705 81.9023 89.5035 81.9412 89.5662L84.9495 91.7751C84.7042 89.069 87.5271 88.3145 87.5271 88.3145L86.4047 87.0668L81.881 89.4705Z" fill="#EA9F92"/>
<path d="M59.9531 66.8236C60.0381 67.484 60.3036 68.1344 60.7531 68.7155C60.8062 68.7783 60.8593 68.841 60.9088 68.9037C61.4221 69.5113 61.9318 70.1155 62.4415 70.723C63.5671 72.0602 64.675 73.4172 65.7829 74.7809C65.7829 74.7809 65.7829 74.7842 65.7865 74.7875C65.921 74.9526 66.0555 75.1176 66.1935 75.2827C68.4801 78.0991 70.7809 80.9221 73.248 83.5702C73.2515 83.5735 73.2516 83.5767 73.2516 83.5767C75.032 85.4852 77.3646 87.0799 79.3893 88.7572C80.8441 89.9624 82.3024 91.1708 83.7572 92.3759L83.8421 91.95L84.0156 91.0883L84.0333 91.0024C84.3412 89.4638 85.5943 88.2752 87.1765 87.9252C87.311 87.8955 87.4455 87.8723 87.5835 87.8558C87.7216 87.8393 87.8596 87.8261 88.0012 87.8228C84.8722 84.4781 81.8564 80.9816 78.4973 77.8482C77.8602 77.2572 77.4142 76.4945 76.8974 75.8143C73.963 71.9348 71.0782 68.0255 68.1686 64.1327C67.4996 63.1092 66.4307 62.4455 65.2626 62.221C64.2396 62.0229 63.1353 62.1615 62.1583 62.6799C60.5301 63.5483 59.7262 65.2157 59.9531 66.8236Z" fill="#2F7F62"/>
<path d="M65.783 70.4324V74.7809C65.783 74.7809 65.783 74.7842 65.7865 74.7875C65.8113 74.8304 65.9493 75.0714 66.1723 75.4511C66.1829 75.3653 66.19 75.3091 66.1936 75.2827C68.4802 78.0991 70.7809 80.9221 73.248 83.5701C73.0711 83.3258 67.1758 76.4912 66.5581 72.6677C66.4045 71.7185 65.8714 71.0135 65.783 70.4324Z" fill="#276B51"/>
<path d="M90.241 89.8932C90.6881 90.2165 91.0966 90.5889 91.516 90.9409C92.2345 91.5434 92.918 92.1906 93.4069 92.9748C94.8312 95.2596 94.7661 98.5207 92.6997 100.462C92.5492 100.603 92.3843 100.74 92.1836 100.808C91.9829 100.877 91.7383 100.864 91.5794 100.731C91.4169 100.594 91.3811 100.368 91.3935 100.164C91.4303 99.5634 91.7861 99.0246 91.9613 98.4454C92.1786 97.7276 92.1128 96.956 91.9061 96.2359C91.7478 95.6858 91.5015 95.1453 91.0884 94.7257C90.5737 94.203 89.9766 94.1218 89.2747 93.999C88.8999 93.9333 88.56 94.2238 88.6064 94.5768C88.7285 95.5132 88.776 97.1036 87.8319 97.7098C87.273 98.0687 86.5138 97.6418 86.5502 97.0098L86.62 95.8073C86.6398 95.4646 86.5885 95.2731 86.4802 95.108C86.1113 94.5477 85.2512 93.1702 85.1861 92.4118C84.9924 90.156 87.1191 88.2598 89.469 89.4207C89.7433 89.5561 89.9978 89.7172 90.241 89.8932Z" fill="#F4B1A2"/>
<path d="M41.7312 91.8674L41.4374 94.4164L46.5663 94.8984C46.6194 94.9051 46.669 94.9084 46.715 94.9117L46.8353 94.9216L46.9982 94.9381L49.9219 95.2121L50.7926 95.2947C50.9165 95.3046 51.0369 95.3178 51.1608 95.3244C51.3554 95.3442 51.5537 95.3574 51.7484 95.3673C51.8545 95.3739 51.9643 95.3805 52.0705 95.3838C52.1165 95.3871 52.1625 95.3904 52.2085 95.3904C52.3111 95.3937 52.4173 95.4003 52.52 95.4036H52.5306C52.5377 95.4036 52.5448 95.4069 52.5518 95.4036C52.6049 95.4069 52.6545 95.4102 52.7076 95.4102C52.7465 95.4135 52.789 95.4135 52.8279 95.4135H52.8633C53.0863 95.4234 53.3093 95.4267 53.5323 95.43H54.2296C54.3323 95.43 54.4349 95.43 54.534 95.4267C54.6544 95.43 54.7747 95.4267 54.8951 95.4267H55.1004C56.0349 95.4201 56.9622 95.4003 57.8825 95.3541C58.9126 95.3013 59.9355 95.2121 60.9479 95.0569C61.2629 95.0107 61.5779 94.9546 61.8894 94.8951C62.3389 94.8093 62.7885 94.7069 63.2309 94.5881C63.8822 94.4164 64.53 94.2051 65.1671 93.9541C65.1707 93.9541 65.1707 93.9508 65.1742 93.9508L64.6008 89.3416C64.576 88.985 64.5902 88.6218 64.6432 88.2652C64.6432 88.2652 65.9706 77.026 66.1724 75.4511C66.183 75.3652 66.1901 75.3091 66.1936 75.2827C66.1972 75.2761 66.1972 75.2695 66.1972 75.2695L66.5582 72.6677L67.1458 68.4415L67.3582 66.9028L59.9532 66.8236L48.3432 66.7014L43.0019 66.6453L41.1825 66.6255L41.4905 70.931L42.2409 81.348L42.4356 84.0357L42.5134 85.1285L42.4993 85.2639L42.2904 87.0502L41.7347 91.8542C41.7347 91.8575 41.7312 91.8641 41.7312 91.8674Z" fill="#2F7F62"/>
<path d="M41.4366 94.4164L50.7919 95.2946C50.9157 95.3045 51.0361 95.3178 51.16 95.3244C51.3547 95.3442 51.5529 95.3574 51.7476 95.3673C51.8998 95.3772 52.0555 95.3871 52.2077 95.3904C52.4166 95.4003 52.6218 95.4102 52.8271 95.4135C50.5476 93.1683 43.6737 85.4356 42.4348 84.0356L42.5127 85.1285L42.2897 87.0502L41.4366 94.4164Z" fill="#276B51"/>
<path d="M46.9978 94.9384C46.9978 94.9384 40.9525 94.135 40.3589 98.6878C40.3589 98.6878 39.9015 98.8311 39.8962 97.8875C39.8909 96.9435 40.9716 95.531 41.7315 91.8691C42.4918 88.2067 46.9978 94.9384 46.9978 94.9384Z" fill="#276B51"/>
<path d="M49.3291 69.1166L51.254 82.0579C51.3032 82.739 51.5831 83.3875 52.0536 83.9105L58.0702 90.5989C58.433 91.0023 58.593 91.53 58.5092 92.0506C58.3746 92.8834 58.0217 94.0621 57.0954 94.4157C54.9755 95.2246 45.3902 83.8019 45.3902 83.8019L49.3291 69.1166Z" fill="#276B51"/>
<path d="M45.1569 67.5632L64.3842 69.1976C65.4015 69.2841 66.2952 69.0233 66.9971 68.5504C69.3567 66.9613 68.7719 63.512 66.0641 62.5178C64.7629 62.04 63.5701 61.5817 62.4374 61.1743C61.8392 60.9597 61.2339 60.7715 60.6215 60.613C57.4429 59.7909 54.0874 59.7314 50.8769 60.4347C50.1584 60.5899 49.4434 60.7847 48.7425 61.0158L44.0454 62.4752C41.0088 63.4855 41.8547 67.2826 45.1569 67.5632Z" fill="#2F7F62"/>
<path d="M57.5786 91.6327C57.5134 92.3574 57.0115 95.0157 53.1523 96.1478C52.9547 96.2056 52.7519 96.0706 52.7385 95.8781L52.3831 90.8502L57.3966 91.4257C57.5078 91.4382 57.5881 91.5287 57.5786 91.6327Z" fill="#2F7F62"/>
<path d="M57.0949 91.1783C57.0949 91.1783 57.1495 94.5785 52.5079 95.749L53.0382 91.5954L57.0949 91.1783Z" fill="#276B51"/>
<path d="M43.4261 84.9766C43.4261 85.7823 43.7411 86.611 44.3783 87.2912L50.2116 92.1084L53.9884 95.2286L55.9989 96.8894L59.2341 94.2513L56.9652 91.699L55.2485 89.7675L49.3975 83.1904C48.0807 81.7871 45.8897 81.5692 44.5022 82.7017C43.7868 83.2861 43.4261 84.1149 43.4261 84.9766Z" fill="#F4B1A2"/>
<path d="M53.9885 95.2286C53.4823 93.099 56.9653 91.699 56.9653 91.699L55.2486 89.7675L50.2117 92.1085L53.9885 95.2286Z" fill="#EA9F92"/>
<path d="M41.1821 66.6255L41.7767 75.286C41.7767 75.286 41.7767 75.2893 41.7767 75.2926L42.4138 84.6101C42.4422 84.9931 42.4988 85.3728 42.6121 85.7426C42.736 86.1356 42.9094 86.5252 43.1784 86.9478C43.6987 87.7699 44.35 88.5194 45.0792 89.1897L52.7906 96.023L52.8629 95.4069C52.9938 94.281 53.5672 93.2905 54.4132 92.5839C55.2592 91.874 56.3006 91.4771 57.5146 91.4771L50.6332 83.999C50.3752 83.7226 50.2336 83.368 50.2347 83.0012L49.3413 69.3719C49.3483 67.1333 46.0084 61.865 46.0084 61.865C42.4443 62.6201 41.0086 64.2185 41.1821 66.6255Z" fill="#2F7F62"/>
<path d="M61.448 93.4136L57.9137 92.4198C57.5428 92.3155 57.1481 92.3026 56.7747 92.3983C55.9542 92.6087 54.7836 93.2941 55.1089 95.5132C55.1751 95.9642 55.6324 96.4968 55.837 96.9016C56.1991 97.6184 56.4805 98.3676 56.9329 99.0454C57.6875 100.175 58.828 100.891 60.1794 101.283C61.6268 101.702 62.7995 101.035 64.0932 100.518C64.0932 100.518 66.664 101.105 67.0835 100.492C67.2513 100.247 67.2446 100.019 67.1762 99.8332C67.0807 99.5734 66.8485 99.3769 66.5713 99.2838L65.7813 99.0184C64.9849 98.7509 64.2249 98.3966 63.5173 97.9635L62.7216 97.4764C62.22 97.1694 61.8597 96.6986 61.7114 96.1561C61.6841 96.056 61.8218 95.9913 61.8905 96.0725C62.385 96.6596 62.9804 97.2265 63.6993 97.5712C64.1842 97.8037 66.0945 98.2306 66.183 97.3285C66.2234 96.9168 65.2008 96.4106 64.8995 96.168C64.2288 95.6271 63.6161 95.0269 63.0497 94.3913C62.6335 93.9241 62.0717 93.589 61.448 93.4136Z" fill="#F4B1A2"/>
<path d="M55.9658 46.1925L51.3802 45.789L50.9332 51.1276C50.7583 53.6419 52.3632 55.9825 54.8997 56.8486C54.9255 56.8575 54.9514 56.8661 54.9776 56.875L55.9658 46.1925Z" fill="#142E4C"/>
<path d="M65.1278 51.7827L66.4417 51.9009C67.2926 51.9775 68.0338 51.5447 68.0972 50.9339L68.4922 47.8378L65.6152 47.5786L65.1278 51.7827Z" fill="#285E71"/>
<path d="M55.716 64.0402L55.9143 64.06C57.5779 64.2086 59.0893 63.2378 59.5672 61.8016C59.5884 61.7388 59.6096 61.6794 59.6238 61.6167C59.6663 61.4615 59.6946 61.3063 59.7123 61.1412L59.7158 61.1148L60.4875 53.6495L60.5264 53.25C60.714 51.4671 59.3088 49.8789 57.4009 49.7072L57.1992 49.6874C55.8824 49.5719 54.6683 50.1497 53.9816 51.1039C53.9285 51.1765 53.8825 51.2458 53.8365 51.3218C53.8294 51.3317 53.8223 51.3449 53.8153 51.3548C53.5887 51.7279 53.4436 52.1538 53.3976 52.6095L53.3516 53.0651L52.5835 60.4974C52.3994 62.2836 53.8011 63.8685 55.716 64.0402Z" fill="#F4B1A2"/>
<path d="M59.4681 61.6035L59.6238 61.6167C59.6663 61.4615 59.6946 61.3063 59.7123 61.1412L59.7158 61.1148L60.4875 53.6495L60.5264 53.25C60.714 51.4671 59.3088 49.8789 57.4009 49.7072L57.1992 49.6874C55.8824 49.5719 54.6683 50.1497 53.9816 51.1039C53.9285 51.1765 53.8825 51.2458 53.8365 51.3218L53.4755 54.8151C53.1211 58.2357 55.8045 61.2733 59.4681 61.6035Z" fill="#EA9F92"/>
<path d="M59.5608 60.7978L59.9421 60.8315C63.6052 61.1607 66.8635 58.6583 67.2164 55.2396L67.8677 48.9544L67.9455 48.1953C68.3006 44.7784 65.6161 41.7411 61.9529 41.4096L61.5713 41.3759C57.9085 41.0467 54.6499 43.5491 54.297 46.9678L54.2068 47.8404L53.5682 54.0104C53.2132 57.429 55.8977 60.4663 59.5608 60.7978Z" fill="#F4B1A2"/>
<path d="M53.0385 51.4536L54.3744 51.5738C55.2253 51.6504 55.9818 51.0689 56.0639 50.2752L56.5552 46.2494L53.6782 45.9902L53.0385 51.4536Z" fill="#142E4C"/>
<path d="M51.9123 51.3044C52.2797 52.6521 53.4875 53.5288 54.6092 53.2623C55.7313 52.9962 56.3429 51.6877 55.9751 50.3402C55.6077 48.9925 54.4 48.1158 53.2783 48.3823C52.1566 48.6484 51.5449 49.9569 51.9123 51.3044Z" fill="#F4B1A2"/>
<path d="M55.7867 54.722C56.1916 54.7583 56.5516 54.482 56.5905 54.1042L57.4705 46.3213L56.0043 46.1893L55.1244 53.9722C55.0851 54.3496 55.3817 54.6854 55.7867 54.722Z" fill="#142E4C"/>
<path d="M55.5169 50.3931L56.8308 50.5113C57.6818 50.5879 58.423 50.155 58.4863 49.5442L58.8813 46.4482L56.0047 46.189L55.5169 50.3931Z" fill="#142E4C"/>
<path d="M51.3661 47.193C51.8085 47.3481 52.2439 47.4934 52.6686 47.6288C61.6239 50.4848 66.8768 49.1509 68.3528 48.6391C68.6147 48.5467 68.7988 48.3288 68.8236 48.0679L68.8837 47.4736C69.351 42.9865 65.8255 39.0013 61.0151 38.5655L60.516 38.5192C59.5143 38.4301 58.5374 38.4994 57.6135 38.7107C54.0916 39.5065 51.3307 42.3097 50.9661 45.8624L50.8988 46.493C50.867 46.7968 51.0581 47.0873 51.3661 47.193Z" fill="#86C5DB"/>
<path d="M51.3658 47.1929C51.8083 47.3481 52.2437 47.4934 52.6684 47.6287C51.9569 43.1582 55.2346 40.2163 57.6133 38.7107C54.0913 39.5064 51.3304 42.3096 50.9658 45.8623L50.8986 46.4929C50.8667 46.7967 51.0579 47.0873 51.3658 47.1929Z" fill="#6FB6C9"/>
<path d="M65.942 99.8189L71.3347 99.5696L95.2605 109.507L89.6488 109.412L65.942 99.8189Z" fill="#57AEA2"/>
<path d="M70.1753 110.268L74.6869 110.524L80.6055 105.94L83.2829 104.521L84.7579 103.738L95.6897 97.9426L90.1679 98.1975L81.9329 102.565L80.4979 103.326L80.4597 103.345H80.4579L77.8499 104.729L77.7908 104.761L69.2366 109.306L70.1753 110.268Z" fill="#70C8BD"/>
<path d="M69.2367 109.307L73.7536 109.562L80.5848 105.93L83.2537 104.509L83.3064 104.48L83.202 104.486H83.1977L77.9474 104.677L69.2367 109.307Z" fill="#57AEA2"/>
<path d="M70.0178 98.1697L80.6742 102.593L89.8787 97.7121L90.2429 98.2136L81.2519 102.978L80.6891 102.77L80.2378 103.07L69.7059 98.7006L70.0178 98.1697Z" fill="#57AEA2"/>
<path d="M70.0177 98.1698L80.5244 102.51C80.4922 101.151 79.374 100.233 78.0934 99.7811C77.4396 99.5506 76.7143 99.4707 76.0358 99.3086C74.7821 99.0091 73.5453 98.6172 72.2845 98.3445L70.0177 98.1698Z" fill="#EDF1C5"/>
<path d="M94.4641 97.4935L89.8559 97.7062L81.8927 101.929L84.4898 102.773L94.4641 97.4935Z" fill="#DBE9B0"/>
<path d="M92.0815 97.8188C91.2935 97.9984 90.6008 98.4312 89.8472 98.698C87.8495 99.4053 84.2946 100.165 84.5081 102.773L94.4644 97.4935L92.0815 97.8188Z" fill="#EDF1C5"/>
<path d="M89.8557 97.7062C88.952 98.0096 88.0512 98.3206 87.1369 98.5963C85.7979 99.0001 84.1088 99.1174 83.06 100.072C82.8348 100.277 82.6448 100.517 82.5237 100.789C82.4773 100.893 82.3871 101.677 82.3765 101.683L89.8557 97.7062Z" fill="#DBE9B0"/>
<path d="M72.9813 97.9882L84.5078 102.772L94.4641 97.4932L94.8577 98.0354L85.3445 103.077C85.2107 103.148 85.0497 103.158 84.9063 103.106L84.5237 102.965L84.2536 103.144C84.1184 103.233 83.9428 103.25 83.7913 103.187L72.6436 98.5623L72.9813 97.9882Z" fill="#57AEA2"/>
<path d="M73.0542 98.0185L84.4897 102.772C84.4579 101.437 83.3603 100.263 82.0414 99.8328C81.2899 99.5878 80.4535 99.6033 79.6755 99.4508C78.8139 99.2817 78.0065 98.9978 77.1804 98.7274C76.5939 98.5352 76.0038 98.3447 75.3978 98.2136L73.0542 98.0185Z" fill="#EDF1C5"/>
<path d="M83.8687 103.212L80.2377 103.07L69.7058 98.7007L72.6441 98.5627L83.8687 103.212Z" fill="#3E7D71"/>
<path d="M72.9812 97.9882L70.0175 98.1698L69.7056 98.7007L72.6439 98.5627L72.9812 97.9882Z" fill="#18937C"/>
<path d="M71.3347 99.5697L72.0458 98.4698L96.0103 108.455L95.2606 109.507L71.3347 99.5697Z" fill="#93D3CD"/>
<path d="M73.7541 109.562L74.6872 110.522V110.524L74.6914 110.524L82.147 106.585L84.8307 105.164L86.3036 104.381H86.3057L96.4429 99.0087L95.69 97.9426L84.7582 103.738L83.2832 104.521L80.6058 105.94L73.7541 109.562Z" fill="#93D3CD"/>
<path d="M65.9423 99.8189L71.3349 99.5696L83.283 104.521L77.9477 104.677L65.9423 99.8189Z" fill="#61B5A7"/>
<path d="M72.0461 98.4698L66.6535 98.7191L65.9424 99.8189L71.335 99.5697L72.0461 98.4698Z" fill="#70C8BD"/>
<path d="M10.5286 74.3718C10.495 73.1145 10.0045 71.7763 9.12094 70.8428C11.1823 71.8199 13.6084 71.6249 15.7016 72.4727C18.1185 73.4516 18.4637 75.3558 20.2625 76.9036C21.6404 78.0894 23.8761 78.0981 24.9607 79.6294C26.2048 81.3859 25.0468 83.558 26.4704 85.2859C27.6263 86.6888 29.992 87.0167 31.4159 88.2738C33.1236 89.7815 34.2522 91.6978 34.8192 93.8415C35.6455 96.9662 35.3731 101.735 38.2624 103.968C35.4564 101.647 32.2162 101.071 29.168 99.372C25.5041 97.3299 25.7191 92.8998 21.2203 91.4993C19.5946 90.9933 17.2236 91.3483 16.1251 89.7496C14.9121 87.9846 16.7879 86.2923 16.3629 84.5144C15.8746 82.4694 13.4926 82.2902 12.157 80.9714C10.088 78.9288 10.6002 77.0502 10.5286 74.3718Z" fill="#489332"/>
<g opacity="0.59">
<path d="M31.0365 97.6918C29.9062 97.1192 28.8171 96.4681 27.8685 95.658C26.9122 94.8583 26.105 93.9024 25.4895 92.8359C24.2684 90.6863 23.7069 88.2388 23.1327 85.8283C22.8372 84.6215 22.5208 83.3947 21.9107 82.2858C21.3106 81.1731 20.3919 80.2466 19.3471 79.5339C18.3208 78.8015 17.2451 78.1374 16.3006 77.3233C15.8267 76.9194 15.3902 76.4739 15.0145 75.981C14.6388 75.4885 14.3218 74.9528 14.0566 74.3916C14.5193 75.545 15.2674 76.582 16.2029 77.425C17.1393 78.2697 18.2059 78.9568 19.2094 79.7059C19.7123 80.0781 20.1889 80.4737 20.6088 80.9236C21.0287 81.3723 21.3874 81.872 21.6776 82.4098C22.2614 83.4875 22.5655 84.6962 22.8523 85.9005C23.1447 87.1099 23.4437 88.3201 23.8182 89.5101C24.1954 90.6973 24.6463 91.8728 25.2967 92.9462C25.9465 94.0177 26.7884 94.9751 27.7746 95.7617C28.7652 96.5455 29.8753 97.1752 31.0365 97.6918Z" fill="white"/>
</g>
<path d="M32.549 96.7516C31.9551 92.1234 29.9717 89.4645 27.3127 86.4741C24.0799 82.8384 21.7818 79.7451 14.4282 80.1326C17.5751 82.0736 18.8873 84.9849 19.8719 87.2794C20.9059 89.6894 21.923 92.0203 23.0524 94.3884C25.3383 99.1821 30.9156 99.8358 33.1149 105.002C35.3024 103.035 32.8551 99.1368 32.549 96.7516Z" fill="#1F4E39"/>
<path d="M35.7186 110.896C32.9926 110.675 30.2101 110.897 27.5495 110.271C23.9708 109.429 18.4962 107.845 15.2886 106.389C11.3911 104.62 9.41954 102.677 4.81743 102.155C8.58053 97.8087 16.2523 97.3345 21.3169 100.18C24.4716 101.952 26.1485 105.586 29.3342 107.361C31.6091 108.629 34.3598 109.18 36.9968 109.25C36.5876 109.777 36.201 110.443 35.7186 110.896Z" fill="#489332"/>
<path d="M28.6845 100.536C23.6844 93.3334 16.4783 82.0398 6.37509 83.9731C11.5596 85.0107 11.5651 91.7625 15.4983 94.3319C17.6974 95.7685 20.5966 95.693 22.9775 96.713C25.0692 97.6092 26.9918 98.9881 28.6845 100.536Z" fill="#398645"/>
<path d="M10.9782 97.5737C10.1785 96.0954 8.95091 94.8766 7.42424 94.2682C9.7048 94.2109 11.7843 92.9429 14.0067 92.4857C16.9566 91.8786 17.8017 93.0079 20.1932 94.1876C22.1023 95.1293 23.9008 94.252 25.8025 94.8071C28.2224 95.5136 27.6114 97.0015 28.8907 98.8177C30.91 101.685 35.2768 99.4951 38.0328 102.147C40.083 104.12 40.7524 109.963 43.9374 110.439C41.0255 109.861 37.9217 111.731 35.2994 111.068C33.6096 110.641 32.6415 108.832 30.9237 108.415C28.6907 107.873 27.0603 109.758 24.9526 109.857C20.8803 110.048 22.9792 104.647 19.3589 103.808C17.6972 103.424 16.1482 104.112 14.5583 103.167C12.5472 101.97 12.0524 99.559 10.9782 97.5737Z" fill="#95C75B"/>
<path d="M27.9234 96.1758C26.1101 94.3224 27.145 89.5977 26.1549 87.0188C25.2239 84.5933 24.3157 84.2381 24.2956 81.1115C24.2779 78.31 24.7965 75.2675 25.2668 72.4723C26.0327 77.6233 31.1668 76.5534 33.1861 79.9644C34.4067 82.026 34.0962 82.0104 34.042 84.3173C33.9607 87.7676 35.1042 86.0229 36.3106 88.2926C37.1518 89.8748 36.2104 91.8167 36.5606 93.5151C37.007 95.6797 38.1321 95.6212 39.1173 97.1615C41.2174 100.444 39.6219 105.406 41.5485 108.958C39.2888 108.479 36.4585 107.74 34.8473 105.726C33.4295 103.953 33.9331 102.122 33.2995 99.8394C32.1882 95.8353 30.1083 98.4089 27.9234 96.1758Z" fill="#398645"/>
<g opacity="0.59">
<path d="M40.2143 108.343C39.5435 108.353 38.8916 108.121 38.387 107.704C37.8783 107.287 37.5205 106.712 37.2305 106.119C36.6565 104.918 36.3379 103.599 36.0674 102.281C35.8023 100.958 35.5806 99.6233 35.3252 98.2918C35.1956 97.6265 35.0571 96.9618 34.8818 96.3051C34.7046 95.6497 34.496 94.9968 34.1735 94.3884C33.8421 93.7956 33.4692 93.2412 33.0903 92.6904C32.711 92.141 32.3261 91.6012 32.0065 91.024C31.3454 89.878 31.0544 88.5504 30.8953 87.2138C30.7328 85.8732 30.6658 84.5052 30.384 83.173C30.2367 82.5109 30.038 81.8532 29.7063 81.2651C29.3808 80.6781 28.8843 80.1746 28.258 79.9405C28.8719 80.2043 29.3374 80.7184 29.6413 81.3036C29.949 81.8924 30.1247 82.5463 30.2498 83.2055C30.5018 84.5291 30.5443 85.8909 30.6817 87.2457C30.8077 88.5987 31.1143 89.9691 31.7838 91.1562C32.1088 91.7516 32.4958 92.3013 32.8696 92.8506C33.2428 93.3995 33.6101 93.9567 33.9284 94.5321C34.2372 95.1046 34.4468 95.7417 34.6248 96.3852C34.8015 97.0307 34.9433 97.6894 35.0762 98.3505C35.3427 99.6733 35.5588 101.012 35.8582 102.334C36.1559 103.652 36.4994 104.977 37.109 106.185C37.4228 106.779 37.8062 107.353 38.3405 107.763C38.8693 108.177 39.5445 108.384 40.2143 108.343Z" fill="white"/>
</g>
<g opacity="0.59">
<path d="M41.3112 109.742C40.0548 109.507 38.766 109.372 37.5311 109.09C36.9145 108.951 36.3122 108.772 35.7552 108.523C35.1974 108.275 34.6885 107.955 34.2423 107.581C33.7897 107.211 33.43 106.765 33.0461 106.33C32.668 105.892 32.3014 105.444 31.8923 105.018C31.4861 104.593 31.0176 104.191 30.4426 103.912C29.8734 103.628 29.2267 103.47 28.577 103.393C27.9178 103.321 27.2786 103.321 26.6757 103.183C26.074 103.053 25.5378 102.78 25.2019 102.334C24.8505 101.903 24.6071 101.383 24.2836 100.905C23.9678 100.42 23.5947 99.97 23.1567 99.557C22.6887 99.1481 22.0759 98.9176 21.4697 98.7371C20.8582 98.5581 20.2325 98.4287 19.6178 98.2791C19.0043 98.1306 18.3908 97.9664 17.8521 97.6846C17.3147 97.4094 16.8792 96.9685 16.7422 96.419C16.7997 96.6927 16.9222 96.9556 17.1094 97.1804C17.2962 97.4053 17.5397 97.5913 17.8064 97.744C18.3436 98.049 18.9586 98.2344 19.5684 98.4025C20.1816 98.5664 20.8026 98.7061 21.3972 98.8935C21.9875 99.081 22.5677 99.3178 22.9846 99.7006C23.3891 100.103 23.7489 100.553 24.0542 101.025C24.3688 101.495 24.6002 102.01 24.9741 102.479C25.1545 102.715 25.3964 102.925 25.6744 103.084L25.8877 103.198C25.9618 103.23 26.0399 103.256 26.1159 103.286C26.2664 103.35 26.4278 103.384 26.5868 103.425C27.2262 103.574 27.9004 103.58 28.5191 103.652C29.1463 103.722 29.7549 103.869 30.2897 104.131C30.8294 104.387 31.2771 104.763 31.6783 105.177C32.0812 105.591 32.451 106.035 32.8341 106.472C33.2175 106.905 33.598 107.356 34.0779 107.73C34.5486 108.108 35.0832 108.427 35.6627 108.671C36.2419 108.916 36.8603 109.087 37.4886 109.215C38.7506 109.457 40.0385 109.565 41.3112 109.742Z" fill="white"/>
</g>
</svg>
