<svg width="50" height="50" viewBox="0 0 50 50" fill="none" xmlns="http://www.w3.org/2000/svg">
<g clip-path="url(#clip0_109_674)">
<rect width="50" height="50" rx="25" fill="#FDECCE"/>
<path d="M23.6075 31.3785C20.996 31.4315 19.2772 31.4708 18.005 31.9989C16.7325 32.527 23.8846 38.3786 23.8846 38.3786L29.4169 31.9989C29.4169 31.9989 26.0418 31.329 23.6075 31.3785Z" fill="#5E2935"/>
<path d="M16.1209 33.67C16.1209 33.67 20.9758 30.6086 29.1572 33.0043L22.7557 39.5296L16.1209 33.67Z" fill="#EDA970"/>
<path d="M19.8668 28.604L20.2064 35.2902C22.2712 37.8175 24.0805 38.3863 25.4115 35.2902V29.3449C25.4115 29.3448 22.982 29.4629 19.8668 28.604Z" fill="#EDA970"/>
<mask id="mask0_109_674" style="mask-type:luminance" maskUnits="userSpaceOnUse" x="19" y="28" width="7" height="10">
<path d="M19.8668 28.604L20.2064 35.2902C22.2712 37.8175 24.0805 38.3863 25.4115 35.2902V29.3449C25.4115 29.3448 22.982 29.4629 19.8668 28.604Z" fill="white"/>
</mask>
<g mask="url(#mask0_109_674)">
<path d="M20.4557 28.8737C20.4557 28.8737 21.6481 30.857 26.4393 31.2563L26.0774 28.3282L20.4557 28.8737Z" fill="#C6744F"/>
</g>
<path d="M13.979 15.0912C13.8249 11.4644 13.0259 6.20554 20.6561 4.61035C27.7566 3.12589 30.7249 5.83455 31.2117 9.06064C31.6986 12.2867 29.5074 20.565 30.2378 22.0259C30.9683 23.4869 32.3074 29.0868 24.1508 29.452C15.9943 29.8173 14.2293 20.9827 13.979 15.0912Z" fill="#EDA970"/>
<path d="M13.5719 13.6292C14.5022 13.6292 15.3508 13.9718 16.0042 14.5351C15.6155 15.2192 15.3684 16.2295 15.3684 17.3594C15.3684 18.4894 15.6155 19.4999 16.0042 20.1838C15.3508 20.7471 14.5022 21.0897 13.5719 21.0897C11.5118 21.0897 9.84159 19.4197 9.84159 17.3594C9.84142 15.2992 11.5116 13.6292 13.5719 13.6292Z" fill="#EDA970"/>
<mask id="mask1_109_674" style="mask-type:luminance" maskUnits="userSpaceOnUse" x="9" y="13" width="8" height="9">
<path d="M13.5719 13.6292C14.5022 13.6292 15.3508 13.9718 16.0042 14.5351C15.6155 15.2192 15.3684 16.2295 15.3684 17.3594C15.3684 18.4894 15.6155 19.4999 16.0042 20.1838C15.3508 20.7471 14.5022 21.0897 13.5719 21.0897C11.5118 21.0897 9.84159 19.4197 9.84159 17.3594C9.84142 15.2992 11.5116 13.6292 13.5719 13.6292Z" fill="white"/>
</mask>
<g mask="url(#mask1_109_674)">
<path d="M13.183 19.8487C13.2623 19.8487 13.3264 19.7845 13.3264 19.7054C13.3264 19.6261 13.2621 19.562 13.183 19.562C11.9686 19.562 10.9808 18.5741 10.9808 17.3596C10.9808 16.1452 11.9688 15.1574 13.183 15.1574C13.2623 15.1574 13.3264 15.0932 13.3264 15.0141C13.3264 14.9349 13.2621 14.8707 13.183 14.8707C11.8105 14.8707 10.6939 15.9873 10.6939 17.3598C10.6939 18.732 11.8105 19.8487 13.183 19.8487Z" fill="#C6744F"/>
</g>
<mask id="mask2_109_674" style="mask-type:luminance" maskUnits="userSpaceOnUse" x="9" y="13" width="8" height="9">
<path d="M13.5719 13.6292C14.5022 13.6292 15.3508 13.9718 16.0042 14.5351C15.6155 15.2192 15.3684 16.2295 15.3684 17.3594C15.3684 18.4894 15.6155 19.4999 16.0042 20.1838C15.3508 20.7471 14.5022 21.0897 13.5719 21.0897C11.5118 21.0897 9.84159 19.4197 9.84159 17.3594C9.84142 15.2992 11.5116 13.6292 13.5719 13.6292Z" fill="white"/>
</mask>
<g mask="url(#mask2_109_674)">
<path d="M14.4003 19.3977C14.4072 19.3977 14.4142 19.3971 14.4213 19.3961C14.4997 19.3846 14.554 19.3118 14.5425 19.2335C14.2647 17.3357 12.2788 17.0183 12.2589 17.0154C12.1804 17.0044 12.1078 17.0576 12.0959 17.1359C12.0843 17.2141 12.1382 17.2871 12.2165 17.299C12.2896 17.3099 14.012 17.5903 14.2589 19.2747C14.269 19.3463 14.3303 19.3977 14.4003 19.3977Z" fill="#C6744F"/>
</g>
<path d="M31.1222 8.60038C31.1222 8.60038 32.7993 8.54922 34.1849 7.06116C34.1849 7.06116 35.1305 9.37308 32.8711 10.2203C32.8711 10.2203 35.102 10.303 34.7234 11.9346C34.0523 14.827 25.559 11.995 25.559 11.995C25.559 11.995 26.6836 13.6627 25.559 13.9193C24.4342 14.176 19.2927 9.79179 19.2927 9.79179C19.2927 9.79179 26.1035 4.54254 31.1222 8.60038Z" fill="#173332"/>
<mask id="mask3_109_674" style="mask-type:luminance" maskUnits="userSpaceOnUse" x="19" y="7" width="16" height="7">
<path d="M31.1222 8.60038C31.1222 8.60038 32.7993 8.54922 34.1849 7.06116C34.1849 7.06116 35.1305 9.37308 32.8711 10.2203C32.8711 10.2203 35.102 10.303 34.7234 11.9346C34.0523 14.827 25.559 11.995 25.559 11.995C25.559 11.995 26.6836 13.6627 25.559 13.9193C24.4342 14.176 19.2927 9.79179 19.2927 9.79179C19.2927 9.79179 26.1035 4.54254 31.1222 8.60038Z" fill="white"/>
</mask>
<g mask="url(#mask3_109_674)">
<path d="M31.5847 12.557C32.6248 12.557 33.2896 12.3566 33.7146 12.1003C34.333 11.7273 34.4022 11.2567 34.4049 11.2368C34.4154 11.1583 34.3603 11.0862 34.2817 11.0758C34.2025 11.0667 34.132 11.1197 34.1208 11.1975C34.1184 11.2133 34.0571 11.5666 33.5483 11.8656C32.7302 12.3465 30.4444 12.816 24.3222 10.5618C24.2479 10.5343 24.1656 10.5724 24.138 10.6468C24.1107 10.7211 24.1486 10.8037 24.223 10.831C27.7534 12.1307 30.0678 12.557 31.5847 12.557Z" fill="#0F4A49"/>
</g>
<mask id="mask4_109_674" style="mask-type:luminance" maskUnits="userSpaceOnUse" x="19" y="7" width="16" height="7">
<path d="M31.1222 8.60038C31.1222 8.60038 32.7993 8.54922 34.1849 7.06116C34.1849 7.06116 35.1305 9.37308 32.8711 10.2203C32.8711 10.2203 35.102 10.303 34.7234 11.9346C34.0523 14.827 25.559 11.995 25.559 11.995C25.559 11.995 26.6836 13.6627 25.559 13.9193C24.4342 14.176 19.2927 9.79179 19.2927 9.79179C19.2927 9.79179 26.1035 4.54254 31.1222 8.60038Z" fill="white"/>
</mask>
<g mask="url(#mask4_109_674)">
<path d="M30.2574 11.303C31.0239 11.303 31.3265 11.1523 31.3499 11.14C31.4199 11.103 31.4469 11.0164 31.4098 10.9461C31.3729 10.8766 31.2871 10.8493 31.2172 10.8857C31.1978 10.895 30.1071 11.3952 26.6963 10.3585C26.6203 10.3358 26.5405 10.3784 26.5173 10.454C26.4943 10.5297 26.537 10.6098 26.6127 10.633C28.3619 11.1647 29.5226 11.303 30.2574 11.303Z" fill="#0F4A49"/>
</g>
<path d="M20.2083 8.80481C20.2083 8.80481 19.2036 13.5396 15.7734 15.0235C15.7734 15.0235 15.1288 16.828 15.4901 19.9641C15.4901 19.9641 13.348 18.0992 13.8996 13.4316C13.8996 13.4316 15.7487 9.53459 20.2083 8.80481Z" fill="#173332"/>
<path d="M13.8995 13.4318C13.8995 13.4318 13.849 12.8543 13.7954 11.9929C13.5036 7.29281 16.9214 3.16441 21.5958 2.59342C21.6665 2.58484 21.7376 2.57505 21.8091 2.56853C30.8242 1.74673 31.1223 8.60044 31.1223 8.60044C31.1223 8.60044 23.7017 5.04972 13.8995 13.4318Z" fill="#3BB084"/>
<mask id="mask5_109_674" style="mask-type:luminance" maskUnits="userSpaceOnUse" x="13" y="2" width="19" height="12">
<path d="M13.8995 13.4318C13.8995 13.4318 13.849 12.8543 13.7954 11.9929C13.5036 7.29281 16.9214 3.16441 21.5958 2.59342C21.6665 2.58484 21.7376 2.57505 21.8091 2.56853C30.8242 1.74673 31.1223 8.60044 31.1223 8.60044C31.1223 8.60044 23.7017 5.04972 13.8995 13.4318Z" fill="white"/>
</mask>
<g mask="url(#mask5_109_674)">
<path d="M12.4922 13.33C17.2397 8.00679 22.2505 6.74997 25.618 6.63323C29.2704 6.50774 31.8352 7.65469 31.8606 7.66636L31.9796 7.40542C31.8757 7.35821 21.5064 2.79153 12.2781 13.139L12.4922 13.33Z" fill="#FCC342"/>
</g>
<path d="M29.9144 32.0289C28.108 31.8162 23.9388 32.6671 23.7901 36.8147C23.7901 36.8147 22.0463 32.8198 18.0049 31.9989C18.0049 31.9989 7.15721 35.5817 2.69044 48.7475C-1.77633 61.9133 4.28563 67.9753 4.39206 69.8896C4.4985 71.8039 1.94606 78.823 1.94606 78.823C1.94606 78.823 18.0049 89.8834 44.0608 80.4182C44.0608 80.4182 41.9643 64.6536 40.4448 59.148C38.9254 53.6424 29.9144 32.0289 29.9144 32.0289Z" fill="#ED8D3E"/>
<mask id="mask6_109_674" style="mask-type:luminance" maskUnits="userSpaceOnUse" x="1" y="31" width="44" height="54">
<path d="M29.9144 32.0289C28.108 31.8162 23.9388 32.6671 23.7901 36.8147C23.7901 36.8147 22.0463 32.8198 18.0049 31.9989C18.0049 31.9989 7.15721 35.5817 2.69044 48.7475C-1.77633 61.9133 4.28563 67.9753 4.39206 69.8896C4.4985 71.8039 1.94606 78.823 1.94606 78.823C1.94606 78.823 18.0049 89.8834 44.0608 80.4182C44.0608 80.4182 41.9643 64.6536 40.4448 59.148C38.9254 53.6424 29.9144 32.0289 29.9144 32.0289Z" fill="white"/>
</mask>
<g mask="url(#mask6_109_674)">
<path d="M24.5785 39.2724C22.7388 35.7147 18.0729 32.85 16.58 32.599C15.3158 32.3864 18.9052 31.376 18.9052 31.376C18.9052 31.376 25.0334 34.6266 24.5785 39.2724Z" fill="#FCC342"/>
</g>
<mask id="mask7_109_674" style="mask-type:luminance" maskUnits="userSpaceOnUse" x="1" y="31" width="44" height="54">
<path d="M29.9144 32.0289C28.108 31.8162 23.9388 32.6671 23.7901 36.8147C23.7901 36.8147 22.0463 32.8198 18.0049 31.9989C18.0049 31.9989 7.15721 35.5817 2.69044 48.7475C-1.77633 61.9133 4.28563 67.9753 4.39206 69.8896C4.4985 71.8039 1.94606 78.823 1.94606 78.823C1.94606 78.823 18.0049 89.8834 44.0608 80.4182C44.0608 80.4182 41.9643 64.6536 40.4448 59.148C38.9254 53.6424 29.9144 32.0289 29.9144 32.0289Z" fill="white"/>
</mask>
<g mask="url(#mask7_109_674)">
<path d="M24.5787 39.2724C24.5787 39.2724 20.2572 31.2075 31.0717 30.4454L30.5452 32.0882C28.1251 32.6219 26.1408 34.8774 24.5787 39.2724Z" fill="#FCC342"/>
</g>
<mask id="mask8_109_674" style="mask-type:luminance" maskUnits="userSpaceOnUse" x="1" y="31" width="44" height="54">
<path d="M29.9144 32.0289C28.108 31.8162 23.9388 32.6671 23.7901 36.8147C23.7901 36.8147 22.0463 32.8198 18.0049 31.9989C18.0049 31.9989 7.15721 35.5817 2.69044 48.7475C-1.77633 61.9133 4.28563 67.9753 4.39206 69.8896C4.4985 71.8039 1.94606 78.823 1.94606 78.823C1.94606 78.823 18.0049 89.8834 44.0608 80.4182C44.0608 80.4182 41.9643 64.6536 40.4448 59.148C38.9254 53.6424 29.9144 32.0289 29.9144 32.0289Z" fill="white"/>
</mask>
<g mask="url(#mask8_109_674)">
<path d="M29.3548 84.9402C31.9789 71.5641 30.3669 55.4594 24.6931 38.3667L24.6221 38.1528L24.0778 38.3333L24.1487 38.5473C29.7914 55.5464 31.3969 71.5505 28.7921 84.8296L29.3548 84.9402Z" fill="#FCC342"/>
</g>
<path d="M35.6027 60.2926C35.6027 60.2926 40.6699 69.5 47.1851 68.0885C53.7003 66.6768 47.7281 47.8916 45.1219 43.3311C41.1249 36.3367 30.1405 30.6369 29.9144 33.2826C29.6883 35.9282 29.9924 49.9993 35.6027 60.2926Z" fill="#ED8D3E"/>
<path d="M38.9783 45.7853C38.9783 45.7853 39.8812 59.7595 36.3066 60.3537C32.732 60.9478 33.2268 48.7475 33.2268 48.7475L38.9783 45.7853Z" fill="#855338"/>
<path d="M25.7406 44.9615C25.7406 44.9615 22.7796 60.0862 27.8649 59.6739C32.9502 59.2615 30.4639 43.3872 30.4639 43.3872L25.7406 44.9615Z" fill="#855338"/>
<path d="M24.2112 45.7853C21.5496 46.8067 18.9081 48.1333 16.3793 49.4493C13.8677 50.8029 11.2899 52.2417 8.94828 53.874C11.6077 52.8565 14.2535 51.5267 16.7802 50.21C19.2897 48.8558 21.8722 47.4143 24.2112 45.7853Z" fill="#FCC342"/>
<path d="M14.1391 16.49H14.9801C14.9801 16.49 15.1095 27.8002 24.4759 27.7088C32.1804 27.6336 30.4654 22.5828 30.4654 22.5828C30.4654 22.5828 36.6348 31.376 23.8841 31.376C23.1035 31.376 22.3828 31.3195 21.7162 31.2148L21.5899 29.7506L21.24 31.1294C11.5748 29.1955 14.1391 16.49 14.1391 16.49Z" fill="#173332"/>
<path d="M30.8847 27.9577C35.0161 27.5914 36.0469 30.237 36.3221 31.3775C36.6093 32.5668 35.7765 41.7246 36.1609 42.2789C36.5452 42.8332 38.9787 45.7855 38.9787 45.7855C38.9787 45.7855 38.8584 54.1031 36.7052 54.4188C34.5521 54.7345 31.6228 43.5843 31.1892 42.2794C30.7552 40.9743 30.8847 27.9577 30.8847 27.9577Z" fill="#C6744F"/>
<path d="M28.1248 42.0167C28.1248 42.0167 29.7634 28.7067 30.0326 28.1299C30.3016 27.5533 35.1389 28.3946 35.3557 30.4767C35.5392 32.2382 36.6168 39.9606 32.1806 44.7204L28.1248 42.0167Z" fill="#EDA970"/>
<mask id="mask9_109_674" style="mask-type:luminance" maskUnits="userSpaceOnUse" x="28" y="27" width="8" height="18">
<path d="M28.1248 42.0167C28.1248 42.0167 29.7634 28.7067 30.0326 28.1299C30.3016 27.5533 35.1389 28.3946 35.3557 30.4767C35.5392 32.2382 36.6168 39.9606 32.1806 44.7204L28.1248 42.0167Z" fill="white"/>
</mask>
<g mask="url(#mask9_109_674)">
<path d="M31.6479 27.8804C30.6605 28.4369 30.3019 34.8845 30.3019 34.8845" stroke="#C6744F" stroke-width="0.365487" stroke-miterlimit="10" stroke-linecap="round"/>
</g>
<mask id="mask10_109_674" style="mask-type:luminance" maskUnits="userSpaceOnUse" x="28" y="27" width="8" height="18">
<path d="M28.1248 42.0167C28.1248 42.0167 29.7634 28.7067 30.0326 28.1299C30.3016 27.5533 35.1389 28.3946 35.3557 30.4767C35.5392 32.2382 36.6168 39.9606 32.1806 44.7204L28.1248 42.0167Z" fill="white"/>
</mask>
<g mask="url(#mask10_109_674)">
<path d="M33.0832 28.4458C32.0957 29.0024 31.7371 35.4499 31.7371 35.4499" stroke="#C6744F" stroke-width="0.365487" stroke-miterlimit="10" stroke-linecap="round"/>
</g>
<mask id="mask11_109_674" style="mask-type:luminance" maskUnits="userSpaceOnUse" x="28" y="27" width="8" height="18">
<path d="M28.1248 42.0167C28.1248 42.0167 29.7634 28.7067 30.0326 28.1299C30.3016 27.5533 35.1389 28.3946 35.3557 30.4767C35.5392 32.2382 36.6168 39.9606 32.1806 44.7204L28.1248 42.0167Z" fill="white"/>
</mask>
<g mask="url(#mask11_109_674)">
<path d="M34.4748 29.1964C33.4108 29.9394 33.1287 36.2005 33.1287 36.2005" stroke="#C6744F" stroke-width="0.365487" stroke-miterlimit="10" stroke-linecap="round"/>
</g>
<path d="M28.4317 41.1961C28.4317 41.1961 26.5426 36.7526 27.7505 35.443C28.4828 34.649 29.9142 37.2079 29.9142 37.2079L28.4317 41.1961Z" fill="#EDA970"/>
<path d="M28.7685 40.8663C28.1125 42.3946 25.7403 44.9616 25.7403 44.9616C24.586 50.4289 24.8833 53.8742 24.8833 53.8742C27.0754 51.295 30.691 47.8167 32.1805 44.7206L28.7685 40.8663Z" fill="#EDA970"/>
<path d="M23.8528 25.0476C24.7175 25.0476 25.3793 24.7889 25.3922 24.7836C25.4614 24.7559 25.4944 24.6774 25.467 24.6086C25.4392 24.5394 25.3604 24.506 25.292 24.5338C25.2695 24.543 23.0055 25.4238 21.4835 23.7927C21.4328 23.7384 21.3475 23.7355 21.2932 23.7862C21.2388 23.8369 21.236 23.9222 21.2867 23.9765C22.0793 24.8259 23.053 25.0476 23.8528 25.0476Z" fill="#C6744F"/>
</g>
<defs>
<clipPath id="clip0_109_674">
<rect width="50" height="50" rx="25" fill="white"/>
</clipPath>
</defs>
</svg>
