<svg width="60" height="60" viewBox="0 0 60 60" fill="none" xmlns="http://www.w3.org/2000/svg">
<g clip-path="url(#clip0_285_2830)">
<rect width="60" height="60" rx="30" fill="#F9FBFF"/>
<path d="M27.3233 54.4034C27.3233 53.7559 26.7984 53.231 26.1509 53.231H24.2569V55.5759H26.1509C26.7984 55.5759 27.3233 55.051 27.3233 54.4034Z" fill="#FB5858"/>
<path d="M21.1902 54.4034C21.1902 53.7559 21.7151 53.231 22.3627 53.231H24.2566V55.5759H22.3627C21.7151 55.5759 21.1902 55.051 21.1902 54.4034Z" fill="#FFF5F5"/>
<path d="M24.6565 49.0601C25.1761 48.6738 25.9106 48.7819 26.2969 49.3015L27.4269 50.8215L25.545 52.2205L24.415 50.7006C24.0287 50.1809 24.1368 49.4464 24.6565 49.0601Z" fill="#FB5858"/>
<path d="M28.3157 53.9822C28.8353 53.5959 28.9434 52.8614 28.5571 52.3418L27.4271 50.8218L25.5452 52.2208L26.6752 53.7408C27.0615 54.2605 27.796 54.3686 28.3157 53.9822Z" fill="#FFF5F5"/>
<rect x="-3.41699" y="40.4429" width="66.8354" height="19.557" fill="#C5E6E4"/>
<path d="M4.24545 41.6436L6.15697 32.5229L5.61082 20.7807L5.01005 18.8691L3.86314 22.9653L3.31699 34.3798H-1.43451L-0.942975 29.5737C-0.77695 27.7707 -0.854453 27.2619 -0.724515 26.8429C-0.28508 21.8373 -0.0580566 20.6498 0.586244 19.2514L3.31699 11.6054L3.53545 11.4961L9.70694 9.31152H17.2984L23.4699 11.5507L23.6884 11.7146L26.4191 19.2514C27.3221 21.9187 27.4872 23.6819 27.6206 26.9522L27.8937 29.5191L28.4399 34.3798H23.6338L23.2514 24.986C22.9709 22.3449 22.719 20.9558 21.9407 18.6507C21.7501 19.7124 21.6305 20.2891 21.2853 21.1084C21.2091 25.4991 21.012 28.0363 20.7392 32.5229L22.7599 41.9166C22.8574 42.6886 22.7736 43.0128 21.9407 43.0636H5.06467C4.15813 43.0662 4.0662 42.6723 4.24545 41.6436Z" fill="#146168" stroke="#146168" stroke-width="0.093038"/>
<path d="M23.6341 36.2909V34.3794H28.4402L28.7133 36.2909H23.6341Z" fill="#115157" stroke="#115157" stroke-width="0.093038"/>
<path d="M3.37164 36.2909V34.3794H-1.43447L-1.70755 36.2909H3.37164Z" fill="#115157" stroke="#115157" stroke-width="0.093038"/>
<path d="M9.48826 33.6699H5.93829L4.46368 40.7699H9.48826V33.6699Z" fill="#0A3034" stroke="#0A3034" stroke-width="0.093038"/>
<path d="M17.4076 33.6152H20.9576L22.4322 40.7152H17.4076V33.6152Z" fill="#0A3034" stroke="#0A3034" stroke-width="0.093038"/>
<path d="M9.19393 12.7415L10.7668 10.0053L13.5194 19.8555L16.2283 9.95557L17.7139 12.7415C18.6399 13.2773 19.1192 13.639 19.9422 14.3334C18.6374 16.8609 17.8473 18.2362 16.0099 20.2037L15.4856 20.8007L15.1797 21.1987L13.432 23.2384V22.0941C10.2093 19.0759 8.77351 17.3667 6.96564 14.2837C7.76667 13.6645 8.2424 13.3239 9.19393 12.7415Z" fill="#FFC928" stroke="#FFC928" stroke-width="0.0744304"/>
<path d="M13.4759 20.4026L10.1553 8.16455H16.7965L13.4759 20.4026Z" fill="#CB8408"/>
<path d="M10.1988 8.16455C8.14037 9.46424 7.31098 10.5833 6.04811 12.8409H9.23762L10.7232 10.2042L10.1988 8.16455Z" fill="#FFC928" stroke="#F49F0A" stroke-width="0.0744304"/>
<path d="M16.7961 8.16455C18.8546 9.46424 19.684 10.5833 20.9468 12.8409H17.7573L16.2718 10.2042L16.7961 8.16455Z" fill="#FFC928" stroke="#FFC928" stroke-width="0.0744304"/>
<ellipse cx="14.4038" cy="25.8598" rx="0.819224" ry="0.764609" fill="#D9D9D9"/>
<ellipse cx="14.2946" cy="30.4475" rx="0.819224" ry="0.764609" fill="#D9D9D9"/>
<ellipse cx="14.2946" cy="34.9257" rx="0.819224" ry="0.764609" fill="#D9D9D9"/>
<ellipse cx="14.2946" cy="39.4043" rx="0.819224" ry="0.764609" fill="#D9D9D9"/>
<path d="M21.9686 17.1778L28.6004 12.4185L48.3398 13.1206L54.9716 17.1778C59.4186 18.861 60.7005 20.4828 61.5254 24.5898C62.5927 36.6512 62.1229 43.2045 61.5254 54.9401C61.5161 55.6551 61.2759 55.8592 60.4331 55.8764H52.475L52.709 58.9972C52.6819 59.5486 52.5123 59.7432 51.8508 59.8554H24.8554C24.3324 59.775 24.1871 59.574 24.1532 58.9972L24.3873 55.7983H16.2731C15.839 55.6245 15.6811 55.4546 15.6489 54.9401C14.7525 41.4632 14.8182 34.9271 15.6489 24.5898C15.9497 20.5507 17.5141 18.9224 21.9686 17.1778Z" fill="#115157" stroke="#115157" stroke-width="0.132911"/>
<path d="M30.3956 17.1783L33.2044 12.8871L38.1197 28.3353L42.957 12.8091L45.6098 17.1783C47.2633 18.0187 48.1193 18.5859 49.5888 19.675C47.259 23.6389 45.848 25.7957 42.5669 28.8815L41.6307 29.8177L41.0845 30.4419L37.9637 33.6408V31.8463C32.2087 27.1127 29.6448 24.4322 26.4165 19.5969C27.8469 18.6259 28.6964 18.0917 30.3956 17.1783Z" fill="#FFC928" stroke="#FFC928" stroke-width="0.132911"/>
<path d="M38.0414 29.1933L32.1118 10H43.9711L38.0414 29.1933Z" fill="#CB8408"/>
<ellipse cx="18.5358" cy="48.1524" rx="0.780214" ry="0.702192" fill="#D9D9D9"/>
<ellipse cx="58.3268" cy="48.1524" rx="0.780214" ry="0.702192" fill="#D9D9D9"/>
<circle cx="40.6939" cy="43.0811" r="1.0923" fill="#D9D9D9"/>
<circle cx="40.6939" cy="36.0591" r="1.0923" fill="#D9D9D9"/>
<ellipse cx="18.5358" cy="51.4292" rx="0.780214" ry="0.702192" fill="#D9D9D9"/>
<ellipse cx="58.3268" cy="51.4292" rx="0.780214" ry="0.702192" fill="#D9D9D9"/>
<rect x="26.8062" y="49.7908" width="7.80214" height="1.56043" fill="#D9D9D9"/>
<rect x="42.2544" y="49.7908" width="7.80214" height="1.56043" fill="#D9D9D9"/>
<path d="M32.1901 10C28.5143 12.0383 27.0332 13.7934 24.7781 17.334H30.4736L33.1264 13.1989L32.1901 10Z" fill="#FFC928" stroke="#F49F0A" stroke-width="0.132911"/>
<path d="M43.9713 10C47.6471 12.0383 49.1282 13.7934 51.3833 17.334H45.6877L43.035 13.1989L43.9713 10Z" fill="#FFC928" stroke="#FFC928" stroke-width="0.132911"/>
</g>
<defs>
<clipPath id="clip0_285_2830">
<rect width="60" height="60" rx="30" fill="white"/>
</clipPath>
</defs>
</svg>
