<svg width="60" height="60" viewBox="0 0 60 60" fill="none" xmlns="http://www.w3.org/2000/svg">
<g clip-path="url(#clip0_284_2584)">
<rect width="60" height="60" rx="30" fill="#F2FFFA"/>
<path d="M27.3241 54.4037C27.3241 53.7561 26.7992 53.2312 26.1516 53.2312H24.2576V55.5761H26.1516C26.7992 55.5761 27.3241 55.0512 27.3241 54.4037Z" fill="#FB5858"/>
<path d="M21.191 54.4037C21.191 53.7561 21.716 53.2312 22.3635 53.2312H24.2575V55.5761H22.3635C21.716 55.5761 21.191 55.0512 21.191 54.4037Z" fill="#FFF5F5"/>
<path d="M24.6564 49.0606C25.1761 48.6743 25.9105 48.7824 26.2969 49.302L27.4268 50.822L25.545 52.221L24.415 50.701C24.0287 50.1814 24.1367 49.4469 24.6564 49.0606Z" fill="#FB5858"/>
<path d="M28.3154 53.9825C28.8351 53.5961 28.9432 52.8617 28.5568 52.342L27.4269 50.822L25.545 52.2211L26.675 53.741C27.0613 54.2607 27.7957 54.3688 28.3154 53.9825Z" fill="#FFF5F5"/>
<rect x="-3.41748" y="43.1013" width="66.8354" height="16.8987" fill="#FFC14F"/>
<rect x="8.00024" y="22.6814" width="42.543" height="30.5733" rx="4.74684" fill="#6D4D42"/>
<rect x="11.7495" y="11.0002" width="19.1804" height="30.5733" rx="4.74684" fill="#68CA44"/>
<ellipse cx="36.9143" cy="25.638" rx="9.30177" ry="8.72491" fill="#FFC928"/>
<circle cx="36.9872" cy="26.2868" r="5.76854" fill="#FFB200"/>
<path d="M15.3549 16.6409C16.072 16.8509 16.9116 16.6831 17.4818 16.1526C18.0815 15.5945 18.2033 14.8023 17.8578 14.1731H24.9418C24.6873 14.7759 24.8343 15.4927 25.389 16.009C25.9763 16.5555 26.8488 16.7174 27.5795 16.4778V39.8235H15.3549L15.3549 16.6409Z" fill="#44A91F"/>
<rect x="8.00024" y="26.5752" width="42.543" height="26.6795" rx="4.74684" fill="#7C5F55"/>
<path d="M38.7172 40.0591C38.7172 37.8688 40.4928 36.0933 42.6831 36.0933H50.5427V44.025H42.6831C40.4928 44.025 38.7172 42.2494 38.7172 40.0591Z" fill="#FFC928"/>
<path d="M40.7359 39.9872C40.7359 39.5889 41.0587 39.2661 41.457 39.2661H46.5044C46.9027 39.2661 47.2255 39.5889 47.2255 39.9872C47.2255 40.3854 46.9027 40.7082 46.5044 40.7082H41.457C41.0587 40.7082 40.7359 40.3854 40.7359 39.9872Z" fill="#7C5F55"/>
</g>
<defs>
<clipPath id="clip0_284_2584">
<rect width="60" height="60" rx="30" fill="white"/>
</clipPath>
</defs>
</svg>
