<svg width="60" height="60" viewBox="0 0 60 60" fill="none" xmlns="http://www.w3.org/2000/svg">
<g clip-path="url(#clip0_284_2632)">
<rect width="60" height="60" rx="30" fill="#F2FFFA"/>
<path d="M27.3241 54.4037C27.3241 53.7561 26.7992 53.2312 26.1516 53.2312H24.2576V55.5761H26.1516C26.7992 55.5761 27.3241 55.0512 27.3241 54.4037Z" fill="#FB5858"/>
<path d="M21.191 54.4037C21.191 53.7561 21.716 53.2312 22.3635 53.2312H24.2575V55.5761H22.3635C21.716 55.5761 21.191 55.0512 21.191 54.4037Z" fill="#FFF5F5"/>
<path d="M24.6564 49.0606C25.1761 48.6743 25.9105 48.7824 26.2969 49.302L27.4268 50.822L25.545 52.221L24.415 50.701C24.0287 50.1814 24.1367 49.4469 24.6564 49.0606Z" fill="#FB5858"/>
<path d="M28.3154 53.9822C28.8351 53.5959 28.9432 52.8614 28.5568 52.3418L27.4269 50.8218L25.545 52.2208L26.675 53.7408C27.0613 54.2605 27.7957 54.3686 28.3154 53.9822Z" fill="#FFF5F5"/>
<rect x="-3.41748" y="32.4685" width="66.8354" height="27.5316" fill="#EFAB66"/>
<rect x="5.69739" y="6.45581" width="48.4177" height="3.3901" fill="#F29979"/>
<rect x="5.69739" y="59.0024" width="48.4177" height="3.3901" fill="#F29979"/>
<rect x="5.69739" y="9.84595" width="24.2909" height="49.1565" fill="#A3442B"/>
<rect x="29.9885" y="9.84595" width="24.1268" height="31.4526" fill="#BC694B"/>
<rect x="29.9885" y="51.2805" width="24.1268" height="1.13003" fill="#A3442B"/>
<rect x="29.8239" y="41.2986" width="24.2909" height="9.98197" fill="#F29979"/>
<rect x="29.8239" y="52.4106" width="24.2909" height="9.98197" fill="#F29979"/>
<path d="M18.9918 55.8129C18.9918 54.974 19.6719 54.2939 20.5108 54.2939H26.1716C27.0105 54.2939 27.6906 54.974 27.6906 55.8129V59.0024H18.9918V55.8129Z" fill="#EEEDFC"/>
<path d="M7.83124 55.8129C7.83124 54.974 8.51131 54.2939 9.35023 54.2939H15.011C15.8499 54.2939 16.53 54.974 16.53 55.8129V59.0024H7.83124V55.8129Z" fill="#EEEDFC"/>
<rect x="34.0916" y="27.9265" width="15.9204" height="4.3318" rx="2.1659" fill="#EEEDFC"/>
<rect x="34.0916" y="32.2583" width="15.9204" height="4.52014" rx="2.26007" fill="#BFBFD8"/>
<rect x="34.0916" y="36.7783" width="15.9204" height="4.52014" rx="2.26007" fill="#EEEDFC"/>
<rect x="5.69739" y="17.0027" width="24.2909" height="1.13003" fill="#FCC05E"/>
<rect x="9.80042" y="18.1328" width="0.820639" height="4.3318" fill="#FCC05E"/>
<rect x="17.3508" y="18.1328" width="0.820639" height="4.3318" fill="#FCC05E"/>
<rect x="24.9001" y="18.1328" width="0.820639" height="4.3318" fill="#FCC05E"/>
<path d="M7.83124 24.5498C7.83124 23.1901 8.93348 22.0879 10.2932 22.0879C11.6528 22.0879 12.7551 23.1901 12.7551 24.5498V45.9644C12.7551 46.2999 12.483 46.572 12.1475 46.572H8.43883C8.10327 46.572 7.83124 46.2999 7.83124 45.9644V24.5498Z" fill="#BFBFD8"/>
<path d="M15.3806 24.5498C15.3806 23.1901 16.4828 22.0879 17.8425 22.0879C19.2022 22.0879 20.3044 23.1901 20.3044 24.5498V45.9644C20.3044 46.2999 20.0324 46.572 19.6968 46.572H15.9882C15.6526 46.572 15.3806 46.2999 15.3806 45.9644V24.5498Z" fill="#EEEDFC"/>
<path d="M22.7667 24.5498C22.7667 23.1901 23.8689 22.0879 25.2286 22.0879C26.5883 22.0879 27.6905 23.1901 27.6905 24.5498V45.9644C27.6905 46.2999 27.4185 46.572 27.0829 46.572H23.3743C23.0387 46.572 22.7667 46.2999 22.7667 45.9644V24.5498Z" fill="#BFBFD8"/>
<ellipse cx="41.9693" cy="57.3073" rx="0.984767" ry="1.13003" fill="#FCC05E"/>
<ellipse cx="41.9693" cy="46.1955" rx="0.984767" ry="1.13003" fill="#FCC05E"/>
</g>
<defs>
<clipPath id="clip0_284_2632">
<rect width="60" height="60" rx="30" fill="white"/>
</clipPath>
</defs>
</svg>
