<svg width="60" height="60" viewBox="0 0 60 60" fill="none" xmlns="http://www.w3.org/2000/svg">
<g clip-path="url(#clip0_283_2278)">
<rect width="60" height="60" rx="30" fill="#F9FBFF"/>
<path d="M39.1415 20.269H35.1444V15.2727H39.2247C41.1776 15.2752 42.2535 15.5348 44.1378 16.6883C47.2908 18.4931 48.6396 20.0527 49.8003 24.4326H44.7207C43.353 21.4573 42.003 20.7592 39.1415 20.269Z" fill="#A5C3DC" stroke="#A5C3DC" stroke-width="0.189873"/>
<path d="M43.0551 34.8417C44.9357 33.2137 45.9026 32.2323 47.3852 30.345C48.6632 31.9712 49.4379 32.9042 51.5488 34.8417H43.0551Z" fill="#00B9DA" stroke="#00B9DA" stroke-width="0.189873"/>
<path d="M47.3022 33.604C51.4367 33.6042 54.7846 36.8819 54.7847 40.9204C54.7847 44.959 51.4367 48.2366 47.3022 48.2368C43.1676 48.2368 39.8188 44.9591 39.8188 40.9204C39.8189 36.8818 43.1676 33.604 47.3022 33.604Z" fill="#00B9DA" stroke="#00B9DA" stroke-width="0.189873"/>
<rect x="3.41772" y="53.1648" width="53.3544" height="7.21519" rx="1.51899" fill="#555A6E"/>
<rect x="14.5761" y="13.0242" width="4.4967" height="9.32648" fill="#005F85"/>
<rect x="29.7319" y="8.19458" width="2.49816" height="5.16287" fill="#005F85"/>
<rect x="26.0679" y="8.19458" width="2.49816" height="9.65957" rx="1.24908" transform="rotate(-90 26.0679 8.19458)" fill="#CB8408"/>
<rect x="19.073" y="15.1895" width="0.999266" height="5.16287" fill="#C7D4E4"/>
<rect x="20.0721" y="15.1895" width="7.82758" height="5.16287" fill="#A5C3DC"/>
<circle cx="30.9807" cy="17.7708" r="5.41269" fill="#A5C3DC"/>
<rect x="43.0553" y="24.5159" width="8.6603" height="2.66471" fill="#005F85"/>
<path d="M-0.899292 34.9869L14.4958 25.8755L30.5193 34.9869V56.7704H-0.899292V34.9869Z" fill="#D7E6F0"/>
<path d="M3.49933 42.6388C3.49933 42.1145 3.92437 41.6895 4.4487 41.6895H11.7661C12.2904 41.6895 12.7154 42.1145 12.7154 42.6388V56.7704H3.49933V42.6388Z" fill="#00A7C4"/>
<rect x="17.3234" y="41.6895" width="8.37829" height="7.12154" rx="0.949367" fill="#00A7C4"/>
<path d="M-6.01257 33.3598C-6.1177 33.1777 -6.05486 32.9448 -5.87239 32.8403L14.1373 21.3833C14.3905 21.2384 14.7058 21.4212 14.7058 21.7129V26.0127C14.7058 26.1484 14.6334 26.2738 14.5159 26.3416L-3.59053 36.7954C-3.77216 36.9002 -4.00441 36.838 -4.10927 36.6564L-6.01257 33.3598Z" fill="#F49F0A"/>
<path d="M35.0054 33.3776C35.1104 33.1958 35.0479 32.9633 34.866 32.8586L14.7511 21.2807C14.498 21.135 14.1819 21.3178 14.1819 21.6099V25.8666C14.1819 26.0017 14.2537 26.1267 14.3704 26.1947L32.5824 36.8117C32.7641 36.9177 32.9973 36.8557 33.1025 36.6735L35.0054 33.3776Z" fill="#F49F0A"/>
<path d="M43.2953 37.5063C41.6003 39.7839 41.2493 41.118 43.2953 43.7518" stroke="#A5C3DC" stroke-width="1.32911" stroke-linecap="round"/>
</g>
<defs>
<clipPath id="clip0_283_2278">
<rect width="60" height="60" rx="30" fill="white"/>
</clipPath>
</defs>
</svg>
